<?xml version="1.0" encoding="utf-8"?>
<!-- Generator: Adobe Illustrator 22.0.1, SVG Export Plug-In . SVG Version: 6.00 Build 0)  -->
<svg version="1.1" id="Camada_1" xmlns="http://www.w3.org/2000/svg" xmlns:xlink="http://www.w3.org/1999/xlink" x="0px" y="0px"
	 viewBox="0 0 1357 1953" style="enable-background:new 0 0 1357 1953;" xml:space="preserve">
<style type="text/css">
	.st0{opacity:0.3;}
	.st1{fill:#FFFFFF;}
	.st2{fill:#FEFEFE;}
</style>
<g id="Camada_3" class="st0">
	<g id="_x23_7780acff">
		<path class="st1" d="M677.8,81.6c-0.2-17.7,0.9-35.5-1-53.2c2.7,5.1,5,10.3,7.4,15.5c11.1,21.5,20.8,43.7,31.3,65.5
			c-2.7,3.6-7,5.1-10.7,7.5c-4.7,2.8-8.8,6.6-12,11.1c-1.6,0-3.2,0.1-4.8,0.1c-3.2-1.2-6.2-2.9-9.5-3.8c-0.4-1.9-0.6-3.8-0.6-5.7
			C677.8,106.2,677.8,93.9,677.8,81.6z"/>
		<path class="st1" d="M677.6,135.3c16.5,8.1,32.7,16.9,49,25.3c0.6,2.6-0.3,5.4,0.8,7.9c2.5,5.2,7.2,8.9,12,11.8
			c-1.8,1.2-3.7,2.2-5.9,2c-9.4-0.2-18.6-2-28-2.3c-9.2-0.4-18.4,0.6-27.5-1.3C677.7,164.3,677.8,149.8,677.6,135.3z"/>
		<path class="st1" d="M708.8,136.1c7.5-0.8,14.2,3.1,21.2,4.9l0.4,0.1c1.4,3.2,3.1,6.2,4.3,9.5c-1.3,0-2.4-0.2-3.5-0.7
			c-7.6-3.2-15-6.9-22.2-11C708.9,138.1,708.8,136.8,708.8,136.1z"/>
		<path class="st1" d="M761.3,155.3c6.8,2.4,13,6.4,19.2,10.1c6.5,4,13.1,8.1,18.4,13.6c1.5,1.4,2,3.4,2.5,5.3
			c-6.7-3.3-12.2-8.4-18.5-12.1c-7.2-4.8-15.9-7.4-22.2-13.7l-0.1-1C760.8,157,761.2,155.9,761.3,155.3z"/>
		<path class="st1" d="M736.1,162.5c1.1-1.6,1.8-3.6,3.7-4.4c2-0.4,4-0.7,6-1.1c1.5,2.5,3.4,5.8,1.5,8.7c-1.8,3.1-5.8,2.1-8.7,1.6
			C737.4,165.9,736.8,164.1,736.1,162.5z"/>
		<path class="st1" d="M741.8,181.5c5.3-0.1,9.9-3,13.9-6.2c1.4,0.7,2.9,1.5,4.3,2.3v0.3c0,0.4,0.1,1.2,0.2,1.6
			c4,2.8,8.6,4.9,12.7,7.6c0,0.5,0.1,1.6,0.2,2.1c-7.5-0.6-15-1.5-22.3-3.3C747.6,185.1,744.6,183.4,741.8,181.5z"/>
		<path class="st1" d="M679.3,190.8c25.9,0.8,51.7,4.8,76.9,11c9.4,2.5,18.5,5.6,28,7.9c2.9,0.6,5.7,1.9,7.7,4.3l0.7,0.9
			c-1.5,0.7-2.8,1.4-4.4,1.8c-1.9,0.4-3.8,0.8-5.5,1.8c-6.9,3.9-14,7.7-21.1,11.2c-1.7,0.9-3.4-0.8-5-1.3c-7.3-4.2-15.7-5.8-24-7.1
			c-9.9-1.7-20-2.7-30-3.5c-6.7-0.5-13.5-1.8-20.1-0.4c-0.5-0.6-1.1-1.2-1.6-1.8c0.3,15.6-0.1,31.2,0.3,46.9
			c3.7,0.3,7.3,1.5,10.4,3.5c0.5,1.4,1.1,2.8,1.7,4.2l0.1,0.1c-5.3,2.8-10.3,6-15.3,9.2c0-15.1-0.5-30.3,0.2-45.4
			c0.3,1.4,0.6,2.9,0.9,4.3C679,222.7,678.7,206.8,679.3,190.8z"/>
		<path class="st1" d="M787.9,229.4c6.1-3.8,12.6-7.1,18.7-11l0.5,0.1c2.3,0.2,4.7,0.4,7,0.6c1.2,3.7,2.1,7.5,1.9,11.4
			c-0.3,5.5-0.1,11.1-0.7,16.6c-5.6-0.7-10.4-4-15.8-5.6c-4.4-1.8-9.8-2.3-13.1-6.1C784.7,233.4,786.9,231.1,787.9,229.4z"/>
		<path class="st1" d="M828.5,229.8c9.2,5.8,19.2,10.9,26.2,19.5c2.4,4.6,0.2,10.6-3.9,13.5c-3.7,3.2-8.8,3.3-13.4,3.7
			c-0.2,13-0.8,26,0,39c5.9,5.4,14,8.9,17.9,16.4c1.8,3.2,0.3,7.1-1.7,9.7c-3.5,3.9-8.9,5.4-14,5.2c2.1-4.7,0.8-10.3-2.2-14.3
			c-2-2.7-4.9-4.4-7.4-6.6c-2-1.5-1.4-4.3-1.6-6.4C828.2,282.9,828.8,256.4,828.5,229.8z"/>
		<path class="st1" d="M755.7,247.7c7.4-4,14.6-8.5,22-12.5c0.8,2.3,1.6,4.7,1.7,7.2c0.6,12.3-0.6,24.5,0.3,36.8
			c12.1,3.7,23.6,9.3,35.5,13.5c0.5,4.6,0.6,9.3,0.8,13.9c0.5-5.2,0.6-10.3,0.9-15.5c0.7,7.4,0.6,15,0.2,22.4
			c0.2,3.1-3.2,4.1-5.1,5.6c-4.1-2.6-8.4-4.7-13-6.1c-7-2.1-13.7-5.4-20.9-6.3h-0.3c-4.1-5.2-9.7-9.8-16.5-10.5
			c-1.8-0.3-3.4,0.5-4.9,1.2l0,0c-12.7-1.9-25.3-4.7-38-6.8c-8.4-1.9-17.7,0.4-25.2-4.6c0.1-0.4,0.4-1.3,0.5-1.7
			c0-0.3,0.1-0.8,0.2-1.1l0.1-0.8c9.2-5.3,18.3-10.7,27.8-15.5c4.4,1.1,9,1,13.5,1.6c7.2,0.9,14.2,3.4,21.4,4.5
			C756.1,264.5,756.1,256.1,755.7,247.7L755.7,247.7z"/>
		<path class="st1" d="M677.9,310.5c0-5.3,0.4-10.5-0.1-15.8c0.7,0.6,1.3,1.3,2,2c0.3,3,1,5.8,1.3,8.8c0.3,38.3,0.2,76.7,0.2,115
			c0.2,10.5-3.5,21-1,31.4l0.1,0.4c-1.3,1.9-2.5,3.7-3.7,5.6c2.1-18.7,1.1-37.6,1.2-56.3C677.9,371.2,677.8,340.9,677.9,310.5z"/>
		<path class="st1" d="M754.4,314.6c-0.8-5.9,7.6-9.6,11.8-5.7c3,1.8,3,5.4,2.5,8.4c-2.3,2.3-4.9,4.1-8,5.1
			C758,320.5,754.1,318.4,754.4,314.6z"/>
		<path class="st1" d="M768.8,329.7c2.8-2.2,5.8-4.2,8.9-5.9c0.5,0.3,0.8,0.8,1,1.3c1.2,6.2,1.6,12.6,0.5,18.9
			c0,2.1-0.9,4.6,0.4,6.4c3.3,1.7,7,2.2,10.5,3.5c6.5,2.4,13.6,3.5,19.1,8c-2.2,6.3-3.1,13-5.3,19.3c-8.5,2.6-16.6-2.1-24.5-4.6
			c-0.7,15.4,0.5,30.8,0.7,46.2c3.9,0.9,7.7,2.2,11.3,3.9c-2.1,8-4.6,16-6.4,24.1l-0.3-0.2c-0.4-0.1-1.1-0.4-1.5-0.5
			c-0.4,1.3,0,2,1.2,2.2c-0.5,1.8-1,3.7-1.4,5.5l-0.3-0.2c-1.8-1.7-2.5,2.1-0.3,1.6c-3.1,11.4-6.6,22.6-9.5,34
			c-2.4,8.3-3.9,16.8-7.2,24.8c0.3-6.8,1.6-13.6,1.6-20.5c0.2-42.7-0.2-85.3-0.3-128c-0.1-10.7,0.5-21.3-0.3-31.9
			C766.6,334.9,766.3,331.6,768.8,329.7z"/>
		<path class="st1" d="M820.5,325.2c3.3-3,8.7,0.9,9,4.4c-0.2,1.3-0.2,2.7,0.7,3.8l0.4,0.7c-2.3,2.2-5,4.5-8.2,5.1
			c-3.2-0.1-4.4-3.8-6.3-5.8C816.1,330.1,817.6,327,820.5,325.2z"/>
		<path class="st1" d="M750.7,345.8c2.3-3.7,3.8-8,6.9-11.2c-0.9,4.3-0.9,8.6-1,12.9c-1,14-0.5,28-0.6,41.9
			c-0.2,9.9,1.3,19.9,0.1,29.8c-0.9,8-1.5,16-0.9,24c-16.1,0.1-32.1-1.6-48.1-2.5c-1.8-0.2-3.4-1.2-5-2c4.5-8.1,8.1-16.6,12.6-24.7
			c-0.2-0.2-0.7-0.7-1-1l-0.5-0.5l0.9-0.4c2.7-1.1,5.3-2.8,8.3-2.3c11.2,1.8,22.3,4,33,7.4c-0.9-10.3-0.1-20.6-0.2-30.9
			c0-6.3-0.2-12.6-0.2-19c-4.5-2-10.2-0.8-13.9-4.5C744,357.1,747.6,351.6,750.7,345.8z"/>
		<path class="st1" d="M682.7,335.7c17-0.1,33.9,1.4,50.8,3.3c2.8,0.1,5.2,1.5,7.2,3.4c-4.1,7.3-8.3,14.4-12.2,21.8l-0.2-0.1
			c-2.2-0.9-4.5-1.5-6.8-1.7c-8.7-0.7-17.3-1.7-26-2.3c-4.1-0.3-8.3-0.3-12.3-1.4C682.6,351.1,682.7,343.4,682.7,335.7z"/>
		<path class="st1" d="M826.7,348.5c3.6-1.3,7.1-3.1,9.7-6c1.8,11.1-1.3,22.5,1.5,33.5c4.3,6.7,12.7,9.3,17.2,15.8
			c1.5,4.4,0.7,10.2-3.4,13c-5.9,4.3-13.6,5.5-18.9,10.8c0.1,0.4,0.3,1.3,0.5,1.8c-4.1-3.1-8.4-6-12.1-9.6c0.7-1.2,0.5-2.4-0.4-3.4
			c0.4-2.2,1.1-4.5,0.8-6.7c-1.2-4.1-4.6-6.8-7.3-9.9c-1.4-1.2-0.4-3.1-0.1-4.5c3.4-9.9,5.8-20.1,9-30
			C823.8,351.3,824.6,349.1,826.7,348.5z"/>
		<path class="st1" d="M682.8,408.4c5.2-0.9,10.4-1.5,15.6-1.7c2.3,6.1-2.7,11.3-3.4,17.1c-1.2,4.5-4,8.5-6.3,12.6
			c-1,0.3-2,0.5-3,0.8c-1.6-1.4-3.2-2.6-5-3.7C680.9,425,681.5,416.6,682.8,408.4z"/>
		<path class="st1" d="M815.4,421.9c2.4-0.9,4.3,1.1,6,2.3c7,5.7,14.1,11.4,20.7,17.5c9.2,7.5,18.4,15,27.1,23.1
			c3.5,3.2,7.8,5.9,9.4,10.5c-8.3-0.9-14.5-8.2-22.9-8.7c-4.8,1.8-7.3,6.8-11,9.9c-2.6,2.7-6.7,4.6-7.6,8.6
			c-0.7,2.5,0.2,6.2,3.4,6.4c6,0.9,12.1,0.3,18.1,0.5c12-0.2,24,1.2,36,0.6c4.3-0.4,8.5,1,12.8,0.6h0.4c1.7,1.6,3.7,3.7,2.9,6.3
			c-0.6,4-4.6,6.1-8.2,7.2c-10.4,3.3-20.8,6.6-31.3,9.3c-7.5,0-15.2-0.2-22.6,1.6c-3,0.4-2.4,4.3-3.1,6.4l-0.1,0.3
			c-14.9,4.2-29.8,8.7-44.5,13.7c-7.7,2.9-15.5,5.3-23.5,6.8c-2.5,0.3-5.5-0.8-6-3.5c1.5-0.2,1.6-0.7,0.3-1.6
			c-0.3-3,1.7-5.8,2.3-8.6c9.7-33,17.6-66.5,27.8-99.4l0.5-0.1c1.6-0.5,3.2-1,4.8-1.7C810.5,428.1,811.4,423.1,815.4,421.9
			 M800.4,484.5c2.5,1.7,5.1,3.6,8.1,4.1c4.2,1,6.6-7.1,1.9-7.7C806.8,480.5,803,481.9,800.4,484.5z"/>
		<path class="st1" d="M870.7,443.9c12.8,7.5,25.6,15.2,37.3,24.3c6.5,5.1,13.4,10.1,17.6,17.4c-2.8-0.3-4.9-2.3-7.1-3.9
			c-13-8.9-25.1-19.1-37.5-28.7C877.3,450.3,873.5,447.5,870.7,443.9z"/>
		<path class="st1" d="M559.8,448.8c1.5-0.1,3.1-0.2,4.6-0.3c0,2.1,0.1,4.2,0.1,6.3c-1.5-1.1-2.9-2.3-4.4-3.4
			c-0.1-0.7-0.2-1.3-0.2-2L559.8,448.8z"/>
		<path class="st1" d="M755.3,471.1c0.8-7-0.2-14.1,0.6-21.1c1.2,27.5-0.7,55,1,82.5c0.3,3.2-0.1,6.4-1.1,9.4
			c-7.5-3.7-13.4-9.7-19.3-15.5c-13.2-12.5-27.4-24-40.9-36.1c-4.9-4.4-10.2-8.4-15.3-12.6c-2.6-2,0.8-4.9,1.5-7.1l0.4-0.1
			c7-2,14.3-1.7,21.4-0.9C720.8,470.5,738.1,473.6,755.3,471.1z"/>
		<path class="st1" d="M919,504.2c0.2-4.4,5.2-7.7,9.3-6.6c1.1,0.8,2,1.8,3,2.7v0.1c-0.9,2.3-1.5,4.6-1.9,7.1
			c-0.9,0.5-1.9,1-2.8,1.6c-1.4-1-2.9-1.9-4.3-2.9c-0.1,0.5-0.5,1.5-0.6,2.1l-0.1,0.4C920.5,507.3,919.1,506,919,504.2z"/>
		<path class="st1" d="M678.6,501.2c1.9-1.2,3.8-2.4,5.8-3.6c5,3.4,8.9,8.4,14.6,10.8l0.5,0.2l0.3,0.5c2.7,5.1,7.5,8.5,11.9,12
			c3,2.5,7,4.4,7.8,8.5c-13.8-0.1-27.8,0.5-41.5-1.7c-0.1,1.7-0.2,3.4-0.3,5.1c9.3-0.6,18.5-0.4,27.8,0.3c6.3,0.4,12.7-0.3,18.9,0.9
			c3.1,0.6,5.2,3.1,7.5,5c2.6,2.4,5.8,4.1,8.5,6.5c2.4,2.2,3.8,5.1,5.2,7.9c-2.5,7.5,3.6,13.9,9.5,17.5c3.2,2.2,7.3,1.3,10.8,0.5
			c16.1,23.8,31.2,48.4,47.2,72.4c8.8,13.5,17.8,26.9,26.2,40.6c-1.6,0.7-3.2,1.9-5,1.4c-4.5-0.8-8.8-2.6-13.1-4.1
			c-9.3-3.3-19.1-5-28.6-7.3c-8.3-2-16.9-3-25.3-4.5c-11.6-2.1-23.4-2.7-35.1-3.4c-9.6-1-19.2-1.8-28.8-2c-8-1-16.2,0-24.1-1.7
			c0.1-5.7,0.6-11.4-0.9-17c-0.6-3.2-0.3-6.4-0.4-9.6c-0.2-40.6-0.3-81.3-0.2-121.9c0-5.1-0.4-10.3,0.4-15.4
			C678.1,499.7,678.4,500.7,678.6,501.2z"/>
		<path class="st1" d="M895.8,520.7c3.5-1,7.1-1.9,10.6-3.1c2.6,1.1,4.6,3,5.5,5.7c-0.3,1.9-1.7,3.3-2.6,4.9
			c-4.1,6.1-7.5,12.7-11.8,18.6c-3,2.3-6,4.5-8.8,7c-5.9,5.3-13.9,6.9-20.7,10.6c4.6,2.4,9.4,4.5,13.2,8.1c-2.9,5.5-6.7,10.4-9.2,16
			c-17.8-5.1-34.8-12.5-52.3-18.4c-10.7-3.7-21.4-7-32-11.1c-2.8-1.3-5.9-2.1-8-4.3c10.3-2.1,20.2-5.8,30.2-9
			c12.4-3.1,24.8-6.6,37-10.2c2.4,2.1,4.5,4.5,7.2,6.4c4.5-0.1,8.5-2.7,12.6-4.2c8.9-3.5,16.9-8.9,25.2-13.7c1.4-0.8,2.5-2,3.6-3.2
			L895.8,520.7z"/>
		<path class="st1" d="M509.9,552c19.3-6.3,39-11.2,58.8-15.2c0.4,0.5,1.3,1.6,1.7,2.1c1.9-0.4,3.9-0.9,5.8-1.3c-1,1.2-2,2.5-3,3.7
			c-18.5,3.3-36.9,7-55,12c-11.8,2.9-23.3,7.3-35.3,9.4l1.2-0.7C492.3,557.7,501.3,555.1,509.9,552z"/>
		<path class="st1" d="M754.4,553.9c1.7-2.4,3.1-5.6,6.2-6.5c3.8-0.4,6.5,3.1,8.1,6.1c1.5,3.3-1.8,6.1-4,8.1
			C759.8,564.6,753.9,558.9,754.4,553.9z"/>
		<path class="st1" d="M775.1,565.4c14.6,6.4,29.9,11.1,44.8,16.6c27.6,10.2,55.5,19.8,83,30c3.3,1.5,7.7,2.4,8.8,6.3
			c1.2,3.4,2.4,6.9,4,10.2c-12.2,19.5-23,39.8-34.1,60c-2.1,3.6-4.1,7.3-6.5,10.6c-4.9-1.2-10-1.8-15-2.7l-0.3-0.1
			c-22.1-35.1-45.1-69.6-67.6-104.4C786.7,582.9,780.3,574.5,775.1,565.4z"/>
		<path class="st1" d="M881,592.9c3.4-5.2,7-10.3,10.3-15.5c2.3,0.5,4.7,1.2,6.5,2.8c5.1,4.3,10.3,8.4,15.9,12.1
			c3.2,2,5.3,5.1,7.5,8c-2.5,1.4-4.6,4.1-7.5,4.4C902.8,600.4,892.1,596.1,881,592.9z"/>
		<path class="st1" d="M922.8,635.7c-0.6,30.6-0.2,61.1-0.5,91.7c-0.2,5.1,0.3,10.4-1.9,15.2c-4.8,0.1-8.7-3.2-12.9-5.1
			c-7-4.3-14.4-8.2-21-13.1c-0.3-3.4,1-7.4-1.5-10.2c-1-1.5-2.5-2.9-2.9-4.7c0.9-3.4,3.7-6,5.3-9.1
			C899.5,679,911.1,657.3,922.8,635.7z"/>
		<path class="st1" d="M932.3,646c5.7,1.8,10.9,4.5,16.4,6.8l-0.1,0.3c-0.7,2-1.9,3.8-3.3,5.4c-3.9-1.6-7.8-3.4-11.6-5.2
			C932.9,650.9,932.5,648.5,932.3,646z"/>
		<path class="st1" d="M678.8,672.8c17.3,0.2,34.4,2.3,51.7,2.3c9.7,1,19.5,0.5,29.2,2c16,2.1,32.1,3.5,47.7,7.6
			c13.2,2.5,26.6,4.8,38.7,10.8l0.4,0.2c3.6,5.6,7.7,11,10.5,17.2c-9.5-1.2-18.9-2.2-28.3-3.9c-3.2-0.6-6.5-0.4-9.8-0.7
			c-2.6-1.7-2.6-5.4-4.3-7.8c-3.6-5.2-9.6-9.3-16.2-9.1c-5.4,1.1-10,4.9-13.3,9.2c-1.4-1.2-2.9-2.6-4.8-2.8
			c-7.4-1.1-14.4-3.8-21.8-4.2c-7.2-0.4-14.3-2.3-21.6-1.6c-19.5-3.3-39-6.5-58.3-10.5V681C678.7,678.3,678.8,675.6,678.8,672.8z"/>
		<path class="st1" d="M796.2,702.1c5-3,12.6,1.6,11.4,7.5c-0.5,4.1-4.7,5.8-8.1,7c-3.7,0.1-5-4.1-7.1-6.4
			C792.2,707.1,793.2,703.7,796.2,702.1z"/>
		<path class="st1" d="M860.6,720.8c2.1-4,6.8-7.7,11.5-6.8c1.9,2.2,3.5,4.6,5.7,6.7c-1.2,3.5-3.4,6.7-6.3,8.9
			C866.3,730,862.5,725.2,860.6,720.8z"/>
		<path class="st1" d="M630.5,729.1c12.2,0.5,24.4-2.6,36.5-0.1c-4,1.2-8.3,0.8-12.4,1c-20.4,0.8-40.8,1.7-61.1,4
			c-6.2,0.7-12.4,1.8-18.7,1.9c3.4-1.5,7.1-2.7,10.8-2.6c8.1-0.1,16-2.2,24-2.9C616.6,729.9,623.5,728.8,630.5,729.1z"/>
		<path class="st1" d="M680,729.9c4.5-1,9-1.1,13.6-0.5c8.6,1.3,17.3,0,25.9,1.1c7,0.9,14.1,0,21.1,0.8c8.6,1,17.4,1.5,25.9,3.2
			c2.8,0.4,5.1,2.1,7.3,3.8c-1.9,3-3.9,5.9-5.6,9h-0.3c-10.7-0.9-21.5-1.6-32.2-2.9c-5.7-0.7-11.5-0.1-17.1-0.9
			c-6.6-0.9-13.3-0.1-20-1.1c-6.1-0.8-12.7-0.2-18.4-2.6C677.9,736.9,679.5,733.1,680,729.9z"/>
		<path class="st1" d="M786.8,735.5h0.2c7.3,1,14,4.2,20.7,7c2,4.1,3.1,8.5,4.8,12.8c-4.5-0.1-9.2,0.3-13.5-1
			c-5.8-1.9-12.1-2.8-17.3-6.3c0.1-1.6,0.3-3.2,0.4-4.8C783.4,740.4,785.3,738,786.8,735.5z"/>
		<path class="st1" d="M819.4,745.1c6.2-2,12.7,0.2,18.8,1.6c18.8,5.7,37.5,12,55.6,19.9c1.3,0.7,2.7,0.9,4.1,0.5
			c0.8,1.2,1.6,2.4,2.4,3.6c-2.8,3.1-6.3,5.6-8.5,9.2l-0.1,0.2l-0.1,0.1c-3.7,1.4-7.9,4.8-11.8,2c-11.4-7.6-24.6-11.6-37.5-15.6
			c-5.6-1.6-10.8-4.2-16.4-5.7l-0.3-0.1l0.1-0.6c0-0.1,0-0.2,0-0.3C822.6,755.5,821.7,750,819.4,745.1z"/>
		<path class="st1" d="M677.8,756.2c14.2-1.7,28.5-1.6,42.7-0.2c7.3-0.3,14.6,0.9,21.9,1.2c5.7,0.2,10.9,2.8,16.3,4.3
			c-1.7,2.9-3.7,5.7-5.6,8.5l-0.7-0.1c-9.2-1.4-18.6,0-27.9-1c-9.3-1.3-18.7-0.1-28-1.1c-6.2-0.6-12.4-0.9-18.6-1.9
			C677.7,762.6,677.7,759.4,677.8,756.2z"/>
		<path class="st1" d="M770.4,760.9l0.2,0.1c6.7,2.4,14-0.1,20.8,1.8c7.4,1.9,15.4,1.1,22.4,4.4c2.4,2.3,3.4,5.6,5.4,8.2
			c0.5,1,1.4,1.9,1.2,3.1c-0.8,2.2-2.1,4.8-4.9,4.5c-8.8-0.6-17.4-3.1-26.1-4.4c-9.1-1.5-18.3-3-26.9-6.5
			C764.9,768.2,767.8,764.6,770.4,760.9z"/>
		<path class="st1" d="M828.7,768.8c1.8,0.8,3.7,1.5,5.7,2.1c10.9,2.9,21.4,7.1,32.1,10.5c5,2,11.6,3.2,13.6,8.9
			c-3.4,3.5-7.4,6.4-10.8,9.9h-0.2c-11.4-2.6-22.1-7.6-33.1-11.6l-0.3-0.1C833.7,781.8,831.2,775.3,828.7,768.8z"/>
		<path class="st1" d="M894.8,793c2.6-0.6,5.1-1.5,7.6-2.5c-0.2,2.8-0.4,5.7-1.7,8.3c-4.3,8.2-3.6,17.8-3.9,26.8
			c-0.3,28.3,0.5,56.7,0,85c-0.1,10.6,0,21.3-1.2,31.8c-0.5-0.2-1.5-0.5-1.9-0.7c-3.7-8.3-6.6-17-9.9-25.5c-3.1-9-6.9-17.8-9.9-26.9
			c1.2-2.5,0.5-5.3,0-7.9c-3.1-16.8-1.4-34-1.8-51c-0.3-6.6,0.9-13.2,1.8-19.7v-0.2c6.7-6.1,13.5-11.9,20.6-17.6L894.8,793z"/>
		<path class="st1" d="M787.5,809.3c3-1.1,5.8-2.7,8.9-3.5c6.2,1.5,11.4,5.7,16.7,9.1c4.6,3.5,11.5,6.6,11.1,13.5
			c-2.8-0.8-5.7-1.6-8-3.4c-6-4.4-12.1-8.7-18.6-12.3c-1.4-1.1-3.1,0-4.5,0.6c-5.8,2.8-11.9,4.9-18,7c-6.8,2.3-14.1,1.9-21.1,3
			c-0.3,10.1,0,20.2-0.1,30.3c0.3,9.3-1.5,18.6-0.6,28c0.9,8.6,0.6,17.3,0.8,26c0.1,3.5-0.3,6.9-1.3,10.2c-2.9-0.8-5.7-1.8-8.5-2.5
			v-0.4c0.9-5.1-0.4-10.3-0.3-15.4c-0.3-28.5-0.3-57,1.1-85.4c5.2-0.5,10.2,0.6,15.4,0.7C769.7,814,778.9,812.5,787.5,809.3z"/>
		<path class="st1" d="M836.5,827.4c-1.2-3.9,1.5-9.4,6-9.1c2.7-0.3,4.6,1.8,6.6,3.3c-0.6,2.4-1.1,4.9-1.3,7.4
			c-2.1,1.3-4.2,2.8-6.2,4.3C839.8,831.4,837.6,829.8,836.5,827.4z"/>
		<path class="st1" d="M762.2,847.5c0.2-5.2-0.5-10.5,0.8-15.7c7.9,0.1,15.9,0.4,23.8,1.4c0.6,11.2,0,22.4,0.1,33.6
			c-8,0.1-16-1.5-24.1-2C761.7,859.2,762.4,853.3,762.2,847.5z"/>
		<path class="st1" d="M802,835.9c8.4,0.3,16.8,1.7,25.2,2.1c-1.7,11-0.4,22.2-1.6,33.3c-7.8,0-15.7-0.4-23.4-1.6
			C801.8,858.4,802,847.1,802,835.9z"/>
		<path class="st1" d="M836.5,842.9c1.2-0.2,2.3-0.4,3.5-0.6c2.8,13.9,1.4,28.1,2.8,42.1c0.6,13.3,0.1,26.7,0.2,40.1
			c0.1,6.1-0.6,12.1-1.1,18.2c-9.8-3-19.5-6.2-29.3-9c-2.2-0.6-4.4-0.6-6.6-0.7c-4.9-0.7-9.4-2.6-14.2-3.7c-0.5-1-0.9-2-1.3-3
			c2.4-0.5,4.9-1.4,7.4-0.8c12.8,3.2,26.1,4.7,39.2,5.9c-0.2-22.3,0.4-44.5-0.1-66.8C836.5,857.3,835.9,850.1,836.5,842.9z"/>
		<path class="st1" d="M762.9,877.7c8.1,0.5,16.3,0.8,24.2,2.4c-0.3,11.5,0.4,23.1-0.6,34.6c-3.8-1.2-7.4-2.8-11.1-4.2
			c-4-1.5-8.3-0.1-12,1.5C762.2,900.7,763.1,889.2,762.9,877.7z"/>
		<path class="st1" d="M802.3,881.8c7.8,1.6,15.9,1.5,23.7,3.2c-0.2,6.5-0.1,13-0.2,19.5c-0.1,4.6,0.3,9.2-0.9,13.7
			c-7.6-0.9-15.4-0.8-22.8-2.6C801.7,904.3,802,893,802.3,881.8z"/>
		<path class="st1" d="M766.6,934.3c-1.8-4.6,3.3-7.6,5.7-10.8c4.7,0.9,9.2,5,9.5,9.9c-1.7,2.6-4.4,4.4-7.1,5.8
			C771.2,939.9,768.6,936.7,766.6,934.3z"/>
		<path class="st1" d="M872.9,934.2c0.8-0.6,1.5-1.3,2.3-1.8c1.2,4.2,2.5,8.5,4,12.6c0.4,1.5,1.8,2.4,3,3.3l0.3,0.2
			c0.9,2.6,1.5,5.3,2,7.9c-2.8-0.4-5.6-1-8.2-2.3c-0.9-1.4-2-2.8-2-4.5C874,944.4,874.2,939.2,872.9,934.2z"/>
		<path class="st1" d="M874.2,979.2c3.4-1.2,7.1-4.5,10.6-2c2.9,1.8,6.4,4.4,6,8.3c0.2,41-0.2,82,0.1,123c-0.1,3.6,0.2,7.2-0.4,10.8
			c-1.9,2.5-5,4.3-8,5.2c-8.5-3.5-16.7-8.1-25.7-10.5c-1.7-0.3-2.1-2-2.3-3.4c-1-8.1-8-14.9-16-16c-5.3-0.6-9.8,2.8-13.3,6.4
			c-3.7-0.3-6.8-2.6-10.2-3.9c-25.9-11-52.3-21.1-78.3-31.8l-0.1-0.3c-0.3-1.4-0.6-2.7-1-4.1c4-3,9.1-3.7,13.9-2.9
			c17.3,1.8,34.6,3.9,51.7,6.9c17.7,2.4,35.1,6.3,52.3,11.1c2.3,0.6,4.6,1,6.9,1.4c-8.7-3.7-17.7-6.4-26.7-9.4
			c-31.4-10.9-64.7-14-97.4-18.5c-9.9-1.3-20.1-0.1-29.7-3.2c-3.7-1-7.6-1.5-11.1-3.1c4.9-2.2,9.9-4.3,15.2-5.5
			c4.1,0.3,7.8-1.5,11.7-2.4c11.7-1.6,23.3,0.9,35,1.8c19.5,1.6,38.8,4.5,58,8.2c18.9,4.2,37.6,9.4,55.5,16.7
			c1-21.5-0.8-43,0.8-64.5C872.1,991.4,872.6,985.2,874.2,979.2z"/>
		<path class="st1" d="M677.5,1052.9c6.2,1.8,11.8,5.3,17.8,7.7c16.9,7.5,34.2,13.8,51.3,20.7c18.1,7.7,36.6,14.8,54.9,22
			c6.9,3,14.1,5.2,20.3,9.5c-2.2,3.6-6.4,5.1-9.8,7.4c-16.8,9.8-33.5,19.8-50.4,29.5c-7,3.9-13.5,8.5-20.2,12.9
			c-3.4-2.1-6.8-4.8-11-5c-6.4-0.9-11.7,4-15.2,8.8c-2.5,3.1-2.5,7.2-3,10.9c-0.4,2.6-3.2,3.7-5.2,4.9c-10,5.6-19.5,11.9-29.6,17.2
			c0.6-22.3,0.4-44.5,0.5-66.8C677.9,1106,677.9,1079.5,677.5,1052.9z"/>
		<path class="st1" d="M829.6,1110.4c2.3-3,5.4-8.6,9.8-5.8c2.6,1.1,5.5,4.3,4.8,7.1c-1.3,1-1.1,1.5,0.4,1.6
			c-1.5,3.5-5.3,7.5-9.3,5.4C831.5,1117.6,830.4,1113.8,829.6,1110.4z"/>
		<path class="st1" d="M848.3,1123.2c9.9,1.6,18.9,6.5,28.2,10.3c4.3,1.4,3.2,6.8,5.1,10c2.5,3.7,6.1,6.6,10,8.8
			c-0.9,24.4-0.6,48.8-0.8,73.2c-0.1,10.1,0.7,20.1,0.5,30.2c-6.5-20.7-12.9-41.4-20.1-61.9c-6.5-19.7-14-39.1-20.1-58.9
			C850,1131,848.1,1127.3,848.3,1123.2z"/>
		<path class="st1" d="M823.1,1126.2c1.6-0.8,3.5-1.8,5.3-0.7c4.2,1.8,9.4,3.5,10.7,8.5c7.1,19.5,13.3,39.2,20,58.8
			c6.2,17.8,11.9,35.9,18.3,53.7c3.1,9.1,6.4,18.1,9.2,27.3c-7.5-4.5-14.2-10-21.5-14.8c-32.9-22.2-65.9-44.3-98.9-66.3
			c-7-5-14.9-9-20.8-15.4c0.2-1.6,0.2-3.3,1.5-4.5c5-5.3,11.6-8.6,17.8-12.3C784.2,1149.3,803.5,1137.6,823.1,1126.2z"/>
		<path class="st1" d="M722.8,1171.8c1.6-2.4,4.4-5.2,7.6-4.1c3.2,0.6,6.1,3.4,6.3,6.7c0.3,3.1-2.5,5.1-4.3,7.2
			C727.1,1183.3,719.6,1177.3,722.8,1171.8z"/>
		<path class="st1" d="M678.5,1210.9c13.8-7.8,27.3-16,41.1-23.8c0.1,3.7-1.8,7-2.8,10.5c-3.9,12.3-7.1,24.9-11.5,37
			c-1.4,2.3-2.6,4.7-3.3,7.3c-3.9,12.5-7.8,25-11.3,37.7c-0.8,2.8-2,5.5-3.4,8c-3.7-1-8.1-2.2-9.2-6.4c-0.1-19.2,0.1-38.4-0.3-57.7
			C678,1219.3,676.9,1214.9,678.5,1210.9z"/>
		<path class="st1" d="M728.6,1197.6c1.3-5.7,8.6-11,14.1-7.3c42.2,28.6,84.4,57.1,126.8,85.3c3.9,2.9,8.4,5,11.5,8.9
			c-0.3,2.2-2.8,3.1-4.5,4.2c-1.6,0.6-3.3,1.9-5.1,1.7c-4.3-2.3-9.1-3.3-14-3.2c-29-0.2-57.9,0-86.9-0.1c-16.7-0.2-33.4,0.3-50-0.7
			c-5.7-0.2-11.4,0.2-16.9-1.3c1.5-3.9,3.6-7.9,2.6-12.2C712.8,1247.5,720.8,1222.5,728.6,1197.6z"/>
		<path class="st1" d="M598.5,1267.8c17,4,33.9,8.2,50.9,12.4c4.4,1,8.8,2.1,12.8,4c-4.3,1.2-8.9,0.7-13.3,0.9
			c-11.5-2.9-22.7-7.4-34.1-10.9C609.3,1272,603.5,1270.9,598.5,1267.8z"/>
		<path class="st1" d="M172.1,1297.6c9.4-2,19-1.4,28.5-1.5c6.3,0.1,12.4,1.8,18.5,3.2c5.3,1.3,10.8,1.3,16.1,2.7
			c-10.5,0.7-21-1.4-31.6-1c-22.6-0.5-45.1,0.5-67.6,2.8c1-0.5,2-0.9,3-1.3C150,1300.6,161.2,1300.4,172.1,1297.6z"/>
		<path class="st1" d="M678.2,1296.9c0.8,0.1,2.3,0.2,3,0.3c-0.1,1-0.2,2-0.3,3c0.6,0.3,1.3,0.7,1.9,1c-0.8,2.4-1.5,5.1,0.3,7.3
			c-1.9,7.2-3.7,14.4-6.3,21.3C676,1318.9,677.8,1307.9,678.2,1296.9z"/>
		<path class="st1" d="M697.6,1302.9c6.1-0.3,11.6,2.5,17.3,4.4c13.4,4.7,27.1,8.6,40.5,13.4c4.6,1.5,9,4.9,14.1,3.9
			c-13.1,5.1-26.7,9.1-39.9,13.8l-0.3-0.1c-13.1-4.9-26.7-8.2-40-12.4c0.8-2.6,1.6-5.2,2.4-7.7l0.3-0.1c0.3-0.1,0.9-0.4,1.1-0.5
			C695.1,1312.8,696.7,1307.9,697.6,1302.9z"/>
		<path class="st1" d="M737.6,1346.7c15.3-5,30.7-9.5,45.8-15.2c2.7,1.1,4.5,3.3,5.6,5.9c-3.1,3-5.2,6.7-7.4,10.4
			c-22.6,1.5-45,5.2-67.6,6.4C722.1,1352.5,729.7,1349.2,737.6,1346.7z"/>
		<path class="st1" d="M686.1,1337.1c1.5-1,3-2,4.5-3c7.4,1.4,14.6,3.5,22,4.8c2.3,0.3,4.2,1.5,6,2.9l0.3,0.2
			c-6.5,2.2-12.9,4.3-19.3,6.6l-0.4-0.2c-4.1-1.8-8.5-2.8-13-3.4c-0.4-1.3-0.9-2.7-1.3-4c0.3-1.2,0.6-2.4,0.9-3.6L686.1,1337.1z"/>
		<path class="st1" d="M796.7,1343.7c4.8-0.3,9,3.5,10.7,7.8c-1,2.5-3.2,4.2-5.3,5.8c-1.6,1-3.5,2.6-5.4,1.3c-2-1.9-3.6-4.1-5.1-6.4
			C791.1,1348.7,793.8,1345.4,796.7,1343.7z"/>
		<path class="st1" d="M815.7,1348.3c4.1,0.4,6.7-3.8,10.8-3.5c6.4-0.9,11.4,3.8,17.2,5.5c16.2,6.3,33.4,10.2,49,18
			c11,4.4,22.4,7.5,33.7,11c5,1.6,10.3,2.7,14.6,5.9c-5.7-0.6-11-3.1-16.6-4.3c-34.2-10-68.5-19.2-102.8-28.7
			c-2.4-1-5.7-1.1-6.6-3.9H815.7z"/>
		<path class="st1" d="M810.3,1362.9c1.8-1.3,3.8-3,6.1-1.7c12.9,4.1,26,7.8,39,11.8c3.8,1.3,7.8,1.9,11.3,3.9
			c-3.8-0.4-7.6-1-11.1-2.3c-2.5-0.8-5-2-7.8-1.8c-4.2,0.4-8.2-1.2-12.3-1.7c-5-0.6-9.5-2.7-14.3-3.8
			C817.3,1366.5,813.8,1364.7,810.3,1362.9z"/>
		<path class="st1" d="M735.9,1362.2c1.2,0,2.5-0.1,3.7,0.2c2.9,0.9,5.9,1.4,8.9,1.4c12,0.3,24,1.5,36,2.7c-0.6,1.1-1.2,2.3-1.9,3.5
			c-1,0.7-1.8,1.8-3.1,1.9c-12,0.1-23.2-5-35-5.5c-4.7-0.2-9.4-0.5-14-1.3c1.3-0.1,2.7-0.2,4-0.3c0.3-0.5,0.9-1.5,1.2-2
			L735.9,1362.2z"/>
		<path class="st1" d="M678.5,1366.9c12.5,0.6,24.9-2.3,37.3-2.4c3.1,1.7,6.3,3.3,9.8,4c8.2,1.8,16,4.9,23.8,7.9
			c8,3.6,17.8,4.1,23.9,11.1c-1.2,2.3-2.3,4.6-3.2,7l-0.3-0.1c-0.6-0.3-1.8-1-2.4-1.3c-0.4,0.4-1.3,1.3-1.7,1.7
			c-10.7-4-21.7-6.7-32.5-10.1c-12.4-4.3-24.8-8.4-37-13.1c-5.8-2.4-12.4-0.8-18.2-3.3C678.3,1367.9,678.5,1367.3,678.5,1366.9z"/>
		<path class="st1" d="M796.2,1369.1c0.9-1.2,2.5-1.3,3.9-1.7c1.3,1.6,2.4,3.6,4.4,4.3c4.3,1.7,8.6,3.3,12.9,5
			c22,7,44.1,13.9,66.1,21c16.9,5.3,33.7,11,50.1,17.8c9.9,3.5,19.9,6.4,29.6,10.4c-7.4,3.2-15,5.7-22.5,8.5
			c0.2-0.5,0.6-1.5,0.8-2.1c-7.3-4-15.5-6-23.4-8.7c-19-6.8-38.5-12.4-57.6-19c-11.2-3.8-22.4-7.5-33.5-11.6
			c-12.4-4.5-25.6-7.4-37.2-13.8C791.7,1375.8,793.6,1372.2,796.2,1369.1z"/>
		<path class="st1" d="M1.9,1369.1c0.9,9.4,1.4,18.8,2.7,28.2c-0.8,0.3-1.5,0.5-2.3,0.8c-0.4-2.2-1-4.4-1.7-6.5v-3.5
			C1.6,1381.8,2,1375.4,1.9,1369.1z"/>
		<path class="st1" d="M867.6,1380.9c6.6,0.2,12.8,3.1,19.2,4.4c15.4,4.4,31.1,7.7,46.3,12.8c8,2.5,15.8,5.6,23.7,8.2
			c11,4.2,22.9,5.4,33.9,9.8c-3.1,1.1-6.1,2.3-9.1,3.7l-0.4-0.2c-4.8-3.2-10.8-3-16.2-4.4c-12.5-3-25.1-6-37.4-10
			c-9.5-3.3-19-7-28.6-10.1c-7.8-2.2-15.7-4.2-23.5-6.6C871.9,1387.3,869.8,1383.8,867.6,1380.9z"/>
		<path class="st1" d="M785.5,1386.9L785.5,1386.9c11.9,4.8,23.9,9.5,36,13.6c20.1,7.4,40.7,13.5,60.7,21.3
			c10.7,3.7,21,8.5,32.2,10.4c5.4,1.1,10.1,3.9,15.2,5.7c-5,2-10.1,3.7-15.2,5.3c-4.1-2.2-8.8-2.2-13.3-3.1c-10.7-2-20.8-6-31.1-9.2
			c-26.8-8.3-53.1-18.5-79.7-27.4c-3.8-1.1-7.5-2.9-10.6-5.3C781.6,1394.5,783.7,1390.8,785.5,1386.9z"/>
		<path class="st1" d="M1011.8,1406.7c4.7-0.5,9.4,4.1,8.6,8.8c-2,3-5,6.7-9,6.4c-2-1.8-3.7-4-5.1-6.2
			C1003.5,1411.8,1008.7,1408.2,1011.8,1406.7z"/>
		<path class="st1" d="M1025.7,1424.8c1.2-1.3,2.8-2.9,4.9-2.1c12.2,3.5,24.2,7.3,36.5,10.3c12.2,3,24.2,6.9,36.5,9.9l-0.2,0.4
			c-0.8,1-0.7,2.4,0,3.4l0.2,0.5c-4.5,3.1-8.9,6.3-13.7,9c-5.9,0.3-11.2-2.5-16.6-4.1c-7.3-2.3-14.5-5-21.7-7.4
			c-9.9-3.3-20.1-5.6-30.1-8.9c-2.3-0.8-4.3-2-6.3-3.2C1018.6,1429.8,1022.7,1428,1025.7,1424.8z"/>
		<path class="st1" d="M995,1432c2.3,0.2,4.4,1.1,6.6,1.7c-2.3,4.8-4.4,9.5-6.7,14.3c-6.4-2.1-13.2-2.9-19.6-5.3
			c-4.3-1.7-8.8-2.6-12.9-4.8c3-1.3,6-2.8,9.3-3.2c6.8,0.5,13.7-0.3,20.5,0.9C993.2,1434.4,994,1433.2,995,1432z"/>
		<path class="st1" d="M1116,1439.7c1,0.2,2,0.3,3,0.5c2.6,0.2,3,3.5,4.2,5.4c-2.1,0.5-4.3,0.9-6.4,1.6l-0.3,0.1
			c-0.2-0.2-0.7-0.6-0.9-0.8c0.9-0.9,1.7-1.9,2.4-2.9C1117.6,1442,1116.7,1440.9,1116,1439.7z"/>
		<path class="st1" d="M931.8,1448.8c3.8-1.7,7.8-2.8,11.8-4c4.9,1.9,10.3,0.6,15.1,2.8c5.2,2.2,10.4,4.5,15.8,6.1
			c3.9,1.3,8,2.1,11.5,4.4c1.9,1.2,1.5,3.7,1.5,5.6c0,0.4,0,1.3,0,1.8l-0.8,0.4c-2.2,0.9-4.5,2.4-6.9,1.6
			c-6.8-1.8-13.3-4.4-20.1-6.2c-7.1-2.4-14.5-4.2-21.1-7.8c-2-1-4.2-1.4-6.3-1.7C932.1,1450.6,931.9,1449.7,931.8,1448.8z"/>
		<path class="st1" d="M1008.2,1444.9c1.9-0.9,4-1.2,6-0.4c13,3.7,25.9,7.8,38.7,12.4c7.2,2.6,15.1,3.9,21.4,8.7
			c-3.8,2.8-7.7,5.4-11.9,7.7c-6.8-3.2-14.2-4.7-21.2-7.5c-12.2-4.5-25.2-6.8-37-12.4C1005.4,1450.5,1006.6,1447.6,1008.2,1444.9z"
			/>
		<path class="st1" d="M1131.1,1454.3c3.3-1.8,6.9,0.4,10.3,1c22.5,6.8,44.6,15,67,22.3c20.7,6.7,41.4,13.7,62.1,20.3l-0.1,0.5
			c-0.4,2-0.9,4.1-2.5,5.5c-3.3,3.2-7.1,6.2-11.4,7.9c-8.1-0.9-15.7-4.4-23.5-6.8c-27.8-9.8-55.8-19.2-84.2-26.8
			c-3.9-1-7.8-1.8-11.5-3.3C1134.8,1468.2,1133.5,1461.1,1131.1,1454.3z"/>
		<path class="st1" d="M1114,1456.3c0.7,0.4,1.4,0.9,2,1.4c1.2,2.3,1.9,4.9,2.6,7.5c-4.8,1.6-9.5-0.9-13.7-2.9
			C1107.9,1460.1,1112,1459.6,1114,1456.3z"/>
		<path class="st1" d="M678.8,1458.9c3.3,0,6.7-0.1,10,0.6c10.3,2.1,20.6,4.4,30.8,7.3c3.3,0.8,5.8,3.2,7.8,5.8l0.3,0.3
			c-1.6,2.8-3,5.6-4.4,8.5l-0.2-0.1c-3.9-1.7-8.1-2.5-12.3-3.4c-10.8-2.7-21.4-5.9-31.9-9.4C678.8,1465.3,678.8,1462.1,678.8,1458.9
			z"/>
		<path class="st1" d="M1002.6,1464.2c10.1,0.4,19.3,5.4,28.8,8.4c6.7,2.4,14.1,3.2,20.2,7.2c-1.9,1.3-3.8,2.7-5.9,3.6
			c-1.9,0.6-3.8,1.3-5.7,1.8c-3.6,1.1-7.3-0.4-10.8-1.2c-10.8-2.9-21.9-5.4-31.6-11.3C999,1469.8,999.7,1466,1002.6,1464.2z"/>
		<path class="st1" d="M1080,1474.3c5.4-1.2,10.7-5,16.4-2.9c9.6,3.4,19.6,6,28.7,10.5c2.3,1,3,3.7,4.2,5.7l0.4-0.7l0.3-0.5
			c0.7,2.8,1.5,5.5,2.5,8.2c-8.5-0.8-16.4-4.2-24.5-6.6c-8.6-2.7-17.3-5-25.6-8.6c-2.2-0.9-3.7-2.7-5.3-4.4
			C1078.2,1474.8,1079.1,1474.5,1080,1474.3z"/>
		<path class="st1" d="M738.9,1473.7h0.3c7.9-0.2,15.3,2.7,22.9,4.4c9.9,2.9,20.3,4.4,29.6,8.8c-5.6,2-11.2,4.6-17,5.8
			c-6.6-3.3-14.1-2.1-21.1-3.7c-6.5-1.7-13.9-2.4-18.4-8.1l-0.1-0.1C736.4,1478.4,737.7,1476,738.9,1473.7z"/>
		<path class="st1" d="M1053.1,1490.9c4.9-2.9,9.7-5.8,14.4-8.9c11,6.5,23.6,9.4,35.4,14.1c9.1,3.6,18.6,6.4,27.5,10.5
			c4.8,2,5.7,7.7,9.2,11.1c0.2,0.4,0.7,1.4,1,1.8c-7.9-0.2-15.5-2.4-22.9-5.1c-13.5-4.6-27.3-8.1-40.6-13.2
			c-8-2.9-16.7-4.9-23.7-10.1L1053.1,1490.9z"/>
		<path class="st1" d="M692.6,1499.5c0.4-5.2-0.6-10.4,0.5-15.5c4.4,1,8.9,1.8,13.5,2.5c4.2,0.3,8.1,2,10.8,5.3
			c-2.4,3.9-4.3,8.1-7,11.8c-1.2,1.8-3.5,1.8-5.4,2.6c-4.3,1.1-8,3.7-11.5,6.4C692.7,1508.3,692.3,1503.9,692.6,1499.5z"/>
		<path class="st1" d="M1141,1486.8c9.1,0.7,17.2,5.5,25.6,8.6c18.7,7,37.7,12.9,56.6,19.4c6.9,2.7,14.2,4.1,20.9,7.3
			c-0.7,1.6-1.3,3.2-2,4.8l-0.1,0.3c-1.4,1.1-2.6,2.6-4.3,3.3c-8.9-0.7-17.1-4.5-25.6-6.8c-21.5-7-43-14.1-64.3-21.6
			c-0.9-0.2-1.8-0.4-2.7-0.5l-0.4-0.1C1143.7,1496.7,1142.3,1491.8,1141,1486.8z"/>
		<path class="st1" d="M727.5,1495.9c5.7,0.7,11.5,1.3,17,3.2c1.5,0.4,2.7,1.3,3.6,2.6c-3.5,1.2-7.3,1.2-10.8,2.5
			c-3.3-1.1-6.7-2.2-9.4-4.4C727.9,1498.8,727.7,1496.8,727.5,1495.9z"/>
		<path class="st1" d="M797.9,1503.4c-0.4-5.1,4.9-7.5,9-8.2c1.4,4,3.7,7.9,3.7,12.3c-1.8,23.2-0.1,46.6-1.1,69.9
			c-1.3,12.7-0.3,25.4-0.5,38.1c0.1,13.3-0.2,26.6,0.2,39.9c1.5,10.8,0.7,21.8-1.2,32.5c-1,0.1-2,0.2-3,0.3
			c-1.7-2.9-3.5-5.8-4.8-8.9c0.3-3.8-1.5-7.2-1.9-10.9c-0.5-3.7-0.5-7.3-0.5-11c-0.2-28.7,0.3-57.3,0.3-85.9
			C798.1,1548.8,797.6,1526.1,797.9,1503.4z"/>
		<path class="st1" d="M769.5,1507.9c3.5-0.8,6.9-1.6,10.5-2.2c2,7.1,0.9,14.5,1.2,21.8c-0.3,12,0.7,24,0,36.1
			c-0.1,16.7,0,33.3-0.2,50c-0.2,9.2,0.3,18.6-1.5,27.7l-0.5,1.1l-0.3-1.3c-0.8-5.3-3.5-10.2-4.4-15.5c-2.9-14.6-1.6-29.7-3.2-44.4
			c-0.3-7.2-0.1-14.4-0.4-21.6c-1-13.3-0.6-26.6-1-40C769.5,1515.6,769.1,1511.8,769.5,1507.9z"/>
		<path class="st1" d="M1148.9,1511.3c20.8,7.4,41.6,15,62.4,22.4c4.9,1.9,11,2.8,13.8,7.9c-2,1.8-3.8,3.8-6.1,5.1
			c-7.2,1.2-13.8-2.5-20.4-4.4c-14.2-4.3-28.3-9.1-42.1-14.4c-0.3,0.3-1,0.8-1.4,1l-0.3,0.3
			C1153.1,1523.2,1150.7,1517.3,1148.9,1511.3z"/>
		<path class="st1" d="M731.2,1520.2c4.9-1.9,9.9-3.8,14.9-5.5c5,0.2,9,3.6,12,7.2c2.1,3.1,2.1,7,2.6,10.6c0.3,4.7,0.9,9.4,1.7,14
			c1.9,14.6,2.4,29.4,4.3,44c1,9.9,2.5,19.9,0.7,29.7c-4.6-6.5-8-13.8-12-20.7c-12.2-21.8-24.3-43.6-37-65c1.1-2.4,3.2-4.4,3.9-7
			C723.3,1523.2,727.8,1521.8,731.2,1520.2z"/>
		<path class="st1" d="M699.1,1523.4c0.7-3.2,2.8-6.3,5.6-8c3.2-1.9,5.3,1.9,7,4c1,1.7,3.6,3.8,1.8,5.9c-2.5,2.7-5.6,4.8-8.9,6.3
			C702.6,1529.1,699.7,1526.8,699.1,1523.4z"/>
		<path class="st1" d="M706.9,1552.7c0.8-4.3,0.4-8.8,1.4-13.1c9.4,13.7,16.9,28.6,25.1,43c13.9,25.1,28.1,49.9,41.8,75l-1.3,0.4
			c0.5,1.8,1,3.6,1.6,5.4c-5.6-0.2-10.8-2.2-16.1-3.8c-17.2-5-34.6-8.7-51.9-13.1c-5.1-1.3-10-2.9-14.9-4.8
			c1.6-11.2,3.4-22.4,5.6-33.6C700.5,1589.7,704,1571.3,706.9,1552.7z"/>
		<path class="st1" d="M986.4,1546.8c2.3-4.2,7.5-6.8,12.2-5.7c7.1,1.3,14,3.3,20.9,5.3c11.8,2.6,23.5,5.8,35.2,8.9
			c8.4,2.5,16.9,4.6,25,7.9c9.4,2.6,18.7,5.6,28.3,7.9c6,1.9,13.2,1.8,17.4,7.1c-23.8-4.9-47.3-10.7-70.9-16.2
			C1031.7,1557.2,1009.2,1551.3,986.4,1546.8z"/>
		<path class="st1" d="M989,1558.4c4.3,0.7,8.5,1.7,12.6,2.9c5.7,1.7,11.7,2.4,17.3,4.4c-6.3-1-12.5-2.6-18.8-3.9
			c0,24.5,0.2,49.1-0.1,73.6c-0.1,5.8,0.5,11.8-1,17.5c-3.4,1.2-6.7,2.4-10,3.7c-2.4-22.3-0.3-44.7-1.4-67.1
			C986.4,1579.2,988,1568.7,989,1558.4z"/>
		<path class="st1" d="M1016.5,1569.6c20.2,4.4,40.6,8.3,60.7,13.5c7.7,1.9,14.6,6.4,22.5,7.1c0.7,8.6-0.5,17.2-1.4,25.7
			c-0.2-0.2-0.6-0.7-0.8-0.9c-0.6,0.3-1.7,0.9-2.2,1.2c-1.8-6-1-12.3-1.2-18.4c-12.7-3.6-25.4-7.1-38.1-10.8
			c-6.6-1.7-13.1-4.2-19.8-5.4c3.4,3.3,8,5,12.1,7.2c7.8,4,15.8,7.5,23.8,11.1c3,1.6,6.5,2.9,8.3,5.9c2.2,4.8,1.5,10.4,3.6,15.3
			l0.2,0.6c-3.8,1-7.5,2.7-11.3,3.7c-4.2-3.2-8.8-6.9-14.4-6.7c-5.1,0.6-9.6,3.9-12.8,7.8c-2.3,2.8-3.1,6.4-4.4,9.8
			c-0.4,1.3-1.8,1.5-2.8,2c-7.5,2.6-14.7,5.8-22.2,8.2c-1.6-17.6-1-35.3-1.2-53C1015.2,1585.5,1014.4,1577.4,1016.5,1569.6z"/>
		<path class="st1" d="M1165.3,1588.3c3-2.1,7.7-2,10.1,1l-0.1,0.3c-0.2,0.5-0.7,1.5-0.9,2.1c0.1,1.5,0.3,3,0.6,4.6
			c-2.4,1.9-5.1,3.4-7.9,4.5l-0.6,0.3c-1.4-1.4-3.3-2.6-4-4.6C1162.3,1593.6,1163.3,1590.5,1165.3,1588.3z"/>
		<path class="st1" d="M1117.9,1588.4c1.7,0.4,3.3,0.8,5,1.3c0.4,5.5,4.2,10.6,1.8,16.2c-1.7,0.8-3.6,1.3-5.4,1.9
			C1115.8,1601.7,1118.3,1594.9,1117.9,1588.4z"/>
		<path class="st1" d="M1117.4,1619.6c3.1-0.8,6.1-1.9,9.2-3c2.1,7.8,1.3,15.9,1.4,23.9c-0.3,14,0.6,28.6-4.4,42
			c-1.5,5.2-4.4,10-4.8,15.5c-0.2,1.2-0.9,2.3-1.3,3.5c-2.9-7.4,0.2-15.4-0.6-23c-1.1-13.3-0.8-26.6-1.3-39.9
			c-0.1-6.2-1.8-13,1.7-18.6L1117.4,1619.6z"/>
		<path class="st1" d="M1056.8,1629c4.5-1.6,9.2,2,9.8,6.5c-0.1,3.3-2.2,6.6-5.5,7.5c-2.8,1.4-5.7-0.5-7.4-2.6
			C1049.8,1637.1,1052.4,1630.3,1056.8,1629z"/>
		<path class="st1" d="M1076,1639.4c1.7-1.6,3.5-3.1,5.7-3.9c1.5,2.2,1.3,4.9,1.6,7.5c0.7,6.1,0.7,12.3,1.5,18.4
			c1.7,12.1,1,24.4,3.6,36.4c1.2,5.6,0.2,11.4,1.2,17.1c0.5,3.1,1.1,6.5-0.4,9.5c-6.5-19.7-10.9-40-16.7-59.9c-1.5-4.6-2-9.6-4.2-14
			C1071.7,1647.4,1074.5,1643.8,1076,1639.4z"/>
		<path class="st1" d="M1014,1658.5c10.8-4,21.5-8.5,32.6-11.6c-2.1,4-5.4,7.2-7.7,11.1c-7,10.7-13.4,21.8-20.6,32.5
			c-0.9-1.3-2-2.6-2.6-4.1c-2.2-9.1,0.8-18.7-1.6-27.8L1014,1658.5z"/>
		<path class="st1" d="M691.9,1664.8c0.8-4.9,0.1-10.2,2.7-14.7c0.9,2.7,1.7,5.5,1.7,8.3c0.2,15-0.4,30-0.4,45.1
			c0.2,10.1-0.9,20.1-1.4,30.1c-0.5-0.3-1.6-1-2.2-1.3c-0.5-1.3-1.2-1.4-1.9-0.1l-1.1,0.8l-0.2-1.2c-0.9-8.4-0.2-16.9-0.4-25.3
			c-0.3-6.5,1.7-12.9,0.6-19.4c-0.4-2.5-0.5-5,0.3-7.4C691.1,1674.9,691,1669.8,691.9,1664.8z"/>
		<path class="st1" d="M1055.3,1653.2c2-2.7,3,2,3.6,3.5c7.2,26.1,14.6,52.2,21.5,78.4c-6.9-1.9-14-3.1-20.9-5.3
			c-15.1-4-30.6-6.5-45.3-12.2c3.8-7.1,8.9-13.5,12.8-20.6C1036.5,1682.4,1045.6,1667.5,1055.3,1653.2z"/>
		<path class="st1" d="M986.8,1668.7c4-1.4,8-2.8,12-4.3c0.6,2,1.3,4,1.3,6.1c0.2,13,0,26-0.1,39c0,3.3-0.8,6.4-1.5,9.6
			c-4.1-0.5-7.9,1-11.5,2.8c0.8-2,1.3-4.2,0.9-6.4c-2-15.5,0-31.1-1.1-46.6L986.8,1668.7z"/>
		<path class="st1" d="M775,1684.4c0-3.9,2.2-8.9,6.5-9.2c3.2,1.4,5,4.6,6.4,7.7c2.7,6.2,0.2,12.9,0.2,19.4
			c-0.5,18.5-0.9,36.9-1,55.4c-3.9-0.7-7.8-1.8-11.6-2.9c-2.1-9.3-1.1-18.8-1.3-28.2C774.1,1712.5,774.7,1698.4,775,1684.4z"/>
		<path class="st1" d="M927.3,1682.6c1.2-2.6,3-5,5.1-6.8c1.6,2,4.1,2.4,6.5,2.8c0.3,1.2,1.1,2.3,1,3.6c-0.8,1.5-1.8,2.9-2.7,4.3
			c0.1,0.7,0.2,2.1,0.3,2.8v0.3C932.7,1691.2,928.6,1686.8,927.3,1682.6z"/>
		<path class="st1" d="M1126.5,1714.4c0.5-1.8,2.2-2.9,3.6-3.9c-0.2,7.3-0.6,15.4-5.3,21.5c-1.6,2.1-3.8,3.6-5.8,5.3
			c-0.8-1.1-1.6-2.4-0.8-3.8C1120.7,1727,1123.8,1720.8,1126.5,1714.4z"/>
		<path class="st1" d="M994.8,1728.9c2.7-0.7,5.7,0.9,6.8,3.4c1,2.2,3.1,5.1,1.2,7.4c-2.3,2.7-6.4,5-9.9,3.5
			c-2.7-2.2-5.2-5.9-4.1-9.6C989.8,1731.1,992.5,1729.9,994.8,1728.9z"/>
		<path class="st1" d="M678,1740.1c11.4,3.6,23,6.1,34.5,9.4c31.5,8.9,63.4,16.5,95,24.9c9.3,2.8,19.3,4,28,8.8
			c-3.9,5.5-9.5,9.5-14.8,13.6c-5,0-9.6-2-14.3-3.1c-19.9-5-39.8-9.8-59.6-15.5c-19.1-5.5-38.6-9.8-57.8-15.2
			c-3.9-1-7.6-2.5-11.3-4.1C677.6,1752.7,677.6,1746.4,678,1740.1z"/>
		<path class="st1" d="M1009.3,1746.8c1.6-0.3,3.2-0.7,4.7,0.2c3.5,1.6,7.4,2.2,10.9,3.9c-1.1,0.2-2.1,0.3-3.2,0.6
			c0.2,11.4,0.1,22.7,0.1,34.1c0,6.3-1,12.5-0.7,18.8v0.3c-3.3,1.8-6.6,3.8-10,5.5c-1.8-5.7-1.3-11.8-1.8-17.7
			c-0.6-13-0.1-26-0.3-39c-0.2-2.2,0.8-4.2,1.7-6.2c-0.2-0.1-0.7-0.2-0.9-0.3L1009.3,1746.8z"/>
		<path class="st1" d="M849,1771.8c3.3-0.7,5.9,2.3,7.4,4.8c1,1.9,2.5,4.5,0.8,6.4c-1.9,2.7-5.4,5-8.8,3.6c-2.7-1-6.7-2.3-6.4-5.9
			C843,1777,845.6,1773.6,849,1771.8z"/>
		<path class="st1" d="M679.8,1783.8c31.2,5.6,61.3,15.8,92.2,23.2c8.4,2.6,17.7,3.1,25.3,8l0.3,0.2c-4.7,3.7-9.2,7.5-13.8,11.3
			h-0.4c-9.4,0.9-18.8-0.7-28.2-0.4c-0.3,7.6-0.4,15.3,0.4,22.8v0.4c-2.1,1.7-4.3,3.4-6.3,5.1c-3.4-11.4-2.7-23.5-2.1-35.3
			c-8.6-1.3-17.4-1.5-26.1-1.6c-0.1,15.5,0.1,31-0.2,46.4c-2.2,0-4.4,0-6.6,0.1c-1.7-7-0.9-14.3-1.1-21.5c0.1-10.9-0.7-21.8,0-32.7
			c-8.3-1.2-16.8-0.8-25.2-1.2c-1.3,15.1-0.3,30.2-0.9,45.3c-3.1-0.1-6.3-0.2-9.4-0.2c0.1-0.6,0.3-1.9,0.4-2.5c1.7-4.1,1-8.5,1-12.8
			c-0.1-6.3,0-12.6,0-18.9C678.6,1807.6,680.5,1795.7,679.8,1783.8z"/>
		<path class="st1" d="M867.1,1782.7l0.2,0.7c0.2,0.7,0.5,1.5,0.8,2.3c6.2,0.4,12.1,2.3,18.1,4c8.5,2.7,17.1,4.6,25.6,7.3
			c-1.3,8.3-2.2,16.7-3.5,25.1c-4.2-4-10.3-4.5-15.6-5.7c-6.3-0.9-12.4-2.8-18.6-4l-0.3-0.1c-3.9-7-7-14.6-12-21
			C864.2,1788.9,866.5,1786.3,867.1,1782.7z"/>
		<path class="st1" d="M833.4,1799.9c2.5-2,4.9-4.5,8.2-5.2c3.2,0.6,6.2,1.8,9.4,2.4l0,0c-0.4,2.7,1.8,4.5,2.9,6.8
			c0.2,1.4,0.3,2.9,0.3,4.4c-2.1-0.3-4.4-0.1-6.2-1.2c-2.9-1.7-5.1-4.2-7.9-6C838,1799.9,835.6,1800.1,833.4,1799.9z"/>
		<path class="st1" d="M922.6,1799l0.3,0.1c5.6,2.4,12.2,1.3,17.5,4.6c1.4,0.7,2.6,2.5,1.5,4c-2.3,3.7-5,7.2-6.8,11.2
			c-1.5,3.2-3.4,7.2-7.6,7.3c-3.2-1-5.6-3.5-8.2-5.6C920.6,1813.4,921.6,1806.2,922.6,1799z"/>
		<path class="st1" d="M1017.7,1818.7c7.4-4.4,14.6-9.1,22-13.3c-7.3,5.9-15.6,10.6-23.5,15.7c-16.9,10.5-34.3,20.1-51.8,29.5
			C981.6,1839,1000.1,1829.6,1017.7,1818.7z"/>
		<path class="st1" d="M956.4,1808L956.4,1808c4.7,1.7,9.6,2.3,14.3,3.6c5,1.3,9.9,2.8,15,3.7c4,0.8,8.4,0,11.9,2.7l0.2,0.1
			c-10.4,6.4-21.1,12.2-31.5,18.7l-0.2-0.1c-6.8-4.9-15.4-4.7-22.9-7.8C947.7,1822,952,1814.9,956.4,1808z"/>
		<path class="st1" d="M804.3,1826.1c2.9-2.5,5.6-5.5,9.3-6.9c4.4-1.2,8.7,1,12.9,2.1c11.8,3.4,23.6,6.4,35.5,9.5
			c4.1,1.1,9,1.9,11.5,5.8c3.3,5.2,6.1,10.7,8.3,16.5c-7.8,1.2-15.7,0.5-23.6,0.7c-0.4,9.6,0.6,19.4-0.8,28.9c-3,0.6-6,1.1-9,1.4
			c1-0.3,2-0.6,3.1-0.9c-1.1-12.7-1.9-25.5-0.6-38.2c-8.6-0.2-17.2-1-25.8-0.6c-2,14.8-0.1,29.7-1.9,44.5v0.2
			c-2,0.4-4.1,0.8-6.1,1.2c-0.2-7-1.9-13.9-1.9-20.8c-0.1-11.2-0.1-22.4,0.2-33.6c-6.1-0.1-12.3,0.5-18.1-1.8
			C798.9,1831,801.5,1828.4,804.3,1826.1z"/>
		<path class="st1" d="M785.8,1840.6l0.7-0.7c0.5,0.1,1.6,0.2,2.2,0.3c1,12.8,0.1,25.6,0.3,38.4c0.4,2.8-2,5.9-4.9,4.4
			c-2.4-3.3-1.9-7.6-2-11.5c0.1-7-0.3-14.1,0.4-21.1C782.9,1847,783.2,1843.2,785.8,1840.6z"/>
		<path class="st1" d="M889.5,1840.2c5.3-0.6,10.7,0.2,15.6,2.5c-0.8,7.1-2.6,14.1-2.5,21.3c-3.2-4-5.1-8.7-7.5-13.2
			C893.2,1847.3,891.2,1843.8,889.5,1840.2z"/>
		<path class="st1" d="M751.2,1872.6c0.3-1.7-0.8-4.9,1.5-5.4c2.3,0.8,1.8,3.3,1.8,5.2C753.7,1872.4,752,1872.5,751.2,1872.6z"/>
		<path class="st1" d="M885.4,1895.1c3.6-1.2,7.2-2.4,10.8-3.7c-0.1,0.5-0.4,1.6-0.5,2.1c0.9,0.1,1.8,0.2,2.7,0.4
			c-3.9,0.8-7.9,2.2-11.9,1.8L885.4,1895.1z"/>
		<path class="st1" d="M825.7,1898.8c8.3-1.8,16.8-3.1,25.1-4.8c-9.8,3.3-19.9,6-29.8,9c-9.4,2.6-19.1,3.6-28.5,6
			c-13.1,1.6-25.9,4.4-39,5.7c-10.3,1.6-20.7,2.1-30.9,3.5c10.3-2.3,20.7-3.9,31-5.7c12.3-2.8,24.8-4.2,37.1-6.8
			C802.5,1904.3,813.9,1900.5,825.7,1898.8z"/>
		<path class="st1" d="M862.5,1903c6.9-2.7,14.1-4.8,21.1-7.3c1.3,0.8,2.6,1.7,3.9,2.5c-5.1,0.9-10.2,1.7-15.1,3.7
			C869.3,1903.4,865.8,1903,862.5,1903z"/>
		<path class="st1" d="M778,1922.7c3.1-1,6.3-1.9,9.6-2c2,0.6,4,1.4,6.1,2.2C788.5,1923.5,783.2,1923.9,778,1922.7z"/>
		<path class="st1" d="M757,1925.3c2-0.3,4.1-0.8,6.2-0.6c0.8,0.5,1.5,1.1,2.3,1.7c-9,1.9-18.4,0.6-27.3,3.1
			c-3.9,0.7-8.3,0.6-11.2,3.8c0.6,0.3,1.9,0.7,2.6,1c-19,2-38.1,3-57.2,2.6c0-2.2,0-4.3,0.1-6.5C700.7,1929.3,729,1929.3,757,1925.3
			z"/>
		<path class="st1" d="M673,1952.5c0-1.5,0.1-3,0.5-4.4c7.3,1.2,14.7,0.7,22,1.3c-1,1-2,2.1-3,3.1H673z"/>
	</g>
	<g id="_x23_c0c4d8ff">
		<path class="st1" d="M714.3,75.7c6.1,3.4,10.8,10.6,9.6,17.7c-0.6-1.4-0.9-2.8-1-4.3C718.9,85.3,717.6,79.9,714.3,75.7z"/>
		<path class="st1" d="M79.3,1397.6c0.3-0.1,0.9-0.2,1.2-0.2c0.7,13,0.3,26.1,0.3,39.2c-1.3,10.9-0.5,22-0.7,33
			c0,22.8,0.1,45.5,0.2,68.2c-2-25.4-1.2-50.9-1.4-76.3c0.2-21.2-1-42.4,0.3-63.6L79.3,1397.6L79.3,1397.6z"/>
		<path class="st1" d="M1242.7,1548.8c1.8-1.3,4.6-1.4,5.8,0.8c-2.2,2.3-4.8,4.4-7.9,5.2c-2.1,0.6-3.4-1.4-4.9-2.5
			C1238.2,1551.7,1240.5,1550.3,1242.7,1548.8z"/>
		<path class="st1" d="M1095.2,1627.6c1.3-0.3,2.6-0.6,3.9-0.9c-1.3,2-0.7,4.5-0.5,6.8c0.5,5,0.2,10,0.3,14.9
			c0,27.7,0.4,55.4,0.2,83.1c0.1,2.9-0.8,5.7-1.8,8.4c-0.6-4.8-0.3-9.6-0.4-14.4c-1.4-12.9-0.7-26-0.9-39c-0.2-12,0.4-24-0.8-36
			c-0.2-7.5-0.2-15,0-22.5L1095.2,1627.6L1095.2,1627.6z"/>
		<path class="st1" d="M885.4,1862.1c1.2,3.8,2.7,7.6,3.6,11.5c0.5,1.4-0.5,2.6-1.3,3.7l-1.5,0.4
			C886.1,1872.5,884.3,1867.3,885.4,1862.1z"/>
	</g>
</g>
<g id="Camada_1_1_">
	<g id="_x23_fefefeff">
		<path class="st2" d="M667.5,0.5h9.9c-0.6,0.3-1.9,0.9-2.5,1.2c4.8,5.5,7.6,12.2,10.7,18.7c5.3,11.7,10.7,23.4,16,35.1
			c4.1,9.3,9.6,17.9,13.5,27.3c8.7,17,15.1,35.1,24.1,52c2.4,4.6,4.5,10.2,9.6,12.3c4.6,2.4,11,4.5,11.8,10.4l0.1,1
			c0.4,2.7,0.3,6.1,2.9,7.7c15.9,8.6,32.5,15.9,47.9,25.4c3.8-2.3,7.1-6.2,12-6.1c5,0.4,9.3,3.8,12.6,7.3c3.9,4.2,6.1,11,3,16.2
			c-2.2,4.3-6.3,7.2-9.4,10.7c-2.5,2.7-1.2,6.6-1.3,9.9c0.3,26.5-0.2,53.1,0,79.6c0.2,2.2-0.4,4.9,1.6,6.4c2.5,2.1,5.4,3.9,7.4,6.6
			c3.1,4,4.3,9.6,2.2,14.3c-1,2-2,3.9-3.1,5.8c-2.6,2.9-6.1,4.7-9.7,6c-2.2,0.6-2.9,2.7-3.6,4.6c-3.3,9.9-5.6,20.1-9,30
			c-0.3,1.4-1.3,3.3,0.1,4.5c2.7,3.1,6.1,5.9,7.3,9.9c0.4,2.3-0.3,4.5-0.8,6.7c-0.8,1.3-0.7,2.4,0.4,3.4c3.7,3.6,8,6.4,12.1,9.6
			c12.3,10.5,24.7,21.1,37.8,30.8c13.7,10.6,27,21.7,40.4,32.7c3.1,2.4,5.9,5.3,9.3,7.3c1.7,0.8,2.9-1,4.1-1.9
			c5.9,0.2,11.1,4,15.2,8c4.1,3.9,3.8,10.2,2.5,15.3c-0.5,2.7-2.6,4.7-4.4,6.6c-3.6,3.8-9.8,3.7-12.8,8.3
			c-12.1,17.2-22.6,35.4-34,53.1c-3.4,5.2-6.9,10.3-10.3,15.5c11.1,3.2,21.9,7.5,32.6,11.8c2.9-0.4,5-3.1,7.5-4.4
			c2.8-1.5,6-3.1,9.2-2.5c8,1.9,14.5,8.7,16.2,16.7c-1,8.3-8.7,13.5-14,19.2c19.6,8.4,39.3,16.7,58,27c16.8,9.4,33.8,18.3,49.8,29
			c33.3,21.6,64.6,46.3,93.9,73.1c14.3,12.7,27.8,26.4,40.5,40.6c10,11.9,20.8,23.1,30.1,35.6c14.2,17.8,27.9,35.9,40.1,55.1
			c8.3,13.5,16.2,27.1,24.1,40.8c20.9,37.2,37.4,76.7,51,117c11.8,35.2,20.1,71.6,25.8,108.3c3.9,20.6,5.3,41.4,6.7,62.3
			c0.6,16,0.2,32,0.3,48c0.3,23-0.7,46-2.7,68.9c-5.2,45.4-14.6,90.4-28.6,134c-6.3,19.5-13.4,38.8-21.2,57.8
			c-16.4,37.5-35.4,73.9-57.9,108.2c-11.5,17.6-24,34.4-36.9,51c-9.1,11.2-18.2,22.5-28.2,32.9c-11,11.9-22,23.9-34,34.9
			c-33.3,33-71,61.3-110.4,86.6c-34.8,21.7-71.4,40.6-109.8,55.2c-19.1,7.7-38.6,14.7-58.3,20.6c-42.5,12.5-86.3,20.5-130.3,25.1
			c-20.3,2-40.6,2.2-60.9,2.3c-0.4,1.4-0.5,2.9-0.5,4.4h-1c-0.5-1.8-0.9-3.5-1.2-5.3c-21.1,0.6-42.2-1.5-63.3-3
			c-36.1-3.1-71.9-9.7-107.1-18.6c-21.4-6.3-43-12.3-63.9-20.3c-18-6.4-35.6-14.1-53-22c-21.9-10-43-21.9-63.7-34.3
			c-16.6-10.6-33.3-21-49-32.9c-14.7-10.5-28.9-21.6-42.5-33.6c-19-17.5-39.1-34-55.7-54c-13.7-14.6-26.8-29.6-39-45.5
			c-10-13.7-20.8-26.9-29.4-41.5c-11.1-15.9-21-32.6-30.3-49.6c-9-15.8-16.9-32.3-24.1-49c-6.9-15.3-13.5-30.7-18.3-46.8
			c-2.6-7.2-5.6-14.2-7.4-21.6c-1.9-8-5.3-15.6-7.4-23.5c-4.9-17.8-10.1-35.5-12.5-53.8c-1.2-9.4-1.8-18.8-2.7-28.2
			c0.2,6.4-0.2,12.8-1.4,19v-247.2c1.9,6.8,1.5,13.8,1.4,20.8c0.4-13.9,2.9-27.6,5.2-41.3c2.8-14,5.7-28,9.8-41.6
			c5.2-17.5,10.6-34.9,17-52c5.1-14.7,12.2-28.6,17.8-43.1c10.8-25.7,24.4-50.2,38.8-74.1c8.4-14.3,17.6-28.2,27.5-41.5
			c10.8-14.2,21.2-28.8,32.6-42.5c13.8-16.1,28-31.9,43.1-46.9c25.4-24.8,52.6-47.8,81.4-68.6c32.2-22.9,66-43.6,101.8-60.3
			c6.8-3.3,13.8-6.1,20.6-9.4c5.1-2.5,10.1-5,15.6-6.7c0.5-5.4,0.1-11,1.7-16.2c3.4-12.2,12.2-22.1,21.6-30.2
			c13.7-11.3,29.9-19.2,46.7-24.6c12-2.1,23.5-6.5,35.3-9.4c18.1-5,36.5-8.8,55-12c18.6-3.2,37.4-5.5,56.2-6.2
			c12.6-0.9,25.3-1.6,37.9-1.4c0-2.6-0.1-5.2-0.1-7.7c-11.6,0.9-23.2,0.9-34.8,1.7c-21.4,2.1-42.7,5.1-63.8,9.1
			c-19.8,4-39.6,9-58.8,15.2c-8.6,3.2-17.5,5.8-25.7,10c-2.7,0.8-5.6,2.2-8.4,1.5c-4.6-1.1-9-3-13.3-4.8
			c-14.9-6.6-29.4-15.4-39.7-28.3c-6.3-8.2-11.4-18.4-10-29c1.4-8.7,5.3-17.1,11-23.8c10-12.4,24-20.9,38.2-27.6
			c13.9-6.7,28.9-10.4,43.1-15.9c0.8-2.8,0.5-5.7,0.6-8.5c-0.1-5.6,0.3-11.2,0.2-16.9c-2.7,0.4-5.5,1.1-8.3,0.8
			c-3.6-0.9-6.2-3.9-8.2-6.9s-3.4-7.1-1.1-10.3c4.1-6.5,11.3-10.2,17-15.2c0.9-2.1,0.7-4.4,0.7-6.6c-0.3-10.9-0.5-21.9,0-32.8
			c-3.6,0.4-7.7,1.4-11-0.7c-3.4-2.2-6.1-5.7-7.4-9.5c-1.2-3.4,0.4-6.9,2.5-9.6c4.4-5,10.8-7.8,15.5-12.6c0.7-2.9,0.4-5.9,0.4-8.9
			c-0.4-10.1-0.2-20.3-0.3-30.4c-4.3,0.4-9.4,1.7-12.8-1.9c-3.3-3.5-7.1-8.4-4.9-13.4c2.4-6.2,8.9-9.4,11.7-15.3
			c7.5-14.3,16.7-27.6,27.1-39.9c22.7-26.5,52.9-46.3,86.1-57c10.8-3.6,22.2-5.1,32.9-8.9c1.2-2.4,2.2-4.9,2.8-7.5
			c-6.7-3.4-13.8-6.2-19.5-11.2c-6.1-4.8-10.9-11.7-11.8-19.5c0.4-5,2.8-9.7,5.7-13.6c8.3-10.2,21.1-16.6,34.2-17.5
			c0.4-14.1-0.6-28.2,0-42.3c0.1-2.4,0.8-4.8,2.6-6.5c3.4-3.5,7.6-6.2,11.2-9.6C670,1.7,668.3,0.9,667.5,0.5 M677.8,81.6
			c0,12.3,0.1,24.6,0.1,36.9c0,1.9,0.2,3.8,0.6,5.7c3.3,0.9,6.3,2.7,9.5,3.8c7,3.6,14.1,6.9,20.9,10.8c7.2,4.1,14.6,7.8,22.2,11
			c1.1,0.5,2.3,0.7,3.5,0.7c-1.3-3.2-2.9-6.3-4.3-9.5l-0.4-0.1c-4.7-10.6-9.7-21.1-14.6-31.6c-10.5-21.8-20.2-44-31.3-65.5
			c-2.4-5.2-4.7-10.5-7.4-15.5C678.7,46,677.6,63.8,677.8,81.6 M677.6,135.3c0.3,14.5,0.1,28.9,0.5,43.4c0.2,18.5,0,37.1,0.1,55.6
			c-0.7,15.1-0.2,30.3-0.2,45.4c5-3.3,10-6.4,15.3-9.2l-0.1-0.1c17-9.3,33.8-19,50.8-28.3c4.4-2.1,8.9-4.2,12.8-7.2
			c10.2-6.4,21.1-11.8,31.4-18c1.5-0.4,2.9-1.2,4.4-1.8l-0.7-0.9l0.6,0.6c5.6-3.4,12-5.9,15.9-11.5c-5.6-4.5-12.4-7.3-18.8-10.6
			c-10-4.6-19.5-10.1-29.4-14.8v-0.3c-1.4-0.8-2.9-1.5-4.3-2.3c-4,3.3-8.6,6.1-13.9,6.2c-0.8-0.5-1.6-0.8-2.4-1.1
			c-4.8-2.9-9.5-6.6-12-11.8c-1.2-2.5-0.2-5.3-0.8-7.9C710.3,152.2,694.1,143.4,677.6,135.3 M739.8,158c-1.9,0.8-2.6,2.9-3.7,4.4
			c0.7,1.6,1.3,3.4,2.5,4.7c3,4.7,9.7,2.5,11.9-1.7c0.7-4.1-2.3-8.5-6-10.2C742.6,155.4,741.3,157,739.8,158 M634.4,184.8
			c-28.2,4.3-55.6,12.6-81.8,24c-13.8,6.2-27.3,13.4-39.4,22.6c19-11.4,39.8-19.6,60.8-26.4c15.8-5.1,32.1-8.2,48.3-11.4
			c9.6-1.5,19.4-2.5,29.1-3.4c5.2-0.5,10.4-0.2,15.5-1c0.1-2.5,0.1-4.9,0-7.4C656.2,182.9,645.3,183.2,634.4,184.8 M821,196
			c-3.4,2.1-7.5,7.2-4.2,11c1.4,1.9,3.2,3.9,5.7,4.3c3.9-1,8.8-4.3,8.1-8.9C829.1,199,825.1,194.8,821,196 M807.1,218.5l-0.5-0.1
			c-6.1,3.8-12.6,7.2-18.7,11c-3.4,2-6.7,4-10.2,5.8c-7.5,4-14.6,8.5-22,12.5v0.1c-11.3,6.3-22.6,12.8-33.8,19.2
			c-9.5,4.8-18.7,10.2-27.8,15.5l-0.1,0.8c-2.6,1.4-5.2,2.8-7.6,4.4c19.6,4.3,38.9,10.2,58.2,15.6c4.9,1.8,8.8-2.8,11.9-5.8l0,0
			c1.5-0.7,3.2-1.4,4.9-1.2c6.8,0.8,12.4,5.3,16.5,10.5h0.3c0.4,2.3,0.9,4.5,1.3,6.8c9.6,1.7,18.6,5.5,28,7.8c2,0.8,3.3-1.1,4.7-2.2
			c2-1.5,5.3-2.6,5.1-5.6c0.4-7.5,0.5-15-0.2-22.4c-0.3-22.2,0.1-44.5,0.4-66.7c-0.2-2.6,0-6.8-3.3-7.5
			C811.7,215.8,809.3,217.4,807.1,218.5 M623.5,220.7c-11.1,1.4-22,4.1-33,6c0.2,15.3,0,30.6-0.3,45.9c22.4-6.7,45.9-8.1,69.1-9.4
			c0-15.2-0.5-30.4-0.2-45.6C647.3,218.4,635.3,219,623.5,220.7 M537.8,245.8c-2.4,1.1-5.2,1.1-7.3,2.7c0.3,3.7,1.6,7.3,1.3,11.1
			c-0.1,10.8,0.5,21.7-0.6,32.5c10.7-5,21.6-9.9,33-13.2c0.5-14.9-1.1-29.8,1-44.6C555.7,237.2,546.8,241.8,537.8,245.8
			 M601.5,295.6c-3.4,1-7,0.8-10.5,1.5c-0.5,2.1-0.4,4.3-0.4,6.5c0.1,13.5-0.1,27.1-0.2,40.6c16.2-5.2,33.1-7.1,50-8.3
			c6.2-1.1,12.6-0.5,18.9-1.6c-0.2-15.1-0.2-30.2-0.3-45.3C639.8,290.5,620.4,291.1,601.5,295.6 M677.9,310.5c-0.1,30.4,0,60.7,0,91
			c-0.1,18.8,0.8,37.6-1.2,56.3c1.2-1.9,2.4-3.7,3.7-5.6l-0.1-0.4c2.8-5.2,5.7-10.3,8.5-15.5c2.3-4.1,5.1-8,6.3-12.6
			c1.5-2.2,2.8-4.6,3.9-7c4.3-8.5,9.7-16.3,14.1-24.8c5-9.4,10.4-18.6,15.3-28l0.2,0.1c3.9-7.4,8.1-14.5,12.2-21.8
			c2.9-5,6-9.8,8.7-14.9c0.6-1.9-1-3.4-2-4.9c-2-2.3-2.8-5.2-3.9-7.9c-9.3-2.1-18.3-5.3-27.5-7.6c-12.1-3.3-24.1-6.7-36.1-10.3
			c-0.7-0.7-1.3-1.3-2-2C678.3,300,677.9,305.3,677.9,310.5 M534.7,318.8c-1,0.6-2.5,0.8-2.9,2.1c-0.3,14.2,0.3,28.4-0.7,42.6
			c10.6-5.3,21.5-10.3,33-13.5c0.2-14.7-0.2-29.4-0.2-44.1C553.8,309.2,544.5,314.5,534.7,318.8 M754.4,314.6
			c-0.2,3.8,3.7,5.9,6.3,7.8c3.1-1,5.7-2.8,8-5.1c0.5-3,0.5-6.6-2.5-8.4C762,305,753.6,308.7,754.4,314.6 M768.8,329.7
			c-2.4,1.9-2.2,5.1-2,7.9c0.8,10.6,0.2,21.3,0.3,31.9c0.1,42.7,0.5,85.3,0.3,128c0,6.9-1.3,13.6-1.6,20.5c3.3-8,4.8-16.6,7.2-24.8
			c2.8-11.4,6.4-22.7,9.5-34c0.1-0.4,0.2-1.2,0.3-1.6l0.3,0.2c0.5-1.8,0.9-3.7,1.4-5.5c0.1-0.4,0.2-1.2,0.3-1.7l0.3,0.2
			c1.8-8.1,4.3-16.1,6.4-24.1c0.9-3.4,2.2-6.6,3-10c-1.2-2.9-4.5-4.4-5.5-7.5c-3.5-6.8-1.9-16.1,4.5-20.7c3.2-2.9,8.4-3.2,10.5-7.3
			c2.2-6.3,3.2-13,5.3-19.3c1.1-5.2,3.6-10,4.6-15.2c-1.5-3.9-6.1-5.3-8.3-8.7c0.2-1.5,1.9-3.5,0.5-4.8c-9.1-2.5-18.1-5.8-27.3-8
			c-0.2-0.5-0.6-1-1-1.3C774.6,325.5,771.5,327.5,768.8,329.7 M820.5,325.2c-2.9,1.7-4.4,4.9-4.5,8.2c1.9,2,3.1,5.7,6.3,5.8
			c3.3-0.5,5.9-2.8,8.2-5.1l-0.4-0.7c1.1-0.8,1.1-3.8-0.7-3.8C829.2,326.1,823.8,322.2,820.5,325.2 M750.7,345.8
			c-3.1,5.8-6.8,11.3-9.6,17.2c-4.4,8-8.8,16-13.2,23.9c-4.1,8.7-9.1,16.9-13.7,25.3l-0.9,0.4l0.5,0.5
			c-10.1,19.4-21.3,38.2-31.6,57.4l-0.4,0.1c-0.7,2.2-4,5.1-1.5,7.1c5.1,4.2,10.4,8.2,15.3,12.6c13.5,12.1,27.7,23.6,40.9,36.1
			c5.9,5.8,11.9,11.8,19.3,15.5c1-3,1.3-6.3,1.1-9.4c-1.8-27.5,0.2-55-1-82.5c0-10.3-0.2-20.5,0.2-30.8c1.2-9.9-0.3-19.9-0.1-29.8
			c0.1-14-0.4-28,0.6-41.9c0.1-4.3,0-8.7,1-12.9C754.6,337.9,753,342.1,750.7,345.8 M591.7,368.8c-1.5,0.6-0.9,2.5-1.1,3.7
			c0.1,13.8-0.2,27.6-0.2,41.4c16-4.6,32.6-6.2,49.1-7.5c6.6-0.3,13.2-0.4,19.8-0.3c-0.2-15.3-0.2-30.7-0.4-46
			C636.3,361.1,613.9,364.5,591.7,368.8 M533.1,391.3c-2.2,0.9-1.4,3.4-1.5,5.2c0,10.7,0.2,21.4-0.4,32.1c10-2,19.6-5.4,29.5-7.7
			c1.3-0.5,3.6-0.5,3.2-2.4c0.2-13.9-0.5-27.7,0.1-41.6C553.6,381.3,543,385.5,533.1,391.3 M803,394.1c-4.8,0.6-7.3,5.8-6.3,10.1
			c1.4,2.5,4.1,5,7.2,4.5c3.2-1.1,6.3-3.2,7.5-6.4C812.7,397.8,807.6,392.8,803,394.1 M805.3,420.4c-2.5,3.1-2.1,7.4-3,11.1
			l-0.5,0.1c-10.2,32.9-18,66.4-27.8,99.4c-0.7,2.9-2.6,5.6-2.3,8.6c-0.1,0.4-0.3,1.2-0.3,1.6c0.5,2.7,3.6,3.9,6,3.5
			c8-1.5,15.9-3.9,23.5-6.8c14.7-5,29.5-9.5,44.5-13.7l0.1-0.3c3.1-0.4,6.2-1.1,9.2-2.3c5.4-2.3,11-3.9,16.5-5.7
			c10.5-2.7,20.9-6,31.3-9.3c3.5-1.1,7.6-3.1,8.2-7.2c0.8-2.6-1.2-4.7-2.9-6.3h-0.4c-20-16.1-39.5-32.9-59.5-49
			c-5.5-4.4-10.6-9.3-16.3-13.6c-6.5-5.3-13.9-9.8-19-16.6C809.5,415.5,807.4,418,805.3,420.4 M644.3,441.6
			c-4.6,0.8-9.3,0.2-13.9,0.5c-13.3,0.7-26.5,2-39.7,2.5c-0.5,8.3-0.2,16.6,0,24.9c5.5,1.3,11.1,2.8,16.8,2
			c17.2-1.6,34.5-3.4,51.8-3.7c-0.1-9.1,0-18.3-0.2-27.4c-2.9,0.8-5.8,2-8.8,1.4c-1.5-0.6-1.4-2.6-2-3.8
			C646.2,438,645,439.8,644.3,441.6 M559.8,448.8l0.1,0.5c-3.6,0.7-7.1,1.9-10.6,2.9c-2.9,0.9-6.1,1.4-8.1,3.8
			c3.7,1.1,7.6,1.5,11.3,2.7c4,1.2,7.9,2.9,12.1,3.3c0-2.4,0-4.8,0-7.2c0-2.1,0-4.2-0.1-6.3C562.9,448.6,561.3,448.7,559.8,448.8
			 M459.9,479.9c-5.5,3.3-11.4,6.5-15.2,11.9c14.6-1.4,29.2-0.9,43.8-0.9c5.6,0.1,11.2-0.3,16.8,0.3c-0.1-5.4,0.8-10.7,1.1-16
			c-4.3,2.9-8.8,7.6-14.5,5.7c-5.4-1.4-7.4-6.8-9.8-11.1c-0.4-0.1-1.1-0.2-1.5-0.2C473.5,472.6,466.6,476.2,459.9,479.9 M534.2,489
			c4.2-1.9,8.8-3,12.7-5.4c-4.3-1.5-8.9-2.1-13.5-2.5C528.6,480.5,529.3,491.3,534.2,489 M677.6,489.4c0.4,3.2,0.2,6.5,0.4,9.7
			c-0.8,5.1-0.4,10.2-0.4,15.4c-0.1,40.6,0,81.3,0.2,121.9c0,3.2-0.2,6.4,0.4,9.6c-0.1,7.1,0.2,14.3-0.2,21.4
			c0.1,4.5-0.6,9.2,0.6,13.6v0.5c19.3,4,38.9,7.2,58.3,10.5c4.8,0.5,9.2,2.5,14,2.9c8,1.3,16,2.2,23.9,3.9c3.4,0.6,6.7,1.9,10.3,1.9
			c3.3-4.3,7.8-8.2,13.3-9.2c6.5-0.3,12.5,3.9,16.2,9.1c1.7,2.4,1.7,6.1,4.3,7.8c3.3,0.3,6.5,0.1,9.8,0.7c9.4,1.7,18.9,2.7,28.3,3.9
			c-2.8-6.1-6.9-11.5-10.5-17.2l-0.4-0.2c-2.2-3.7-4.7-7.2-6.9-10.9c-8.4-13.8-17.5-27.1-26.2-40.6c-15.9-24-31-48.6-47.2-72.4
			c-3.5,0.8-7.6,1.7-10.8-0.5c-5.9-3.5-12-10-9.5-17.5c0.3-1.8,1.3-4.1-0.7-5.4c-14.6-13.5-29.8-26.5-45.1-39.1l-0.3-0.5l-0.5-0.2
			C692.2,501.6,684.5,496,677.6,489.4 M919,504.2c0,1.8,1.5,3.1,2.5,4.5l0.1-0.4c1.3,1.9,3.5,3.1,5.8,2.9c2.5-1.2,4.8-3.2,6-5.7
			c0.6-2.1-0.8-3.7-2.2-5v-0.1c-1-0.9-1.9-1.9-3-2.7C924.2,496.5,919.2,499.8,919,504.2 M906.4,517.5c-3.5,1.2-7.1,2.1-10.6,3.1
			l-0.2,0.2c-16.5,3.9-32.1,10.7-48.6,14.7c-12.3,3.6-24.6,7.1-37,10.2c-10,3.3-19.9,6.9-30.2,9c2.2,2.3,5.3,3,8,4.3
			c10.5,4,21.3,7.4,32,11.1c17.5,5.9,34.5,13.3,52.3,18.4c2.5-5.7,6.3-10.6,9.2-16c5.5-8.5,11.1-17,16.2-25.8
			c4.3-5.9,7.7-12.5,11.8-18.6c0.9-1.6,2.3-3.1,2.6-4.9l0.2,0.5c1.2-2.5,3.1-5.1,2.2-8C911.8,516.4,909.1,517.2,906.4,517.5
			 M445.5,516.6c1.3,1.8,2.6,3.5,4.4,4.7c7,5.2,14.5,9.7,22.3,13.5c6.3,3,13.3,6.4,20.5,4.6c3.3-0.4,3.4-4.3,3.2-6.9
			c-0.5-4.9,0.3-9.8,1.1-14.6c-13.5,0.1-26.9-0.1-40.4-0.2C452.8,517.6,449.1,517,445.5,516.6 M754.4,553.9
			c-0.5,5,5.4,10.7,10.2,7.7c2.3-1.9,5.5-4.7,4-8.1c-1.6-3-4.2-6.5-8.1-6.1C757.5,548.3,756.1,551.5,754.4,553.9 M775.1,565.4
			c5.2,9.2,11.6,17.5,17,26.5c22.4,34.9,45.5,69.4,67.6,104.4l0.3,0.1c2.2,3.4,5,6.5,8.3,8.9c2.7-1.5,5-3.6,6.7-6.1
			c2.5-3.3,4.5-7,6.5-10.6c11.1-20.1,21.9-40.5,34.1-60c-1.5-3.3-2.8-6.8-4-10.2c-1.1-3.9-5.6-4.9-8.8-6.3
			c-27.6-10.3-55.4-19.9-83-30C805,576.4,789.7,571.8,775.1,565.4 M921.9,617.1c1.8,2.8,4.7,7.9,8.6,5.1c2.4-1.7,5.8-3.6,6.1-6.8
			c-2-3.6-5-6.5-8.2-9C924.8,608.5,920.3,612.5,921.9,617.1 M439.1,628.5c-0.6,32.7-0.5,65.3,0,98c0,9.7,1,19.4,3.8,28.8
			c1,2.9,2.9,5.6,5.4,7.5c2.1,1.6,4.8,1.7,7.1,2.7c1.9,1.1,3.3,2.8,4.8,4.4c2.9,3.2,2.7,7.8,3.8,11.8c-0.1,0.4-0.5,1.1-0.6,1.5
			c2.5,4.6,6.6,8.2,8,13.3c2.3,7.1,2,14.7,2.1,22.1c0,27.3,0.1,54.7,0.2,82c-0.1,117.4-0.4,234.8-0.2,352.2c2.3-0.1,4.7-0.1,7-0.1
			c0-47.4,0.1-94.7-0.1-142.1c0.2-2.3-0.4-5.5,2.1-6.8c17.7-11.6,38.2-17.8,58.3-23.7c21.3-6.1,43.1-10.5,65.1-13.8
			c15.5-2,31-3.5,46.5-5c4.5-0.5,9.1,0,13.4-1.3c2-3.9,1.2-8.8,1.3-13c-5.5-0.2-11.1-0.1-16.7-0.1c-47.8-0.2-95.6,6-141.9,17.8
			c-10.7,2.5-21,6.9-32.1,8c0.5-2.2-0.1-4.9,1.1-6.8c4.8-3.7,10.6-5.6,16.2-7.8c17.6-6.1,35.9-10,54.1-13.9
			c25.5-5.2,51.5-7.7,77.4-9.7c13.8-1.1,27.8-0.1,41.5-1.4c-0.2-9.2-0.8-18.4-0.7-27.7c0-30,0-60,0-90c0.7-12.3,0.3-24.6,0.4-36.9
			c-0.3-17.7,0.1-35.4-0.4-53c-0.1-19.2,0.2-38.4-0.2-57.6c-13.2,0.2-26.5-0.4-39.6,1c-12.4,0.5-24.8,1.8-37.2,2.6
			c-28.9,4.6-58.1,8.3-86.3,16.4c-1.1,0.1-2.9,0.9-3.4-0.6c-1.4-3.3,0.3-7.5,3.4-9.1c6.1-3.2,12.9-4.7,19.4-6.5
			c37.4-8.8,75.7-13.4,114-15.8c10.2-1.3,20.5-0.9,30.7-0.9c0-4-0.3-8-0.3-12c-3.3-1.3-6.9-0.6-10.4-0.4
			c-36.5,0.4-73.2,2.8-109.1,9.6c-21.1,4.1-42.4,8.2-62.6,15.8c-3.5,1-7.3,2.9-10.8,0.9c0.2-1.9-0.7-4.4,1.1-5.8
			c3-2.9,7-4.5,10.8-6.1c14.7-6.1,30.4-9.4,45.9-13c14.2-3.2,28.7-5.5,43-8c6.3-0.1,12.5-1.2,18.7-1.9c20.3-2.3,40.7-3.1,61.1-4
			c4.1-0.3,8.4,0.2,12.4-1c-0.8-14-0.1-28-0.5-42c-41.5-0.3-83.2,2.7-124,10.4c-17.9,3.4-35.7,7.4-52.9,13.4
			c-8.6,2.9-17,6.4-25.4,9.8c-3.7,1.4-7.5,3-11.5,2.8c0.1-2.6-1.4-6.3,1.6-7.8c10.1-6,21.3-9.8,32.2-13.9
			c37.4-14,77.1-20.8,116.8-24.6c16.4-1.1,32.7-2.9,49.1-3.3c4.9-0.1,9.9,0.1,14.8-0.4c-0.1-2.9-0.2-5.8-0.2-8.7
			c-11.5-0.8-23,0.3-34.5,0.8c-14.4,1-28.8,1.6-43.1,3.3c-13.7,1.9-27.4,3.6-41,6c-21.2,3.3-42.1,8.5-62.9,13.8
			c-8.5,2.7-17,5.6-25.4,8.7c-3.8,1.4-7.4,3.4-11.3,4.4c-0.6-26-0.6-52.1-0.4-78.1c0-4.8,0.2-9.6,1.3-14.3
			C443.9,613.9,438.9,620.7,439.1,628.5 M922.8,635.7c-11.7,21.6-23.3,43.3-35.5,64.7c-1.6,3.1-4.4,5.7-5.3,9.1
			c0.5,1.8,1.9,3.1,2.9,4.7c2.5,2.8,1.3,6.8,1.5,10.2c6.6,5,14,8.8,21,13.1c4.2,1.9,8.1,5.2,12.9,5.1c2.2-4.7,1.7-10.1,1.9-15.2
			C922.6,696.8,922.2,666.2,922.8,635.7 M932.3,646c0.2,2.4,0.6,4.9,1.4,7.2c3.8,1.8,7.7,3.6,11.6,5.2
			c27.9,12.2,54.8,26.6,80.6,42.7c47.3,30,91.1,65.6,129.6,106.4c51.8,55.1,94.2,119.1,124.7,188.4c8.8,19.2,15.6,39.1,22.8,58.9
			c7.8,22.8,13.6,46.1,18.7,69.6c10.7,48.8,15.8,98.9,15.1,148.9c-0.5,10.3,0,20.6-1.2,30.9c-0.2,18.2-3.1,36.2-5.2,54.2
			c-3.3,21.1-7.1,42-12.2,62.8c-10.1,43.6-25.7,85.8-44.6,126.3c-16.2,35.6-36.5,69.2-58.8,101.3c-20.9,29.6-44,57.6-69.6,83.3
			c-27.1,28.2-57.4,53-89.1,75.9c-33.5,23.8-69.3,44.2-106.4,61.6c-17.7,7.6-35.3,15.5-53.6,21.6c-3.6,1.2-7.2,2.4-10.8,3.7l1.1,0.7
			c-0.7,0-2.2,0-2.9,0c-7,2.6-14.2,4.6-21.1,7.3c-5.3,1.4-10.5,3.3-15.9,4.6c-19.3,5.8-39.1,9.5-58.9,13.1c-3.3,0.1-6.5,0.9-9.6,2
			c-5,0.2-9.9,1.5-14.8,1.9c-2.1-0.2-4.1,0.4-6.2,0.6c-28,4-56.3,4.1-84.5,5.1c0,2.1-0.1,4.3-0.1,6.5c19.1,0.3,38.2-0.6,57.2-2.6
			c23.8-2,47.4-5.9,71-10.1c81.6-16,160.3-47.3,230.4-92.1c15.8-10.4,31.7-20.8,46.5-32.5c12.9-9.6,25.1-20.1,37.2-30.6
			c14.7-13.7,29.7-27.1,43.2-41.9c11.3-11.4,21.5-23.8,31.9-35.9c31.8-38.3,59-80.4,81.1-125.1c19.1-38.4,34.8-78.4,46.3-119.7
			c5.7-21.8,10.6-43.7,14.5-65.9c4-21.7,6.3-43.7,8.5-65.7c2.7-48.7,2.2-97.9-5.7-146.1c-3.5-23.2-7.9-46.3-13.7-69.1
			c-5.4-23.1-12.6-45.8-21-68c-6.9-20.4-15.9-39.9-25-59.4c-33.2-68.4-78.3-131-132.1-184.8c-15.5-14.6-30.9-29.3-47.5-42.5
			c-28.4-23.4-58.7-44.3-90.6-62.5c-18-10.9-37.1-19.8-56-29.2l0.1-0.3C943.2,650.6,938,647.8,932.3,646 M380,676.9
			c-19.3,9.5-37.9,20.6-56.3,31.8c-16.1,9.6-31,20.9-46.1,31.9c-14.1,10.8-27.9,21.9-41,33.9c-30.7,26.9-58.3,57.4-83.3,89.6
			c-11.7,15-22.3,30.8-32.6,46.7C100.1,942.5,82.9,976.3,68,1011c-11.7,27.8-20.8,56.5-29.2,85.4c-6.9,25.7-11.4,51.9-15.3,78.1
			c-3.8,25.4-5.1,51.1-6.2,76.8c6.6,1.3,13,3.2,19.4,5.1c20.2,6.2,40.9,10.4,61.1,16.6c3.5-6.2,6.6-12.7,11.1-18.3
			c6.7-9.5,15.4-17.2,23.6-25.3c5.2-5.2,11.5-8.9,17.6-12.8c-0.1-7-1.9-14.2,0.4-21.1c3-8.3,7.4-16.3,14.1-22.1
			c9.6-8.1,22.7-12.4,35.2-10.3c9.5,1.5,18.2,6.6,25.1,13.3c5.8,5.7,9,13.5,11.2,21.2c1.6,5.8,0.7,11.9-0.1,17.7
			c0.2,0.3,0.6,0.9,0.8,1.2c4.9,1.8,10,2.7,15,4.2c40.1,10.8,80.1,22.2,120.1,33.2c9,2.8,18.6,1.6,27.8,1.5
			c15.9-0.6,31.8-1.3,47.7-0.9c-0.6-8.3-0.6-16.6-0.6-24.9c-0.1-129.7-0.1-259.3-0.1-389c0.2-11-0.5-22.1,0.4-33.1
			c0.2-1.5-0.4-3-1.6-3.8c-3.5-3.4-6.9-7.8-5.9-13c0.5,0.2,1.4,0.5,1.8,0.7c-3.7-3.1-7-6.7-10.8-9.8c-4.2-4.6-8.1-9.5-11-15.1
			c-4.6-10.3-6.4-21.7-6.5-33c-0.4-24,0.4-48,0-71.9C402,666.6,390.9,671.7,380,676.9 M933.2,665.3c-0.4,21.1,0.3,42.2-0.1,63.2
			c-0.1,3.8-0.7,7.8,0.3,11.5c6.6,2.8,12.1,9.1,12.3,16.5c-0.3,4.7-3.4,8.6-6.7,11.7c-3.1,2.7-6.4,5.7-10.7,6
			c-2.9-0.3-5.4-2-7.9-3.2c-8.9,6.9-17.2,14.5-25.7,21.9l-0.3,0.1c-7,5.7-13.9,11.5-20.6,17.6v0.2c-4.4,3.9-9.1,7.6-12.7,12.3
			c-2.1,2.7-1.5,6.2-1.9,9.4c-1.1,2.6-3.6,4.3-4.9,6.8c6.7,16.6,12.5,33.5,19.5,50.1c3,9.1,6.7,17.9,9.9,26.9
			c3.3,8.5,6.1,17.1,9.9,25.5c0.8,2.2,0.8,5.2,3.4,6.1c3.8,1.7,7.9,3.1,11,6.1c3.3,3,7.5,6.7,6.4,11.7c-1.7,7-6.8,12.7-12.1,17.3
			c0.1,6.5,0.5,13.1,0.5,19.6c0,32,0.1,64-0.3,96c0.1,6.6-0.5,13.3,0.1,19.9c1.6,2.5,4.7,3.8,6.7,6.1c3,3.5,6,7.9,4.8,12.8
			c-1.1,6.5-5.9,11.7-11.7,14.5c0.3,39.6,0.5,79.3-0.1,118.9c4.7,3.8,10.9,7.1,12,13.7c-0.8,2.3-1,4.7-1,7.2c1.9,1.8,3.9,3.5,6.1,5
			c16.7,11.3,33.4,22.6,49.9,34.3c16.4,11.6,33.2,22.5,49.4,34.5c8,5.3,16,10.5,23.8,16.1c15.7,11.1,31.7,21.7,47.4,32.8
			c7.1,4.9,13.8,10.4,21.2,14.9c3.2-1.6,6.6-3.5,10.3-3.6c4-0.3,7.7,1.8,10.7,4.2c3.9,3.8,7.8,8.7,6.8,14.5c5.1,1,10.2,1.7,15,3.8
			c32.5,11,65.3,21.1,97.8,32.3c11,3.8,22.1,6.9,32.8,11.5c3.4-9,6.6-18,9.4-27.2c6.5-22.2,13.2-44.4,17.5-67.1
			c4.8-23.5,8.1-47.2,10.1-71.1c1.8-25.1,3.6-50.3,2.8-75.4c-1.3-23.8-1.9-47.8-5.3-71.4c-1.6-13.5-3.7-26.9-6.4-40.1
			c-4.7-22.1-9.9-44-16.3-65.7c-17.1-56.9-42.5-111.3-74.5-161.4c-21.2-33.4-45.7-64.6-72.3-93.9c-6.4-7.1-13.5-13.7-20.2-20.6
			c-14.1-14.3-29.5-27.2-44.9-40.1C1038.3,720.3,987.2,689.5,933.2,665.3 M677.8,756.2c-0.1,3.2-0.1,6.4,0.1,9.6
			c0.3,38.7,0.2,77.4-0.3,116.2c12.4-16.9,23.1-34.9,35.1-52c6-8.5,11.7-17.2,17.3-26c6.5-9.4,13.1-18.9,19.2-28.6
			c0.9-1.9,3-3.4,3.1-5.5l0.7,0.1c2-2.8,3.9-5.6,5.6-8.5c3.1-4.6,6.3-9.2,9.1-14.1h0.3c1.7-3.1,3.7-6,5.6-9
			c4.2-6.8,9.8-12.7,14.6-19c-0.9-3.2-3.9-5.4-6.5-7.3c-16.2-5.1-33.2-6.5-49.8-10c-18-3.5-36-6.3-53.9-10
			C677,713.5,678.6,734.8,677.8,756.2 M796.2,702.1c-2.9,1.6-4,5-3.8,8.2c2.1,2.3,3.4,6.5,7.1,6.4c3.4-1.2,7.6-2.8,8.1-7
			C808.7,703.7,801.1,699.1,796.2,702.1 M860.6,720.8c1.8,4.3,5.7,9.1,10.8,8.8c2.9-2.2,5.1-5.5,6.3-8.9c-2.1-2-3.7-4.5-5.7-6.7
			C867.5,713.2,862.7,716.9,860.6,720.8 M814,718c-1.8,0.9-3.3,2.7-2.8,4.8c1.7,7.8,5.8,14.7,8.3,22.2c2.3,4.9,3.2,10.4,6.3,14.8
			v0.3l-0.1,0.6l0.3,0.1c0.7,2.7,1.7,5.3,2.7,8c2.5,6.5,5,13,7,19.7l0.3,0.1c2.3,6.4,4.1,13.1,7.3,19.1c2.8,2.4,6.7,3.1,9.8,5.2
			c1.7,1.2,3.2-0.5,4.4-1.5c3.9-3.7,7.8-7.4,11.7-11.2h0.2c3.4-3.5,7.4-6.4,10.8-9.9c3.7-3.6,7.9-6.6,11.5-10.3l0.1-0.1l0.1-0.2
			c6.1-5.2,12.4-10.3,17.9-16.2c3.8-4.1,0.8-10.5-3.2-13.2c-8.5-5.8-17.2-11.3-26-16.7c-4,2.1-8,6.3-12.9,5
			c-7.4-2.8-14-8.8-15.9-16.7c-4.4-0.9-9,0.5-13.3-0.9c-5.5-1.4-11.1-1.7-16.6-3.3C819.3,717.6,816.3,716.3,814,718 M787,735.5h-0.2
			c-1.5,2.6-3.5,4.9-4.7,7.7c-3.7,6-7.7,11.9-11.5,17.8l-0.2-0.1c-2.7,3.7-5.5,7.3-7.8,11.2c-12.6,20.4-26.3,40.1-39.2,60.3
			c-14.4,21.4-27.9,43.3-42.8,64.4c21.3,6,42.4,12.6,63.8,18.1v0.4c2.9,0.7,5.7,1.7,8.5,2.5c3,0.5,5.8,2.2,8.8,2.6
			c4.2-3.2,8.7-7.9,14.6-6.4c6.2,2,10.7,7.2,14.2,12.4c0.4,1,0.9,2,1.3,3c4.8,1.1,9.3,3.1,14.2,3.7c12.4,3.9,25,7.6,37.4,11.4
			c11,2.8,21.7,6.8,32.8,9.6c2.5,1.3,5.4,1.9,8.2,2.3c-0.5-2.7-1.2-5.3-2-7.9l-0.3-0.2c-1.5-5.7-3.9-11.1-5.9-16.7
			c-4-10.1-7.1-20.6-10.9-30.9c-6.9-18.2-13-36.7-20.3-54.8c-0.6-2.2-2.8-3.3-4.9-3.6c-1.2,0.2-2.4,0.4-3.5,0.6
			c-2.8-1.8-4.6-4.5-6.1-7.3c-2-3.5-5.9-6.7-4.9-11.2c1.3-4.7,5-8,7.6-11.9c-0.5-5.1-3.6-9.3-5.3-14c-2.5-6.6-5-13.3-7.3-20
			c0.2-1.2-0.7-2.2-1.2-3.1c-1.8-6.8-4.3-13.5-6.8-20.1c-1.6-4.2-2.7-8.7-4.8-12.8c-2.1-6.7-5.4-13-8.6-19.3
			C794.1,726.1,790.1,730.5,787,735.5 M921.5,753.9c-0.4,3.8,0.8,7.6,4.2,9.7c5.6,0.3,10.2-4.9,11.1-10.1c-2.6-2.4-5.8-4.3-9.4-4.4
			C925,750,923.3,752,921.5,753.9 M836.5,827.4c1.2,2.4,3.4,4,5.1,5.9c6,2.2,12.1-6.9,7.5-11.7c-1.9-1.5-3.9-3.6-6.6-3.3
			C838,818,835.3,823.5,836.5,827.4 M678.3,906.5c-0.5,41.4-0.2,82.8-0.5,124.3c1.8-1.2,3.2-2.9,4.4-4.6
			c19.9-24.3,40.7-47.9,61-71.9c5.7-6.6,11.9-13,15.8-21c-5.6-3.9-12.3-5.8-18.8-7.7c-11.3-3-22.6-6.5-33.8-10.1
			C697.2,912.3,687.5,910.1,678.3,906.5 M766.6,934.3c2,2.3,4.7,5.6,8.1,5c2.7-1.5,5.4-3.3,7.1-5.8c-0.2-4.9-4.7-9-9.5-9.9
			C769.8,926.8,764.8,929.7,766.6,934.3 M788,939.9c-3.7,2.9-5.5,8.4-10.5,9.4c-4.6,0.9-8.6-1.9-12.5-3.7
			c-7.7,7.5-13.6,16.5-21.2,24.1c-12.9,15.7-26.3,31-39.5,46.4c-5,6.1-10.9,11.5-15.4,17.9c3.1-0.9,6.1-1.9,9-3.2
			c60-22,120.4-43.1,180.6-64.4c-18.7-6.5-38-11.1-56.9-17.1C810.3,946.6,799.3,942.8,788,939.9 M894.8,958.7
			c-2.8,2.3-7.3,6.8-3.9,10.4c2.5,2,6,5.8,9.2,2.9c2.2-1.8,5.7-3.9,4.6-7.4C902.6,961.3,898.8,957.5,894.8,958.7 M874.2,979.2
			c-22.9,9.3-46.4,16.8-69.6,25.3c-19.8,6.9-39.3,14.5-59.5,20.4c-11.4,4.2-22.8,8.5-34.2,12.9c-5.2,1.2-10.3,3.3-15.2,5.5
			c-2.7,0.9-5.4,1.4-8.1,2c4.5,3.5,10.1,4.9,15.3,7c11.3,4.2,22.7,8.1,33.9,12.7l0.1,0.3c26.1,10.7,52.4,20.8,78.3,31.8
			c3.4,1.3,6.5,3.6,10.2,3.9c3.5-3.6,8-7,13.3-6.4c8,1.2,15,7.9,16,16c0.2,1.4,0.6,3.2,2.3,3.4c9,2.4,17.1,7,25.7,10.5
			c3-0.8,6.1-2.7,8-5.2c0.5-3.6,0.3-7.2,0.4-10.8c-0.3-41,0.1-82-0.1-123c0.5-3.9-3.1-6.5-6-8.3C881.3,974.7,877.5,978,874.2,979.2
			 M677.5,1052.9c0.4,26.5,0.4,53.1,0.5,79.6c-0.2,22.3,0.1,44.5-0.5,66.8c10.1-5.3,19.7-11.6,29.6-17.2c2-1.3,4.8-2.3,5.2-4.9
			c0.5-3.7,0.5-7.8,3-10.9c3.5-4.8,8.8-9.7,15.2-8.8c4.2,0.2,7.6,2.9,11,5c6.7-4.4,13.2-9,20.2-12.9c16.9-9.7,33.6-19.7,50.4-29.5
			c3.4-2.3,7.5-3.8,9.8-7.4c-6.2-4.3-13.5-6.5-20.3-9.5c-18.3-7.2-36.8-14.3-54.9-22c-17.1-6.8-34.5-13.2-51.3-20.7
			C689.3,1058.3,683.8,1054.8,677.5,1052.9 M829.6,1110.4c0.7,3.4,1.9,7.2,5.6,8.3c4.1,2.1,7.9-1.9,9.3-5.4
			c-0.1-0.4-0.3-1.2-0.4-1.6c0.7-2.8-2.3-5.9-4.8-7.1C835,1101.9,831.9,1107.4,829.6,1110.4 M848.3,1123.2
			c-0.2,4.1,1.7,7.8,2.7,11.7c6.1,19.8,13.6,39.2,20.1,58.9c7.2,20.5,13.6,41.2,20.1,61.9c0.2-10.1-0.6-20.1-0.5-30.2
			c0.2-24.4-0.1-48.8,0.8-73.2c-3.9-2.2-7.4-5.1-10-8.8c-1.9-3.2-0.8-8.6-5.1-10C867.2,1129.7,858.2,1124.8,848.3,1123.2
			 M823.1,1126.2c-19.6,11.3-39,23-58.6,34.3c-6.1,3.8-12.7,7.1-17.8,12.3c-1.3,1.2-1.3,2.9-1.5,4.5c5.9,6.4,13.8,10.4,20.8,15.4
			c33,22,66,44,98.9,66.3c7.3,4.7,14.1,10.3,21.5,14.8c-2.8-9.2-6-18.2-9.2-27.3c-6.4-17.8-12-35.8-18.3-53.7
			c-6.7-19.6-13-39.4-20-58.8c-1.3-5-6.5-6.7-10.7-8.5C826.6,1124.4,824.7,1125.4,823.1,1126.2 M894.9,1128.9
			c-2.5,1.5-5.9,4.1-4.6,7.5c0.7,2,0.7,5.1,3.2,5.9c3.3,1.1,7.8,0.1,9.4-3.3C907,1134.3,900.3,1126.2,894.9,1128.9 M722.8,1171.8
			c-3.2,5.5,4.2,11.5,9.6,9.8c1.8-2.1,4.6-4.1,4.3-7.2c-0.2-3.3-3.1-6.1-6.3-6.7C727.3,1166.6,724.5,1169.4,722.8,1171.8
			 M678.5,1210.9c-1.5,4-0.5,8.4-0.7,12.6c0.4,19.2,0.2,38.4,0.3,57.7c0,5.3,0.1,10.5,0.2,15.8c-0.4,11-2.2,22-1.4,32.9
			c2.6-7,4.4-14.2,6.3-21.3c7.5-24.6,14.9-49.3,22.1-73.9c4.4-12.1,7.7-24.7,11.5-37c1-3.5,2.9-6.8,2.8-10.5
			C705.8,1194.8,692.2,1203.1,678.5,1210.9 M183.4,1191.4c-4.7,3.6-8,9.2-8.8,15.1c0.2,5.5,3.5,10.3,5.6,15.3
			c2.6,3.8,0.3,8.9-3,11.4c-5.7,3.6-12.5,5.2-18.3,8.7c-9.8,5.5-18.1,13.4-24.6,22.5c-10.8,13.7-18.9,29.2-25.7,45.2
			c9-2.5,18.4-3.5,27.5-5.6c22.4-2.4,45-3.3,67.6-2.8c10.6-0.4,21.1,1.6,31.6,1c4.2,1,8.6,0.9,12.9,1.7c6.6,0.9,13,2.4,19.6,3.4
			c3.6,0.7,7.4,1,10.6,2.9c-8-18.9-18.4-36.9-31.9-52.4c-6.3-7.1-14.1-12.9-22.5-17.3c-7-3.1-16.7-4.9-19-13.4
			c-1.9-3.9,1.6-7.4,3.5-10.6c2.3-3.8,5.3-8.5,3.4-13c-1.9-3.9-4.7-7.3-7.8-10.3C198.6,1187.7,189.6,1187.4,183.4,1191.4
			 M728.6,1197.6c-7.7,25-15.8,50-22.4,75.3c-4.7,15-9.5,30.1-14.1,45.2l-0.3,0.1c-0.9,2.6-1.6,5.1-2.4,7.7
			c-1.2,3.7-2.4,7.4-3.2,11.2l-0.4,0.3c-0.3,1.2-0.6,2.4-0.9,3.6c-1.3,4.6-2.8,9.2-4,13.8c6.3-1.3,12.1-4.3,18.2-6.4l0.4,0.2
			c6.4-2.3,12.9-4.4,19.3-6.6l-0.3-0.2c3.6-0.9,7.2-2.1,10.8-3.5l0.3,0.1c13.3-4.8,26.8-8.7,39.9-13.8c25-8.4,49.9-17.2,75-25
			c8.8-3.6,18.2-5.4,26.9-9.2c1.8,0.2,3.5-1.1,5.1-1.7c1.7-1,4.2-1.9,4.5-4.2c-3.1-3.8-7.7-6-11.5-8.9
			c-42.4-28.3-84.6-56.8-126.8-85.3C737.2,1186.6,729.9,1191.8,728.6,1197.6 M276.3,1253.3c2.5,4.5,5.7,8.5,8.4,12.9
			c9,14.9,16.9,31,19.8,48.4c0.3,2.7,2.9,3.9,5,5c9,4.5,17.9,9.8,24.3,17.7c4.3,5.4,8.1,12,7.7,19.1c0,7.3-4.4,13.6-9.2,18.7
			c-7,7.1-15.7,12.5-24.8,16.5c-0.5,1.2-1.1,2.4-0.9,3.7c0.3,7,0.3,14,0.3,21c0.2,50,0.3,100-0.3,149.9c10.4,3.8,20,9.4,28.5,16.4
			c5.3,4.6,10.3,9.9,12.6,16.6c2.7,7.1,4.8,15.4,1.3,22.6c-3.9,8-9.8,14.9-15.9,21.2c9.7,1.9,19.1,4.9,28.6,7.3
			c19.5,5.5,39.2,10.1,58.8,15.3c38.6,10.4,77.5,20.2,116.1,30.6c25.5,6.7,51.1,13.3,76.6,20.4c18.2,4.6,36.2,9.9,54.5,13.8l0.4-0.6
			c1-13.3,3.3-26.4,5.5-39.5c1.6-11.7,3.6-23.4,5.2-35.1c3.2-10.7,3.8-22,5.9-32.9c1.9-13.1,4.6-26.1,6.6-39.2
			c1.2-10.2,3.1-20.4,5.3-30.4c-7.8,13.1-13.7,27.5-23.1,39.6c-0.6,22.8,0.3,45.5,0.3,68.3c-0.6,0.3-1.7,0.8-2.3,1
			c-3.6-1-6.8-3-9.4-5.6c-0.8-27.3,0.1-54.5-0.1-81.8c0.1-28.7-0.1-57.3-0.1-86c0.1-10.7-0.4-21.4,0.4-32.1c1.2-0.5,2.4-1,3.7-1.5
			c0.7-6.5,0.2-13,0.3-19.5c0.2-24.3-0.1-48.6,0.4-72.9c-12.1-4.6-24.6-8.2-36.9-12.4c-19.4-6.7-38.8-13.2-58.1-19.8
			c-8.7-3.1-17.8-5.6-26-10c-0.9-3.5-1.9-7-2.7-10.5c-2-10.9-5.2-21.6-6.5-32.7c-6.6-0.2-13.3-1.8-19.8-0.1c-18,1-36.1,1.4-54.1,2
			c-24,0.5-48,2.5-72,3.3c-7,0.1-14.3,0.6-21-1.9c-21.8-5.6-43.2-13.1-65.1-18.2C294.9,1259.7,284.9,1258.3,276.3,1253.3
			 M598.5,1267.8c5,3.1,10.9,4.3,16.3,6.4c11.4,3.5,22.6,8,34.1,10.9c6.4,2.3,13,4.2,19.5,6.1c0.1-3.8-2.7-6.3-6.2-7
			c-4.1-1.9-8.5-3-12.8-4C632.4,1276,615.5,1271.8,598.5,1267.8 M17.3,1277.6c1.5,33.6,3,67.4,9.7,100.5c1.8,8.1,2.8,16.4,4.5,24.6
			c3.3-2.7,6.5-5.7,9.8-8.4c5.9-5.1,12.8-8.7,18.8-13.6c-7-5.2-12.8-12.6-14.8-21.2c-0.4-7,2-13.9,5.2-20
			c7.5-10.3,19.1-16.3,30-22.1c1-2.5,1.7-5.1,1.9-7.8c0.3-4.9,3.6-8.9,5.1-13.4c-3.8-0.7-7.5-1.5-11.2-2.5
			C56.6,1288.5,36.7,1283.7,17.3,1277.6 M889.4,1291.3c3.4,1.3,7.2,3.5,10.9,2c2-1.3,4.5-3.2,4.5-5.9c-1.8-3.8-5-7.6-9.2-8.8
			C892.7,1282.2,889.6,1286.4,889.4,1291.3 M549.4,1279c3.2,9.6,5.4,19.5,7.6,29.4c9.9-1.4,19.6-4.4,29.5-5.8
			c1.3-0.3,3.2-0.2,3.4-1.9c-1.3-4.5-3.9-9.4-8.6-11C570.8,1285.6,559.9,1282.9,549.4,1279 M601.2,1296.3c0.1,1.3,0.2,2.6,0.3,4
			c2.9,3.3,7.2,4.7,11.2,6.1c18.4,6.3,36.9,12.4,55.3,18.6c-0.2-2.1-0.1-4.2-0.8-6.2c-2.8-1.9-6.4-2.4-9.6-3.6
			C638.9,1308.6,620.2,1302,601.2,1296.3 M883.5,1301.5c-13.8,9.7-28,18.6-41.9,28.2c-8.8,5.9-18.3,11.2-25.9,18.6l-0.7,0.1
			c1,2.8,4.3,2.9,6.6,3.9c34.3,9.5,68.7,18.7,102.8,28.7c5.6,1.2,10.9,3.6,16.6,4.3l0.7,0.5c19.7,5.7,39.6,10.9,59.1,17.3
			c4.3-3.7,9.6-7.2,15.7-6.1c7,1.7,12.6,7.8,14.5,14.6c20.8,5.2,41.5,10.8,61.4,18.6c-7.7-7.4-17.3-12.3-25.9-18.4
			c-16.5-11.5-32.8-23.2-49.6-34.3c-15.8-11.4-32.1-21.9-47.9-33.4c-12.9-9.6-26.6-17.9-39.5-27.3c-7.8-5.1-14.9-11.5-23.1-16
			c-3.7,2.4-8.3,6.1-12.8,3.6C890.3,1303.1,887,1299.1,883.5,1301.5 M783.4,1331.5c-15,5.7-30.5,10.2-45.8,15.2
			c-7.9,2.5-15.5,5.8-23.6,7.5c22.6-1.2,45-4.9,67.6-6.4c2.2-3.7,4.3-7.4,7.4-10.4c4.7-4,11.8-5.1,17-1.4c1.7,0.8,3.6,3.2,5.4,1.5
			c7.8-5.6,15.3-11.6,23.6-16.4c8.2-5.6,17.6-9.5,24.9-16.3C834.8,1314.7,808.9,1322.8,783.4,1331.5 M583.5,1317.4
			c-1.4,0-2.5,0.8-3.5,1.6c11.1,3.7,22.6,6.3,33.6,10.3c18.1,5.9,35.8,12.8,54.1,17.9c0.1-2.5-0.2-5.1-0.7-7.5
			c-12-3.8-23.7-8.2-35.6-12.1c-10.7-3.5-21.1-7.9-32-10.7C594.2,1315.7,588.8,1316.4,583.5,1317.4 M144.6,1329.1
			c-9.1,1.5-18.2,2.7-27.1,4.9c-13.2,3.1-26.8,5.9-38.6,12.9c-3.7,1.9-8,4.9-7.6,9.6c2.7,2.7,5.2,5.8,9,7.1
			c-0.3-4.4-1.3-9.6,2.4-12.9c5.1-4.8,12.5-5.6,18.8-7.7c15.1-4.1,30.5-6.9,46-8.5c6-0.8,12-0.4,18-1.3c21.3-1.3,42.8-1.9,63.9,1
			c17.4,0.3,34.6,3.8,51.6,7.8c7.1,2,14.5,3.4,21,6.9c4.2,3.4,4,9.4,4.9,14.3c2.5-1.8,5-3.7,6.8-6.3c2-2.3-0.5-5.2-2.4-6.7
			c-9-7.1-20.2-10.4-31.1-13.5c-6.6-1.7-13.1-3.7-19.8-4.7c-9.7-1.5-19.2-4.1-29.1-4.5c-15-0.4-30-1.8-45-1.3
			C172.5,1327,158.5,1326.9,144.6,1329.1 M796.7,1343.7c-2.9,1.6-5.6,5-5.1,8.5c1.5,2.3,3.2,4.5,5.1,6.4c1.9,1.3,3.9-0.3,5.4-1.3
			c2-1.6,4.2-3.3,5.3-5.8C805.7,1347.2,801.5,1343.4,796.7,1343.7 M142.6,1360.8c-11.9,1.4-23.5,4.5-35.2,6.9
			c-0.8,1.8-1,3.8-0.9,5.8c-0.1,22.7,0.4,45.4,0.3,68.1c-1.2,38,0.2,76-0.7,113.9c23.1-5.2,46.9-7.2,70.5-8.1
			c22.5-0.3,45.1-0.1,67.4,2.9c12.3,1.4,24.6,2.6,36.6,5.7c-0.7-35.2-0.2-70.4-0.4-105.5c-0.1-27.4,0.5-54.8-0.2-82.3
			c-13-3.9-26.4-5.6-39.8-7.5c-11.5-1.6-23-1.9-34.6-2.1C184.5,1358.3,163.4,1358.2,142.6,1360.8 M770.6,1359.8
			c-10.3,1.2-20.7,1.7-31,2.6c-1.2-0.3-2.5-0.2-3.7-0.2l-0.3,0.5c-6.6,0.4-13.2,0.7-19.7,1.8c-12.4,0.1-24.8,3-37.3,2.4
			c-0.1,0.3-0.2,1-0.3,1.3c-0.1,57.1-0.3,114.2-0.5,171.3c-0.2,9.1,0.3,18.3-2,27.2c6.2-8.1,10-17.8,16.1-26
			c0.7-1.4,2.4-2.6,1.8-4.3c-0.4-4.2-3.2-7.5-4.7-11.3c-0.6-4.7,2.7-8.7,4.7-12.6c3.5-2.7,7.1-5.3,11.5-6.4c1.8-0.7,4.2-0.7,5.4-2.6
			c2.7-3.7,4.6-7.9,7-11.8c1.8-3.5,4.1-6.9,5.7-10.5l0.2,0.1c1.4-2.9,2.8-5.7,4.4-8.5l-0.3-0.3c9.5-17,18.8-34.1,27.9-51.3
			c4.6-9.1,10-17.8,14.7-26.9l0.3,0.1c0.9-2.4,2-4.7,3.2-7c3-5.9,6.3-11.6,9.2-17.6c0.7-1.1,1.3-2.3,1.9-3.5
			c0.7-1.4,1.5-2.7,2.2-4.1c-0.4-1.1-0.8-2.1-1.3-3.1C780.5,1358.7,775.5,1359.5,770.6,1359.8 M810.3,1362.9
			c-2.9,2.4-6.1,5.1-10.2,4.6c-1.4,0.4-3,0.4-3.9,1.7c-2.6,3.1-4.5,6.7-6.5,10.2c-1.3,2.6-2.6,5.1-4,7.6h-0.1
			c-1.8,3.9-3.9,7.7-6,11.4c-8.7,17.7-18.9,34.7-28.1,52.2c-3.7,7.9-8.1,15.5-12.3,23.1h-0.3c-1.2,2.4-2.5,4.7-3.8,7l0.1,0.1
			c-5.6,10.8-11.7,21.4-16.8,32.4c6.7-4.1,14.7-4.9,21.8-8c11.3-4.6,23.1-7.9,34.5-12.5c5.8-1.2,11.4-3.8,17-5.8
			c10.2-3.8,20.5-7,30.6-10.8c2.5-0.6,2.5-3.6,3.4-5.5c1.8-6.7,8.2-11.6,14.9-12.7c5.9-0.6,10.2,4,14.7,6.9
			c19.5-7.5,39.2-14.7,59-21.5c5.1-1.6,10.2-3.2,15.2-5.3c3.8-1,7.3-2.5,11.1-3.6c7.5-2.8,15.2-5.3,22.5-8.5l0.2,0.1
			c5.9-2.3,12.2-3.6,17.9-6.5l0.4,0.2c3-1.4,6-2.6,9.1-3.7c1.7-0.3,3.4-0.9,5.1-1.4c0.1-0.4,0.3-1.1,0.4-1.5
			c-21.3-5.8-42.5-11.5-63.6-17.9c-22-6.1-43.9-12.4-65.8-18.4c-3.5-2-7.6-2.6-11.3-3.9c-13-4.1-26-7.7-39-11.8
			C814.1,1359.9,812.1,1361.6,810.3,1362.9 M79.3,1397.6v0.3c-13.4,11.1-27.9,20.8-41.6,31.6c8.7,31.9,19.5,63.2,32.2,93.7
			c3.4,8,5.8,16.5,11,23.6c0-3-0.3-6-0.6-8.9c-0.1-22.8-0.2-45.5-0.2-68.2c0.2-11-0.7-22,0.7-33c0-13.1,0.4-26.1-0.3-39.2
			C80.2,1397.5,79.6,1397.6,79.3,1397.6 M1011.8,1406.7c-3.2,1.5-8.4,5.1-5.5,9c1.5,2.2,3.2,4.4,5.1,6.2c4,0.3,7-3.3,9-6.4
			C1021.3,1410.8,1016.6,1406.2,1011.8,1406.7 M1025.7,1424.8c-3,3.2-7,5.1-10.5,7.8c-3.1,3.7-5,8.1-7,12.4c-1.6,2.7-2.8,5.6-4,8.5
			c-9.7,21.8-19,43.8-29.6,65.1c-1.7,4.3-4.6,8.1-5.3,12.7c2-1,3.9-2.1,5.8-3.3c8.1-5.7,16.6-10.8,25-15.9
			c15-9.8,30.5-18.9,45.6-28.5c2.1-0.9,4-2.3,5.9-3.6c3.6-2.3,7.2-4.5,10.8-6.6c4.2-2.3,8.1-4.9,11.9-7.7c5.3-3.1,10.5-6.2,15.6-9.5
			c4.8-2.6,9.2-5.9,13.7-9l-0.2-0.5c1.4,0,2.1-0.8,2.1-2.2c-0.5-0.3-1.6-0.9-2.1-1.2l0.2-0.4c-12.3-3-24.3-6.9-36.5-9.9
			c-12.3-3-24.4-6.8-36.5-10.3C1028.5,1421.8,1026.9,1423.4,1025.7,1424.8 M971.8,1434.8c-3.3,0.4-6.3,2-9.3,3.2
			c-6.4,2-12.6,4.5-18.9,6.7c-4,1.3-8,2.4-11.8,4c-14.3,5-28.6,10.1-42.9,15.1c-8.8,3.6-18,6.4-26.8,10.2c-5.1,2-5.2,8.1-7.9,12.2
			c-1.7,2.8-5.8,2.6-7.5,5.2c1.7,23.6,1.8,47.3,3.2,70.9c-0.1,11.4,1.2,22.7,1,34.1c0.2,15,0,30,0.8,45c0.4,11.3,0,22.7,1.1,34.1
			c0.2,8,0.3,16,0.3,24c-0.2,5.7,1.1,11.3,0.8,16.9c-0.3,6.7,1,13.3,0.9,20c0.1,6.8-0.3,13.5,0,20.3c2.5-4.6,4.6-9.5,6.6-14.3
			c3.4-8.4,7.8-16.3,11.5-24.6c3.1-7.7,6.5-15.3,10.3-22.7c5-9.3,8.2-19.5,12.8-29c12.9-27.1,24.3-54.8,37.4-81.8
			c3.6-8.5,7.5-16.8,12-24.9c-0.5-2.1-2.1-3.7-3.2-5.5c-2.5-3.8-4.5-8.8-2.5-13.2c1.9-5.4,6.6-9.2,11.7-11.4
			c2.4-1.1,5.4-0.7,7.5-2.5c2.2-3,3.5-6.6,5.1-10c7.3-17.2,15.6-34,22.8-51.2l0.8-0.4c0-0.4,0-1.3,0-1.8c2.4-5.2,5-10.3,7.3-15.5
			c2.3-4.7,4.5-9.5,6.7-14.3c0.6-1.4,1.2-2.8,1.6-4.3c-0.1-1.6-0.6-4.2-2.7-3.7C990.3,1426.4,981.3,1431.8,971.8,1434.8
			 M1116.1,1437.1c-2.9,2.3-0.9,6.3-0.5,9.3c0.2,0.2,0.7,0.6,0.9,0.8l0.3-0.1c2.2,2.2,5.9,4,8.3,1.1c3.5-2,4-5.9,3.4-9.5
			C1125.3,1435.8,1119.9,1434.6,1116.1,1437.1 M1131.1,1454.3c2.4,6.8,3.6,13.9,6.2,20.6c1.3,4,2.3,8,3.7,11.9
			c1.3,4.9,2.7,9.8,3.6,14.8l0.4,0.1c1.1,3.3,2.4,6.5,3.9,9.6c1.8,6,4.2,11.8,5.8,17.9l0.3-0.3c2.9,9.9,6.4,19.7,9.3,29.6
			c2.3,6.6,3.3,13.9,7.7,19.6c2,2.7,5.9,1.8,8.3,0.2c4.4-2.8,8.3-6.4,12.3-9.7c8.7-7.4,17.6-14.6,26.3-21.9c2.3-1.3,4.2-3.3,6.1-5.1
			c4.2-3.7,8.5-7.2,12.6-11c1.6-0.8,2.9-2.2,4.3-3.3l0.1-0.3c11.2-9.2,22.1-18.8,33.8-27.4c-1.8-0.4-3.6-0.8-5.4-1.2l0.1-0.5
			c-20.7-6.7-41.4-13.6-62.1-20.3c-22.4-7.3-44.5-15.5-67-22.3C1138,1454.8,1134.4,1452.6,1131.1,1454.3 M1105.8,1458.7
			c-9.1,4.3-16.8,11-25.8,15.5c-0.9,0.2-1.9,0.5-2.8,0.8c-3.3,2.2-6.6,4.4-9.8,6.9c-4.7,3.1-9.5,6.1-14.4,8.9l0.3,0.2
			c-19.5,11.8-38.6,24.5-58.2,36.2c-7.8,5-16.5,9.3-22.7,16.4c4.5,1.5,9.2,2.1,13.8,3c22.8,4.6,45.3,10.4,68,15.3
			c23.6,5.5,47.2,11.3,70.9,16.2c2.2,1.1,4.7,1.3,7.1,2c8.3,1.7,16.4,4,24.8,5c1.5-2,2.6-4.4,1.6-6.9c-5.3-19.8-12.4-39.2-18.2-58.8
			c-0.2-0.5-0.7-1.4-1-1.8c-2.2-7.7-4.8-15.3-7-23c-1-2.7-1.8-5.4-2.5-8.2l-0.3,0.5c-0.7-4.3-2.2-8.3-3.5-12.4
			c-2.2-6.2-4.6-12.9-10.3-16.8c-0.6-0.6-1.4-1-2-1.4l0.4-0.6C1111.2,1455.2,1108.6,1457.4,1105.8,1458.7 M838.8,1468
			c-2.4,2.5-6.1,5.4-5.1,9.4c1.7,2.8,4.7,5,7.9,5.9c3.1-1,5-4.1,7.2-6.2c2.1-2.5-0.7-4.9-2.3-6.6
			C844.6,1468.3,841.6,1466.7,838.8,1468 M802.2,1495.1c-18.9,6-37.2,13.5-56.1,19.6c-5,1.6-10,3.6-14.9,5.5c-3.5,1.6-8,3-8.9,7.2
			c-0.7,2.6-2.8,4.6-3.9,7c12.7,21.4,24.9,43.3,37,65c4,6.9,7.4,14.2,12,20.7v0.2c3.9,6.8,7.4,13.8,11.3,20.5l0.3,1.3l0.5-1.1
			l-0.2,1.1c6.7,12.5,13.9,24.8,21,37.1c1.4,3.1,3.2,5.9,4.8,8.9c3.6,6.6,7.2,13.2,10.8,19.8c9.7,16.8,18.8,34,28.5,50.8
			c0.2-6.2-1.2-12.3-1.3-18.5c-0.2-6.7-0.4-13.3,0-20c-1.8-15.3-0.5-30.7-1.8-46c-0.3-11.7-0.4-23.4-0.6-35.1
			c-0.8-13.3-0.2-26.7-1.6-40c-0.9-27.3-2-54.6-2.2-82c-0.2-2.5,1.4-4.9,0.7-7.4c-1.2-4.4-0.8-9-1-13.6c-0.2-1.9,0.3-4.3-1.7-5.4
			c-2.5-1.6-4.6-4.2-7.4-5.2C818.9,1488.7,810.7,1492.3,802.2,1495.1 M699.1,1523.4c0.6,3.3,3.5,5.6,5.5,8.3
			c3.3-1.6,6.4-3.6,8.9-6.3c1.8-2.1-0.8-4.2-1.8-5.9c-1.6-2.1-3.8-5.9-7-4C701.8,1517.1,699.8,1520.2,699.1,1523.4 M1259.1,1527.1
			c-5.7,5.3-12.2,9.7-17.9,15.1c-5.7,5.4-12,10-18,15.1c-9.6,8.1-19.4,16-29.1,23.9c-2.8,2.7-6.4,4.9-8,8.5
			c1.5,4.6,0.9,9.3-0.9,13.7c9.3,8,16.6,18.2,26.2,25.9c6.1-13.2,13.2-25.9,20.2-38.6c8.3-16.4,16.3-33,24.9-49.3
			c3.8-8.3,8.9-15.9,13.7-23.7C1266.1,1520.4,1262.7,1523.9,1259.1,1527.1 M952.8,1538.9c-2.1,0.6-4.5,2.1-4.2,4.6
			c0.6,4.2,3.6,7.8,6.9,10.3c3.8-1.2,6.7-4.4,9.2-7.4C964.7,1540.9,958.1,1536,952.8,1538.9 M706.9,1552.7
			c-2.8,18.5-6.3,36.9-8.7,55.5c-2.2,11.1-4,22.3-5.6,33.6c-2.6,18.7-5.3,37.3-8.9,55.8c-2,10.4-4.3,20.8-4.9,31.4
			c3.4,1,6.9,1.7,10.3,2.7l0.2,1.2l1.1-0.8c0.5,0,1.4,0.1,1.9,0.1c0.5,0.3,1.6,1,2.2,1.3c6,1.1,11.8,3,17.7,4.5
			c21,5.8,42.1,11.2,63.2,16.7c3.8,1.1,7.7,2.2,11.6,2.9c6.7,1.2,12.9,4.1,19.6,5.3c3.5,0.5,6.2,3.1,9.8,3.2
			c7.3,0.7,14.2,3.7,21.6,4.5c-0.7-4.8-3.8-8.7-5.9-12.9c-2.9-6.2-7-11.7-10.3-17.6c-11-19.4-22.2-38.7-32.7-58.4
			c-3.8-8.5-9.6-15.9-13.8-24.2c-13.7-25.1-28-50-41.8-75c-8.2-14.4-15.7-29.3-25.1-43C707.2,1543.9,707.7,1548.4,706.9,1552.7
			 M962.5,1561.6c-4.5,3.1-5.2,8.8-5.9,13.8c-3,30.6-9.4,60.8-12.9,91.3c2.2,1.8,4,5.8,7.5,4.4c12.6-5,25.3-9.6,37.9-14.5
			c3.3-1.2,6.7-2.5,10-3.7c5.7-2.3,11.4-4.4,17.2-6.5c7.5-2.4,14.7-5.6,22.2-8.2c1-0.5,2.5-0.8,2.8-2c1.3-3.3,2-7,4.4-9.8
			c3.2-3.9,7.7-7.2,12.8-7.8c5.6-0.2,10.1,3.5,14.4,6.7c3.8-1,7.4-2.7,11.3-3.7l-0.2-0.6c3.9-1.3,7.7-2.8,11.5-4.1l-0.2-0.7
			c0.6-0.3,1.7-0.9,2.2-1.2c0.2,0.2,0.6,0.7,0.8,0.9c7.1-2.5,14.1-5.5,21.2-8.1c1.8-0.6,3.7-1.1,5.4-1.9c9.3-3.2,18.6-6.3,28.1-9
			c-0.3-0.4-0.8-1.2-1.1-1.6c-9.7-1.4-19.2-3.7-28.8-5.6c-1.7-0.5-3.3-0.9-5-1.3c-12.7-3.4-25.7-6-38.5-9
			c-20.2-4.4-40.2-9.6-60.5-13.7c-5.6-2-11.6-2.8-17.3-4.4c-4.2-1.2-8.4-2.2-12.6-2.9c-4.8-1.3-9.5-2.7-14.4-3.5
			C969.5,1554,966.3,1559.1,962.5,1561.6 M101.1,1584.6c0.6,3.9,2.1,8.1,5.4,10.6c6.1-0.5,11.9-2.5,17.9-3.5
			c39.2-7.2,79.6-7.8,119.1-2.9c20.9,3.1,41.9,7.5,61.4,16.2c7,3,13.1,7.8,19.7,11.6c0.2-2.7,0.2-5.6-1.2-8.1
			c-3.1-5.6-9.1-8.5-14.3-11.8c-19.8-11.1-42.4-15.4-64.5-19C197,1570.9,147.9,1572.7,101.1,1584.6 M946.3,1581.8
			c-12.4,24.9-22.6,50.8-34.6,75.8c-9,18.6-16.5,37.9-25.7,56.4c-8.2,17.5-15.3,35.5-24.6,52.5c1.1,2.7,3.3,4.9,4.3,7.7
			c1.5,2.8,1.4,6,1.6,9.2l-0.2-0.7c-0.6,3.5-2.9,6.2-5.4,8.6c5,6.3,8.1,13.9,12,21l0.3,0.1c4.3,9.7,10.5,18.4,15.5,27.8
			c1.7,3.6,3.7,7.1,5.6,10.7c2.4,4.4,4.3,9.2,7.5,13.2c-0.1-7.2,1.8-14.2,2.5-21.3c1.4-6.8,1.9-13.7,3.2-20.5
			c1.3-8.4,2.2-16.8,3.5-25.1c2.6-14.8,4.1-29.9,6.8-44.7c1.3-2.4,3.3-4.6,3.3-7.4c-1.3-1.2-2.6-2.6-3.1-4.3c1.3-1.1,2.4-2.3,2.5-4
			c2-13,3.8-26.1,6.6-38.9c-4.6-2.7-8.2-7.1-10.1-12.1c-1.5-3.4,0.8-6.7,2.6-9.4c1.9-2.8,3.1-6.1,5.2-8.8c1.9-0.8,4-0.9,6-1.2
			c1.6-4.8,1.8-10.1,4-14.8c1.1-14.2,3-28.4,5.4-42.5C942.1,1599.8,944.9,1591,946.3,1581.8 M1165.3,1588.3c-2,2.1-3,5.2-2.8,8.2
			c0.8,1.9,2.6,3.1,4,4.6l0.6-0.3c3,2.8,6.4-0.3,9.4-1.4c1.8-3.2,0.1-6.8-1.3-9.8l0.1-0.3C1173,1586.3,1168.3,1586.3,1165.3,1588.3
			 M1126.6,1616.6c-3,1.1-6.1,2.2-9.2,3l-0.1,0.3c-6.1,2.4-12.2,4.5-18.3,6.8c-1.3,0.3-2.6,0.6-3.9,0.9v0.4
			c-5.4,2.4-11.2,3.9-16.2,7.1c-1.7,0.9-2.3,2.7-2.9,4.4c-1.5,4.4-4.4,8-7.7,11.1c2.2,4.4,2.7,9.3,4.2,14
			c5.8,19.9,10.3,40.2,16.7,59.9v0.1c2.9,8.9,4.3,18.2,7,27.2c2.7-5.3,4.3-11.2,6.8-16.6c4.7-11.3,10-22.3,14.4-33.7
			c0.5-1.2,1.1-2.3,1.3-3.5c13.1-29.1,25.8-58.3,38.6-87.5c0.8-1.8,0.5-3.7,0.5-5.6C1147.3,1608.4,1137.1,1613.1,1126.6,1616.6
			 M1164,1622.1c-6.1,15-12.7,29.8-19.3,44.6c-3.8,8.6-7.1,17.4-11,25.9c-6.1,13.4-11.2,27.3-17.3,40.7c-2.8,7.1-7.1,13.3-10.8,20
			c3.6-2.6,7.2-5.3,10.1-8.7c5.7-6.6,12.7-11.9,18.7-18.2c8.6-8.5,16.8-17.2,24.9-26.2c10.8-12.6,22-24.8,31.7-38.2
			c5.2-7.2,11-14,15.6-21.6c-0.8-2-3-3.1-4.3-4.6c-7.8-7.8-15.7-15.6-23.2-23.7c-1.2-1-2.6-2.9-4.4-2.1
			C1169,1611.4,1165.9,1617,1164,1622.1 M120.9,1618.8c1,4.2,4.3,7.2,6.4,10.7c1.3,1.6,2.5,4.5,5,3.6c13.8-3.5,28-5.5,42.2-6.9
			c13.9-1.4,27.9-0.8,41.8,1c11.8,1.3,23.5,3.4,34.8,6.9c6,2.1,12.9,5.1,15.2,11.5c0,5.7-4.1,10.2-5.9,15.3
			c7.3-3.2,15.1-5.2,22.6-7.8c9.2-3.3,18.2-7.4,25.8-13.7c-2.1-3.7-5.9-5.7-9.4-7.8c-13.2-7.4-28.1-11-42.9-13.7
			c-17.5-3.3-35.3-5.2-53.1-5.1c-15.7,0-31.4-0.6-47,1C144.5,1614.5,132.7,1616.6,120.9,1618.8 M1056.8,1629
			c-4.4,1.4-7,8.1-3.2,11.4c1.8,2.1,4.6,4,7.4,2.6c3.3-0.9,5.4-4.2,5.5-7.5C1066.1,1630.9,1061.3,1627.3,1056.8,1629 M1014,1658.5
			v0.2c-5.1,2-10.1,4-15.3,5.8c-4,1.5-8,2.9-12,4.3v0.2c-11.6,3.9-22.8,8.8-34.5,12.3c-0.2,1.8-0.3,3.5-0.6,5.3
			c-0.6,4.4-4.6,7-7.7,9.7c-2.6,2.3-7.1,3.5-7,7.7c-0.9,13-4.3,25.6-5.7,38.6c-1.1,11.7-4.3,23.2-5,34.9c-0.9,7.3-2.6,14.4-3.5,21.7
			l-0.3-0.1c-1,7.2-2,14.4-3.2,21.6c-1.4,11.6-4.1,22.9-5.8,34.4c8.3-12.6,16.7-25.2,24.2-38.2c5.3-9.2,11.7-17.8,17.3-26.8
			c9.3-14.1,17.8-28.7,27.6-42.4c-1.3-4.5-5.2-8.2-4.5-13.1c0.4-5.6,4.8-9.4,8.8-12.6c3.6-1.8,7.4-3.2,11.5-2.8
			c2.5-0.9,3.7-3.5,5.3-5.4c5.1-7.6,9.6-15.5,14.5-23.2c7.2-10.6,13.6-21.7,20.6-32.5c2.3-3.8,5.6-7.1,7.7-11.1
			C1035.5,1650,1024.8,1654.4,1014,1658.5 M146.3,1655.9c6.5,9,13.6,17.6,20.4,26.4c8.5,9.9,16.9,19.9,25.4,29.8
			c1,1.3,2.4,2.4,4.1,2.9c7.1-12.1,14.1-24.2,21.8-36c4.9-8,10.1-16,15.6-23.6c-5.1,0.2-10.1-1.1-15.1-1.9
			c-14.9-1.9-29.9-2.1-44.8-1.1C164.4,1652.9,155.5,1655.3,146.3,1655.9 M1055.3,1653.2c-9.7,14.4-18.7,29.3-28.3,43.8
			c-4,7-9,13.4-12.8,20.6c-1.6,2.3-4,4.2-5,6.9c0.4,2.6,2.4,4.6,3.5,6.9c1.1,1.8,1.6,4.4,3.8,5.2c3,1.3,6.1,2.5,9.2,3.7
			c20.6,6.2,41.5,11.6,61.7,19.1c-2.3-8.1-5.4-16-7-24.3c-6.9-26.2-14.4-52.2-21.5-78.4C1058.3,1655.2,1057.3,1650.4,1055.3,1653.2
			 M315.5,1666.4c-9,5-18,10.1-28.1,12.5c35.9,8.3,71.5,18.4,107.2,27.6c16,4,31.8,8.8,47.9,12.8c22.9,5.7,45.5,12.4,68.4,17.9
			c43.5,11.5,87,22.7,130.4,34.6c8.5,2.4,17.1,4.2,25.5,6.9c0.3-5.4,0.2-10.8,0.6-16.1c-0.2-1.7,0.7-4.8-1.8-5.1
			c-13.9-3.3-27.4-7.6-41.3-10.7c-81.9-21.5-163.7-43.1-245.5-64.6c-19.3-5.5-39-9.9-58.2-15.7
			C318.9,1666.1,317.1,1665.4,315.5,1666.4 M932.4,1675.8c-2.1,1.8-3.9,4.2-5.1,6.8c1.3,4.3,5.4,8.7,10.3,7.1v-0.3
			c2-1.3,3.8-3.1,4.4-5.5C944.1,1678.6,937.3,1672.4,932.4,1675.8 M245.5,1687.7c-2.4,0.5-3.8,2.7-5.2,4.6c-5,7.2-9,15-14,22.1
			c-4,5.8-6.9,12.3-11.8,17.5c0,0.6-0.1,1.8-0.1,2.4c39.1,38.2,82.9,71.7,130.4,99c20.2,12.1,41.6,22.1,63,32.1
			c38,16.3,77.4,29.9,117.7,39.3c19.8,4.4,39.9,8.1,60,10.9c27.1,3.3,54.4,5.3,81.7,5.7c-0.6-9.9-0.4-19.9-0.6-29.8
			c-0.1-30.4-0.1-60.9-0.1-91.3c-4.2,0.1-8.4-0.5-12.6-0.1c0.2,15.2,0.2,30.4,0.6,45.6c-0.2,0.3-0.7,0.9-1,1.3
			c-3.5,0.3-7.1,0.4-10.4-0.9c-0.4-8.1-0.6-16.3-0.6-24.4c0.2-10.1-0.3-20.2,1.5-30.1c-8-0.1-16-0.5-24-0.9
			c-1,14.3-0.3,28.6-0.5,42.9c-0.2,1.2,0,3-1.5,3.5c-2.9,1.1-6.1,1.3-9.2,1c-0.9-9.1-0.4-18.3-0.6-27.4c0.2-9.4-0.7-18.9,1.1-28.1
			c-8,0.4-15.9-0.2-23.8-0.2c0,15.8,0.3,31.5,0,47.3c-3.2,0.1-6.5,0.3-9.7-0.4c-1.5-0.6-1.2-2.3-1.4-3.6c-0.4-9.3-0.4-18.7-0.4-28
			c0.3-8-0.4-16.1,1-24c-7.9,0-15.8-0.5-23.7-0.3c0.1,14.1,0,28.3,0,42.4c-0.2,1.5,0.4,3.7-1.3,4.5c-3.2,0.3-6.5-0.2-9.7-0.5
			c-0.9-9-0.9-18-0.9-27.1c0-9.3-0.2-18.7,0.9-27.9c-7.7-0.4-15.3-0.6-23-0.9c-0.3,13.9,0,27.9-0.2,41.8c0,2-0.2,4.1-1,5.9
			c-3.3-0.4-6.6-0.7-9.8-1.2c-1.2-5.9-0.9-11.8-1-17.8c-0.1-12.3-0.1-24.7,1-37c-7.7-0.1-15.4-0.5-23-0.6c-1.9,0.7-0.6,3.2-1,4.8
			c0.2,14.2,0.2,28.5-0.1,42.7c-3.6,0.2-7.2,0.1-10.7-0.4c-0.5-8.1-0.3-16.2-0.4-24.3c0.1-10.4-0.3-20.7,0.5-31
			c-7.9,0.1-15.7-0.9-23.5-0.3c0.2,12.4,0,24.9,0,37.3c-0.1,3.3,0.2,6.7-0.8,9.8c-3.4-0.4-6.7-0.6-10.1-0.8
			c-0.1-8.7-0.1-17.4-0.1-26.1c0.3-9.7-0.5-19.4,0.6-29.1c-7.9,0-15.8,0-23.7-0.9c-0.1,15.8,0.1,31.5,0.1,47.3
			c-3.6,0.3-7.3,0.3-10.9-0.1c-0.8-18.4-0.8-36.8,0.3-55.2c-7.9,0-15.7-0.3-23.6-0.6c-0.3,15.6-0.1,31.2-0.5,46.8
			c-3.4-0.7-7.8,0.4-10.4-2.2c-1.1-17.7-0.7-35.5,0.3-53.2c-7.8,0.1-15.6,0-23.4-0.7c-0.8,15.6,0.3,31.3,0,46.9
			c-3.7-0.1-8.1,0.7-11.3-1.4c-1.1-10.2-0.5-20.5-0.6-30.7c0.2-7.8-0.4-15.7,1.2-23.3c-8.1,0.7-16.2,0.1-24.3-0.3
			c0.6,10.2,0.3,20.5,0.4,30.7c-0.1,5.4,0.6,11-1.1,16.3c-3.1,1.2-7,1.8-9.7-0.7c-1.8-7.4-0.9-15.1-1.2-22.6c0.3-11-0.7-22,1.1-32.9
			c-7.8,0.5-15.6,0.7-23.4,0.3c-0.3,9.5-0.1,19.1-0.1,28.6c-0.1,6,0.7,12.2-1,18.1c-3.2,0.6-7.5,1.7-10.1-0.9
			c-0.8-3-0.6-6.1-0.7-9.2c0-12.7-0.1-25.4,0-38.1c0.2-1.9-0.1-4,1-5.7c3.4-2.3,7.1-4.3,11.3-5c-3.4-0.5-6.9-0.6-10.3-1.3
			C260.3,1685.7,252.7,1686.4,245.5,1687.7 M994.8,1728.9c-2.3,1-5.1,2.2-6.1,4.7c-1.1,3.7,1.3,7.3,4.1,9.6c3.5,1.6,7.6-0.8,9.9-3.5
			c2-2.3-0.2-5.2-1.2-7.4C1000.5,1729.8,997.5,1728.2,994.8,1728.9 M678,1740.1c-0.4,6.3-0.5,12.6-0.2,18.8
			c0.6,30.8-0.2,61.5,0.1,92.3c-0.1,0.6-0.3,1.8-0.4,2.5c0.5,19.3,0.3,38.6,0.4,57.9c7.1-7.1,15.1-13.3,23-19.5
			c15.7-13,32.1-25.2,48.1-37.8c2-1.8,4.2-3.5,6.3-5.1v-0.4c3.7-2.4,7-5.3,10.5-8.1c5.8-4.8,12.2-8.9,17.4-14.4h0.4
			c4.6-3.7,9.2-7.6,13.8-11.3l-0.3-0.2c8.1-5.7,15.8-12,23.6-18.2c5.3-4.1,10.9-8.1,14.8-13.6c-8.6-4.8-18.6-6-28-8.8
			c-31.7-8.4-63.5-16-95-24.9C701,1746.2,689.4,1743.7,678,1740.1 M1009.3,1746.8l0.6,0.2c-4.8,1.5-9.1,4.1-13.8,5.9
			c-0.2,0.5-0.7,1.4-1,1.9c-0.1-0.6-0.2-1.9-0.2-2.5c-4.6,0.8-6.3,5.6-8.6,9c-3.7,5.4-7.7,10.5-10.9,16.2
			c-5.9,10.4-12.2,20.6-18.9,30.5h-0.1c-4.4,6.9-8.7,14-13.2,21c-4.1,6.3-9,12.2-12.2,19c-2.8,5.9-6.8,11-10.8,16.1
			c6-2.6,10.9-7.1,16.7-10.2c9.8-5.7,19.7-11.2,29.3-17.2l0.2,0.1c10.3-6.5,21.1-12.3,31.5-18.7l-0.2-0.1c4.5-2.6,9.1-5.2,13.6-7.9
			c3.4-1.7,6.6-3.7,10-5.5v-0.3c18.1-9.6,35.2-21,53.1-31c2.6-1.5,5.6-2.6,7.8-4.9c-19.3-5-38.3-11.2-57.1-17.6
			c-3.5-1.7-7.4-2.3-10.9-3.9C1012.6,1746,1010.9,1746.5,1009.3,1746.8 M849,1771.8c-3.3,1.8-6,5.2-7,8.9c-0.3,3.6,3.7,4.9,6.4,5.9
			c3.3,1.4,6.9-0.9,8.8-3.6c1.7-1.9,0.2-4.5-0.8-6.4C854.8,1774.1,852.3,1771.1,849,1771.8 M833.4,1799.9
			c-9.5,8.7-20.2,16-29.9,24.5c-7.8,5.9-15.3,12.1-23,18.2c-14,10.5-27.2,22.2-41.4,32.5c-10.3,8.4-20.6,16.7-31.2,24.7
			c-5.4,4.6-11.6,8.1-16.3,13.4c5.1-0.2,9.9-1.8,14.8-2.8c15-2.8,29.9-5.7,44.8-8.6c21.8-4,43.7-7.8,65.6-11.5
			c2-0.4,4.1-0.8,6.1-1.2v-0.2c8.4-1.3,16.8-2.9,25.2-4.7c3-0.3,6-0.9,9-1.4c9.6-1.9,19.3-3.8,29-5.1l1.5-0.4
			c3.4-0.5,6.8-1.1,10.2-1.6c-3.5-5-7.5-9.8-10.5-15.2c-10.9-20.9-21.6-41.9-34.1-61.9c-0.6-0.4-1.8-1.2-2.3-1.6l0,0
			c-3.2-0.6-6.2-1.8-9.4-2.4C838.3,1795.4,835.9,1797.9,833.4,1799.9 M1017.7,1818.7c-17.6,10.9-36.1,20.3-53.3,31.8
			c17.5-9.4,35-19,51.8-29.5c7.9-5.1,16.2-9.7,23.5-15.7C1032.3,1809.7,1025,1814.3,1017.7,1818.7 M825.7,1898.8
			c-11.8,1.7-23.2,5.6-35.1,6.9c-12.3,2.6-24.8,4-37.1,6.8c-10.4,1.8-20.8,3.4-31,5.7c10.3-1.4,20.7-2,30.9-3.5
			c13.1-1.3,26-4.1,39-5.7c9.4-2.5,19.1-3.4,28.5-6c9.9-3.1,20-5.7,29.8-9C842.5,1895.7,834,1897,825.7,1898.8z"/>
		<path class="st2" d="M907,756c0.8,0.1,2.3,0.3,3.1,0.4c-1.3,0.3-2.7,0.6-4,0.9c0,0.6-0.1,1.8-0.2,2.4c-2.7,2.4-5.3,5-8,7.4
			c-1.4,0.4-2.8,0.2-4.1-0.5c0.8,0.1,2.3,0.3,3.1,0.4C899.9,763,902.9,759,907,756z"/>
		<path class="st2" d="M1356.5,1311.8c-1.6-29.8-1.2-59.6,0-89.4V1311.8z"/>
		<path class="st2" d="M145.9,1368.1c3.3-0.8,7-1.4,10.4-0.5c1,6.5,0.3,13.3,0.6,19.9c-0.1,17.8,0.1,35.5-0.2,53.3
			c17.9,0,35.8,0,53.7-0.1c0.3,4.3-1.1,8.4-2.2,12.6c-2.2,0.7-4.4,1.1-6.7,1.1c-16,0.1-32,0-48-0.1c-3-0.1-6.2-0.1-9.1-0.9
			c-1.6-3.4-2-7.2-2-10.9c-0.1-15.7,0-31.3,0-47c0.1-7.7-0.4-15.3,0.6-23C143.2,1370.7,143.9,1368.6,145.9,1368.1z"/>
		<path class="st2" d="M165.7,1377.9c11.2-0.3,22.4-0.2,33.7-0.1c1.2,6.1,0.4,12.4,0.6,18.6c0.1,11-0.1,22.1,0.4,33.2
			c-11.9,0.3-23.8,0.4-35.6,0.1c-0.3-16.1,0.2-32.1,0-48.2C165,1380.4,164.2,1378.4,165.7,1377.9z"/>
	</g>
</g>
</svg>
