<?xml version="1.0" encoding="utf-8"?>
<!-- Generator: Adobe Illustrator 22.0.1, SVG Export Plug-In . SVG Version: 6.00 Build 0)  -->
<svg version="1.1" id="Camada_1" xmlns="http://www.w3.org/2000/svg" xmlns:xlink="http://www.w3.org/1999/xlink" x="0px" y="0px"
	 viewBox="0 0 1356 1952" style="enable-background:new 0 0 1356 1952;" xml:space="preserve">
<style type="text/css">
	.st0{opacity:0.3;}
</style>
<g id="Camada_3" class="st0">
	<g id="_x23_7780acff">
		<path d="M677.3,81.1c-0.2-17.7,0.9-35.5-1-53.2c2.7,5.1,5,10.3,7.4,15.5c11.1,21.5,20.8,43.7,31.3,65.5c-2.7,3.6-7,5.1-10.7,7.5
			c-4.7,2.8-8.8,6.6-12,11.1c-1.6,0-3.2,0.1-4.8,0.1c-3.2-1.2-6.2-2.9-9.5-3.8c-0.4-1.9-0.6-3.8-0.6-5.7
			C677.3,105.7,677.3,93.4,677.3,81.1z"/>
		<path d="M677.1,134.8c16.5,8.1,32.7,16.9,49,25.3c0.6,2.6-0.3,5.4,0.8,7.9c2.5,5.2,7.2,8.9,12,11.8c-1.8,1.2-3.7,2.2-5.9,2
			c-9.4-0.2-18.6-2-28-2.3c-9.2-0.4-18.4,0.6-27.5-1.3C677.2,163.8,677.3,149.3,677.1,134.8z"/>
		<path d="M708.3,135.6c7.5-0.8,14.2,3.1,21.2,4.9l0.4,0.1c1.4,3.2,3.1,6.2,4.3,9.5c-1.3,0-2.4-0.2-3.5-0.7c-7.6-3.2-15-6.9-22.2-11
			C708.4,137.6,708.3,136.3,708.3,135.6z"/>
		<path d="M760.8,154.8c6.8,2.4,13,6.4,19.2,10.1c6.5,4,13.1,8.1,18.4,13.6c1.5,1.4,2,3.4,2.5,5.3c-6.7-3.3-12.2-8.4-18.5-12.1
			c-7.2-4.8-15.9-7.4-22.2-13.7l-0.1-1C760.3,156.5,760.7,155.4,760.8,154.8z"/>
		<path d="M735.6,162c1.1-1.6,1.8-3.6,3.7-4.4c2-0.4,4-0.7,6-1.1c1.5,2.5,3.4,5.8,1.5,8.7c-1.8,3.1-5.8,2.1-8.7,1.6
			C736.9,165.4,736.3,163.6,735.6,162z"/>
		<path d="M741.3,181c5.3-0.1,9.9-3,13.9-6.2c1.4,0.7,2.9,1.5,4.3,2.3v0.3c0,0.4,0.1,1.2,0.2,1.6c4,2.8,8.6,4.9,12.7,7.6
			c0,0.5,0.1,1.6,0.2,2.1c-7.5-0.6-15-1.5-22.3-3.3C747.1,184.6,744.1,182.9,741.3,181z"/>
		<path d="M678.8,190.3c25.9,0.8,51.7,4.8,76.9,11c9.4,2.5,18.5,5.6,28,7.9c2.9,0.6,5.7,1.9,7.7,4.3l0.7,0.9
			c-1.5,0.7-2.8,1.4-4.4,1.8c-1.9,0.4-3.8,0.8-5.5,1.8c-6.9,3.9-14,7.7-21.1,11.2c-1.7,0.9-3.4-0.8-5-1.3c-7.3-4.2-15.7-5.8-24-7.1
			c-9.9-1.7-20-2.7-30-3.5c-6.7-0.5-13.5-1.8-20.1-0.4c-0.5-0.6-1.1-1.2-1.6-1.8c0.3,15.6-0.1,31.2,0.3,46.9
			c3.7,0.3,7.3,1.5,10.4,3.5c0.5,1.4,1.1,2.8,1.7,4.2l0.1,0.1c-5.3,2.8-10.3,6-15.3,9.2c0-15.1-0.5-30.3,0.2-45.4
			c0.3,1.4,0.6,2.9,0.9,4.3C678.5,222.2,678.2,206.3,678.8,190.3z"/>
		<path d="M787.4,228.9c6.1-3.8,12.6-7.1,18.7-11l0.5,0.1c2.3,0.2,4.7,0.4,7,0.6c1.2,3.7,2.1,7.5,1.9,11.4
			c-0.3,5.5-0.1,11.1-0.7,16.6c-5.6-0.7-10.4-4-15.8-5.6c-4.4-1.8-9.8-2.3-13.1-6.1C784.2,232.9,786.4,230.6,787.4,228.9z"/>
		<path d="M828,229.3c9.2,5.8,19.2,10.9,26.2,19.5c2.4,4.6,0.2,10.6-3.9,13.5c-3.7,3.2-8.8,3.3-13.4,3.7c-0.2,13-0.8,26,0,39
			c5.9,5.4,14,8.9,17.9,16.4c1.8,3.2,0.3,7.1-1.7,9.7c-3.5,3.9-8.9,5.4-14,5.2c2.1-4.7,0.8-10.3-2.2-14.3c-2-2.7-4.9-4.4-7.4-6.6
			c-2-1.5-1.4-4.3-1.6-6.4C827.7,282.4,828.3,255.9,828,229.3z"/>
		<path d="M755.2,247.2c7.4-4,14.6-8.5,22-12.5c0.8,2.3,1.6,4.7,1.7,7.2c0.6,12.3-0.6,24.5,0.3,36.8c12.1,3.7,23.6,9.3,35.5,13.5
			c0.5,4.6,0.6,9.3,0.8,13.9c0.5-5.2,0.6-10.3,0.9-15.5c0.7,7.4,0.6,15,0.2,22.4c0.2,3.1-3.2,4.1-5.1,5.6c-4.1-2.6-8.4-4.7-13-6.1
			c-7-2.1-13.7-5.4-20.9-6.3h-0.3c-4.1-5.2-9.7-9.8-16.5-10.5c-1.8-0.3-3.4,0.5-4.9,1.2l0,0c-12.7-1.9-25.3-4.7-38-6.8
			c-8.4-1.9-17.7,0.4-25.2-4.6c0.1-0.4,0.4-1.3,0.5-1.7c0-0.3,0.1-0.8,0.2-1.1l0.1-0.8c9.2-5.3,18.3-10.7,27.8-15.5
			c4.4,1.1,9,1,13.5,1.6c7.2,0.9,14.2,3.4,21.4,4.5C755.6,264,755.6,255.6,755.2,247.2L755.2,247.2z"/>
		<path d="M677.4,310c0-5.3,0.4-10.5-0.1-15.8c0.7,0.6,1.3,1.3,2,2c0.3,3,1,5.8,1.3,8.8c0.3,38.3,0.2,76.7,0.2,115
			c0.2,10.5-3.5,21-1,31.4l0.1,0.4c-1.3,1.9-2.5,3.7-3.7,5.6c2.1-18.7,1.1-37.6,1.2-56.3C677.4,370.7,677.3,340.4,677.4,310z"/>
		<path d="M753.9,314.1c-0.8-5.9,7.6-9.6,11.8-5.7c3,1.8,3,5.4,2.5,8.4c-2.3,2.3-4.9,4.1-8,5.1C757.5,320,753.6,317.9,753.9,314.1z"
			/>
		<path d="M768.3,329.2c2.8-2.2,5.8-4.2,8.9-5.9c0.5,0.3,0.8,0.8,1,1.3c1.2,6.2,1.6,12.6,0.5,18.9c0,2.1-0.9,4.6,0.4,6.4
			c3.3,1.7,7,2.2,10.5,3.5c6.5,2.4,13.6,3.5,19.1,8c-2.2,6.3-3.1,13-5.3,19.3c-8.5,2.6-16.6-2.1-24.5-4.6
			c-0.7,15.4,0.5,30.8,0.7,46.2c3.9,0.9,7.7,2.2,11.3,3.9c-2.1,8-4.6,16-6.4,24.1l-0.3-0.2c-0.4-0.1-1.1-0.4-1.5-0.5
			c-0.4,1.3,0,2,1.2,2.2c-0.5,1.8-1,3.7-1.4,5.5l-0.3-0.2c-1.8-1.7-2.5,2.1-0.3,1.6c-3.1,11.4-6.6,22.6-9.5,34
			c-2.4,8.3-3.9,16.8-7.2,24.8c0.3-6.8,1.6-13.6,1.6-20.5c0.2-42.7-0.2-85.3-0.3-128c-0.1-10.7,0.5-21.3-0.3-31.9
			C766.1,334.4,765.8,331.1,768.3,329.2z"/>
		<path d="M820,324.7c3.3-3,8.7,0.9,9,4.4c-0.2,1.3-0.2,2.7,0.7,3.8l0.4,0.7c-2.3,2.2-5,4.5-8.2,5.1c-3.2-0.1-4.4-3.8-6.3-5.8
			C815.6,329.6,817.1,326.5,820,324.7z"/>
		<path d="M750.2,345.3c2.3-3.7,3.8-8,6.9-11.2c-0.9,4.3-0.9,8.6-1,12.9c-1,14-0.5,28-0.6,41.9c-0.2,9.9,1.3,19.9,0.1,29.8
			c-0.9,8-1.5,16-0.9,24c-16.1,0.1-32.1-1.6-48.1-2.5c-1.8-0.2-3.4-1.2-5-2c4.5-8.1,8.1-16.6,12.6-24.7c-0.2-0.2-0.7-0.7-1-1
			l-0.5-0.5l0.9-0.4c2.7-1.1,5.3-2.8,8.3-2.3c11.2,1.8,22.3,4,33,7.4c-0.9-10.3-0.1-20.6-0.2-30.9c0-6.3-0.2-12.6-0.2-19
			c-4.5-2-10.2-0.8-13.9-4.5C743.5,356.6,747.1,351.1,750.2,345.3z"/>
		<path d="M682.2,335.2c17-0.1,33.9,1.4,50.8,3.3c2.8,0.1,5.2,1.5,7.2,3.4c-4.1,7.3-8.3,14.4-12.2,21.8l-0.2-0.1
			c-2.2-0.9-4.5-1.5-6.8-1.7c-8.7-0.7-17.3-1.7-26-2.3c-4.1-0.3-8.3-0.3-12.3-1.4C682.1,350.6,682.2,342.9,682.2,335.2z"/>
		<path d="M826.2,348c3.6-1.3,7.1-3.1,9.7-6c1.8,11.1-1.3,22.5,1.5,33.5c4.3,6.7,12.7,9.3,17.2,15.8c1.5,4.4,0.7,10.2-3.4,13
			c-5.9,4.3-13.6,5.5-18.9,10.8c0.1,0.4,0.3,1.3,0.5,1.8c-4.1-3.1-8.4-6-12.1-9.6c0.7-1.2,0.5-2.4-0.4-3.4c0.4-2.2,1.1-4.5,0.8-6.7
			c-1.2-4.1-4.6-6.8-7.3-9.9c-1.4-1.2-0.4-3.1-0.1-4.5c3.4-9.9,5.8-20.1,9-30C823.3,350.8,824.1,348.6,826.2,348z"/>
		<path d="M682.3,407.9c5.2-0.9,10.4-1.5,15.6-1.7c2.3,6.1-2.7,11.3-3.4,17.1c-1.2,4.5-4,8.5-6.3,12.6c-1,0.3-2,0.5-3,0.8
			c-1.6-1.4-3.2-2.6-5-3.7C680.4,424.5,681,416.1,682.3,407.9z"/>
		<path d="M814.9,421.4c2.4-0.9,4.3,1.1,6,2.3c7,5.7,14.1,11.4,20.7,17.5c9.2,7.5,18.4,15,27.1,23.1c3.5,3.2,7.8,5.9,9.4,10.5
			c-8.3-0.9-14.5-8.2-22.9-8.7c-4.8,1.8-7.3,6.8-11,9.9c-2.6,2.7-6.7,4.6-7.6,8.6c-0.7,2.5,0.2,6.2,3.4,6.4c6,0.9,12.1,0.3,18.1,0.5
			c12-0.2,24,1.2,36,0.6c4.3-0.4,8.5,1,12.8,0.6h0.4c1.7,1.6,3.7,3.7,2.9,6.3c-0.6,4-4.6,6.1-8.2,7.2c-10.4,3.3-20.8,6.6-31.3,9.3
			c-7.5,0-15.2-0.2-22.6,1.6c-3,0.4-2.4,4.3-3.1,6.4l-0.1,0.3c-14.9,4.2-29.8,8.7-44.5,13.7c-7.7,2.9-15.5,5.3-23.5,6.8
			c-2.5,0.3-5.5-0.8-6-3.5c1.5-0.2,1.6-0.7,0.3-1.6c-0.3-3,1.7-5.8,2.3-8.6c9.7-33,17.6-66.5,27.8-99.4l0.5-0.1
			c1.6-0.5,3.2-1,4.8-1.7C810,427.6,810.9,422.6,814.9,421.4 M799.9,484c2.5,1.7,5.1,3.6,8.1,4.1c4.2,1,6.6-7.1,1.9-7.7
			C806.3,480,802.5,481.4,799.9,484z"/>
		<path d="M870.2,443.4c12.8,7.5,25.6,15.2,37.3,24.3c6.5,5.1,13.4,10.1,17.6,17.4c-2.8-0.3-4.9-2.3-7.1-3.9
			c-13-8.9-25.1-19.1-37.5-28.7C876.8,449.8,873,447,870.2,443.4z"/>
		<path d="M559.3,448.3c1.5-0.1,3.1-0.2,4.6-0.3c0,2.1,0.1,4.2,0.1,6.3c-1.5-1.1-2.9-2.3-4.4-3.4c-0.1-0.7-0.2-1.3-0.2-2
			L559.3,448.3z"/>
		<path d="M754.8,470.6c0.8-7-0.2-14.1,0.6-21.1c1.2,27.5-0.7,55,1,82.5c0.3,3.2-0.1,6.4-1.1,9.4c-7.5-3.7-13.4-9.7-19.3-15.5
			c-13.2-12.5-27.4-24-40.9-36.1c-4.9-4.4-10.2-8.4-15.3-12.6c-2.6-2,0.8-4.9,1.5-7.1l0.4-0.1c7-2,14.3-1.7,21.4-0.9
			C720.3,470,737.6,473.1,754.8,470.6z"/>
		<path d="M918.5,503.7c0.2-4.4,5.2-7.7,9.3-6.6c1.1,0.8,2,1.8,3,2.7v0.1c-0.9,2.3-1.5,4.6-1.9,7.1c-0.9,0.5-1.9,1-2.8,1.6
			c-1.4-1-2.9-1.9-4.3-2.9c-0.1,0.5-0.5,1.5-0.6,2.1l-0.1,0.4C920,506.8,918.6,505.5,918.5,503.7z"/>
		<path d="M678.1,500.7c1.9-1.2,3.8-2.4,5.8-3.6c5,3.4,8.9,8.4,14.6,10.8l0.5,0.2l0.3,0.5c2.7,5.1,7.5,8.5,11.9,12
			c3,2.5,7,4.4,7.8,8.5c-13.8-0.1-27.8,0.5-41.5-1.7c-0.1,1.7-0.2,3.4-0.3,5.1c9.3-0.6,18.5-0.4,27.8,0.3c6.3,0.4,12.7-0.3,18.9,0.9
			c3.1,0.6,5.2,3.1,7.5,5c2.6,2.4,5.8,4.1,8.5,6.5c2.4,2.2,3.8,5.1,5.2,7.9c-2.5,7.5,3.6,13.9,9.5,17.5c3.2,2.2,7.3,1.3,10.8,0.5
			c16.1,23.8,31.2,48.4,47.2,72.4c8.8,13.5,17.8,26.9,26.2,40.6c-1.6,0.7-3.2,1.9-5,1.4c-4.5-0.8-8.8-2.6-13.1-4.1
			c-9.3-3.3-19.1-5-28.6-7.3c-8.3-2-16.9-3-25.3-4.5c-11.6-2.1-23.4-2.7-35.1-3.4c-9.6-1-19.2-1.8-28.8-2c-8-1-16.2,0-24.1-1.7
			c0.1-5.7,0.6-11.4-0.9-17c-0.6-3.2-0.3-6.4-0.4-9.6c-0.2-40.6-0.3-81.3-0.2-121.9c0-5.1-0.4-10.3,0.4-15.4
			C677.6,499.2,677.9,500.2,678.1,500.7z"/>
		<path d="M895.3,520.2c3.5-1,7.1-1.9,10.6-3.1c2.6,1.1,4.6,3,5.5,5.7c-0.3,1.9-1.7,3.3-2.6,4.9c-4.1,6.1-7.5,12.7-11.8,18.6
			c-3,2.3-6,4.5-8.8,7c-5.9,5.3-13.9,6.9-20.7,10.6c4.6,2.4,9.4,4.5,13.2,8.1c-2.9,5.5-6.7,10.4-9.2,16
			c-17.8-5.1-34.8-12.5-52.3-18.4c-10.7-3.7-21.4-7-32-11.1c-2.8-1.3-5.9-2.1-8-4.3c10.3-2.1,20.2-5.8,30.2-9
			c12.4-3.1,24.8-6.6,37-10.2c2.4,2.1,4.5,4.5,7.2,6.4c4.5-0.1,8.5-2.7,12.6-4.2c8.9-3.5,16.9-8.9,25.2-13.7c1.4-0.8,2.5-2,3.6-3.2
			L895.3,520.2z"/>
		<path d="M509.4,551.5c19.3-6.3,39-11.2,58.8-15.2c0.4,0.5,1.3,1.6,1.7,2.1c1.9-0.4,3.9-0.9,5.8-1.3c-1,1.2-2,2.5-3,3.7
			c-18.5,3.3-36.9,7-55,12c-11.8,2.9-23.3,7.3-35.3,9.4l1.2-0.7C491.8,557.2,500.8,554.6,509.4,551.5z"/>
		<path d="M753.9,553.4c1.7-2.4,3.1-5.6,6.2-6.5c3.8-0.4,6.5,3.1,8.1,6.1c1.5,3.3-1.8,6.1-4,8.1
			C759.3,564.1,753.4,558.4,753.9,553.4z"/>
		<path d="M774.6,564.9c14.6,6.4,29.9,11.1,44.8,16.6c27.6,10.2,55.5,19.8,83,30c3.3,1.5,7.7,2.4,8.8,6.3c1.2,3.4,2.4,6.9,4,10.2
			c-12.2,19.5-23,39.8-34.1,60c-2.1,3.6-4.1,7.3-6.5,10.6c-4.9-1.2-10-1.8-15-2.7l-0.3-0.1c-22.1-35.1-45.1-69.6-67.6-104.4
			C786.2,582.4,779.8,574,774.6,564.9z"/>
		<path d="M880.5,592.4c3.4-5.2,7-10.3,10.3-15.5c2.3,0.5,4.7,1.2,6.5,2.8c5.1,4.3,10.3,8.4,15.9,12.1c3.2,2,5.3,5.1,7.5,8
			c-2.5,1.4-4.6,4.1-7.5,4.4C902.3,599.9,891.6,595.6,880.5,592.4z"/>
		<path d="M922.3,635.2c-0.6,30.6-0.2,61.1-0.5,91.7c-0.2,5.1,0.3,10.4-1.9,15.2c-4.8,0.1-8.7-3.2-12.9-5.1c-7-4.3-14.4-8.2-21-13.1
			c-0.3-3.4,1-7.4-1.5-10.2c-1-1.5-2.5-2.9-2.9-4.7c0.9-3.4,3.7-6,5.3-9.1C899,678.5,910.6,656.8,922.3,635.2z"/>
		<path d="M931.8,645.5c5.7,1.8,10.9,4.5,16.4,6.8l-0.1,0.3c-0.7,2-1.9,3.8-3.3,5.4c-3.9-1.6-7.8-3.4-11.6-5.2
			C932.4,650.4,932,648,931.8,645.5z"/>
		<path d="M678.3,672.3c17.3,0.2,34.4,2.3,51.7,2.3c9.7,1,19.5,0.5,29.2,2c16,2.1,32.1,3.5,47.7,7.6c13.2,2.5,26.6,4.8,38.7,10.8
			l0.4,0.2c3.6,5.6,7.7,11,10.5,17.2c-9.5-1.2-18.9-2.2-28.3-3.9c-3.2-0.6-6.5-0.4-9.8-0.7c-2.6-1.7-2.6-5.4-4.3-7.8
			c-3.6-5.2-9.6-9.3-16.2-9.1c-5.4,1.1-10,4.9-13.3,9.2c-1.4-1.2-2.9-2.6-4.8-2.8c-7.4-1.1-14.4-3.8-21.8-4.2
			c-7.2-0.4-14.3-2.3-21.6-1.6c-19.5-3.3-39-6.5-58.3-10.5v-0.5C678.2,677.8,678.3,675.1,678.3,672.3z"/>
		<path d="M795.7,701.6c5-3,12.6,1.6,11.4,7.5c-0.5,4.1-4.7,5.8-8.1,7c-3.7,0.1-5-4.1-7.1-6.4C791.7,706.6,792.7,703.2,795.7,701.6z
			"/>
		<path d="M860.1,720.3c2.1-4,6.8-7.7,11.5-6.8c1.9,2.2,3.5,4.6,5.7,6.7c-1.2,3.5-3.4,6.7-6.3,8.9
			C865.8,729.5,862,724.7,860.1,720.3z"/>
		<path d="M630,728.6c12.2,0.5,24.4-2.6,36.5-0.1c-4,1.2-8.3,0.8-12.4,1c-20.4,0.8-40.8,1.7-61.1,4c-6.2,0.7-12.4,1.8-18.7,1.9
			c3.4-1.5,7.1-2.7,10.8-2.6c8.1-0.1,16-2.2,24-2.9C616.1,729.4,623,728.3,630,728.6z"/>
		<path d="M679.5,729.4c4.5-1,9-1.1,13.6-0.5c8.6,1.3,17.3,0,25.9,1.1c7,0.9,14.1,0,21.1,0.8c8.6,1,17.4,1.5,25.9,3.2
			c2.8,0.4,5.1,2.1,7.3,3.8c-1.9,3-3.9,5.9-5.6,9h-0.3c-10.7-0.9-21.5-1.6-32.2-2.9c-5.7-0.7-11.5-0.1-17.1-0.9
			c-6.6-0.9-13.3-0.1-20-1.1c-6.1-0.8-12.7-0.2-18.4-2.6C677.4,736.4,679,732.6,679.5,729.4z"/>
		<path d="M786.3,735h0.2c7.3,1,14,4.2,20.7,7c2,4.1,3.1,8.5,4.8,12.8c-4.5-0.1-9.2,0.3-13.5-1c-5.8-1.9-12.1-2.8-17.3-6.3
			c0.1-1.6,0.3-3.2,0.4-4.8C782.9,739.9,784.8,737.5,786.3,735z"/>
		<path d="M818.9,744.6c6.2-2,12.7,0.2,18.8,1.6c18.8,5.7,37.5,12,55.6,19.9c1.3,0.7,2.7,0.9,4.1,0.5c0.8,1.2,1.6,2.4,2.4,3.6
			c-2.8,3.1-6.3,5.6-8.5,9.2l-0.1,0.2l-0.1,0.1c-3.7,1.4-7.9,4.8-11.8,2c-11.4-7.6-24.6-11.6-37.5-15.6c-5.6-1.6-10.8-4.2-16.4-5.7
			l-0.3-0.1l0.1-0.6c0-0.1,0-0.2,0-0.3C822.1,755,821.2,749.5,818.9,744.6z"/>
		<path d="M677.3,755.7c14.2-1.7,28.5-1.6,42.7-0.2c7.3-0.3,14.6,0.9,21.9,1.2c5.7,0.2,10.9,2.8,16.3,4.3c-1.7,2.9-3.7,5.7-5.6,8.5
			l-0.7-0.1c-9.2-1.4-18.6,0-27.9-1c-9.3-1.3-18.7-0.1-28-1.1c-6.2-0.6-12.4-0.9-18.6-1.9C677.2,762.1,677.2,758.9,677.3,755.7z"/>
		<path d="M769.9,760.4l0.2,0.1c6.7,2.4,14-0.1,20.8,1.8c7.4,1.9,15.4,1.1,22.4,4.4c2.4,2.3,3.4,5.6,5.4,8.2c0.5,1,1.4,1.9,1.2,3.1
			c-0.8,2.2-2.1,4.8-4.9,4.5c-8.8-0.6-17.4-3.1-26.1-4.4c-9.1-1.5-18.3-3-26.9-6.5C764.4,767.7,767.3,764.1,769.9,760.4z"/>
		<path d="M828.2,768.3c1.8,0.8,3.7,1.5,5.7,2.1c10.9,2.9,21.4,7.1,32.1,10.5c5,2,11.6,3.2,13.6,8.9c-3.4,3.5-7.4,6.4-10.8,9.9h-0.2
			c-11.4-2.6-22.1-7.6-33.1-11.6l-0.3-0.1C833.2,781.3,830.7,774.8,828.2,768.3z"/>
		<path d="M894.3,792.5c2.6-0.6,5.1-1.5,7.6-2.5c-0.2,2.8-0.4,5.7-1.7,8.3c-4.3,8.2-3.6,17.8-3.9,26.8c-0.3,28.3,0.5,56.7,0,85
			c-0.1,10.6,0,21.3-1.2,31.8c-0.5-0.2-1.5-0.5-1.9-0.7c-3.7-8.3-6.6-17-9.9-25.5c-3.1-9-6.9-17.8-9.9-26.9c1.2-2.5,0.5-5.3,0-7.9
			c-3.1-16.8-1.4-34-1.8-51c-0.3-6.6,0.9-13.2,1.8-19.7V810c6.7-6.1,13.5-11.9,20.6-17.6L894.3,792.5z"/>
		<path d="M787,808.8c3-1.1,5.8-2.7,8.9-3.5c6.2,1.5,11.4,5.7,16.7,9.1c4.6,3.5,11.5,6.6,11.1,13.5c-2.8-0.8-5.7-1.6-8-3.4
			c-6-4.4-12.1-8.7-18.6-12.3c-1.4-1.1-3.1,0-4.5,0.6c-5.8,2.8-11.9,4.9-18,7c-6.8,2.3-14.1,1.9-21.1,3c-0.3,10.1,0,20.2-0.1,30.3
			c0.3,9.3-1.5,18.6-0.6,28c0.9,8.6,0.6,17.3,0.8,26c0.1,3.5-0.3,6.9-1.3,10.2c-2.9-0.8-5.7-1.8-8.5-2.5v-0.4
			c0.9-5.1-0.4-10.3-0.3-15.4c-0.3-28.5-0.3-57,1.1-85.4c5.2-0.5,10.2,0.6,15.4,0.7C769.2,813.5,778.4,812,787,808.8z"/>
		<path d="M836,826.9c-1.2-3.9,1.5-9.4,6-9.1c2.7-0.3,4.6,1.8,6.6,3.3c-0.6,2.4-1.1,4.9-1.3,7.4c-2.1,1.3-4.2,2.8-6.2,4.3
			C839.3,830.9,837.1,829.3,836,826.9z"/>
		<path d="M761.7,847c0.2-5.2-0.5-10.5,0.8-15.7c7.9,0.1,15.9,0.4,23.8,1.4c0.6,11.2,0,22.4,0.1,33.6c-8,0.1-16-1.5-24.1-2
			C761.2,858.7,761.9,852.8,761.7,847z"/>
		<path d="M801.5,835.4c8.4,0.3,16.8,1.7,25.2,2.1c-1.7,11-0.4,22.2-1.6,33.3c-7.8,0-15.7-0.4-23.4-1.6
			C801.3,857.9,801.5,846.6,801.5,835.4z"/>
		<path d="M836,842.4c1.2-0.2,2.3-0.4,3.5-0.6c2.8,13.9,1.4,28.1,2.8,42.1c0.6,13.3,0.1,26.7,0.2,40.1c0.1,6.1-0.6,12.1-1.1,18.2
			c-9.8-3-19.5-6.2-29.3-9c-2.2-0.6-4.4-0.6-6.6-0.7c-4.9-0.7-9.4-2.6-14.2-3.7c-0.5-1-0.9-2-1.3-3c2.4-0.5,4.9-1.4,7.4-0.8
			c12.8,3.2,26.1,4.7,39.2,5.9c-0.2-22.3,0.4-44.5-0.1-66.8C836,856.8,835.4,849.6,836,842.4z"/>
		<path d="M762.4,877.2c8.1,0.5,16.3,0.8,24.2,2.4c-0.3,11.5,0.4,23.1-0.6,34.6c-3.8-1.2-7.4-2.8-11.1-4.2c-4-1.5-8.3-0.1-12,1.5
			C761.7,900.2,762.6,888.7,762.4,877.2z"/>
		<path d="M801.8,881.3c7.8,1.6,15.9,1.5,23.7,3.2c-0.2,6.5-0.1,13-0.2,19.5c-0.1,4.6,0.3,9.2-0.9,13.7c-7.6-0.9-15.4-0.8-22.8-2.6
			C801.2,903.8,801.5,892.5,801.8,881.3z"/>
		<path d="M766.1,933.8c-1.8-4.6,3.3-7.6,5.7-10.8c4.7,0.9,9.2,5,9.5,9.9c-1.7,2.6-4.4,4.4-7.1,5.8
			C770.7,939.4,768.1,936.2,766.1,933.8z"/>
		<path d="M872.4,933.7c0.8-0.6,1.5-1.3,2.3-1.8c1.2,4.2,2.5,8.5,4,12.6c0.4,1.5,1.8,2.4,3,3.3l0.3,0.2c0.9,2.6,1.5,5.3,2,7.9
			c-2.8-0.4-5.6-1-8.2-2.3c-0.9-1.4-2-2.8-2-4.5C873.5,943.9,873.7,938.7,872.4,933.7z"/>
		<path d="M873.7,978.7c3.4-1.2,7.1-4.5,10.6-2c2.9,1.8,6.4,4.4,6,8.3c0.2,41-0.2,82,0.1,123c-0.1,3.6,0.2,7.2-0.4,10.8
			c-1.9,2.5-5,4.3-8,5.2c-8.5-3.5-16.7-8.1-25.7-10.5c-1.7-0.3-2.1-2-2.3-3.4c-1-8.1-8-14.9-16-16c-5.3-0.6-9.8,2.8-13.3,6.4
			c-3.7-0.3-6.8-2.6-10.2-3.9c-25.9-11-52.3-21.1-78.3-31.8l-0.1-0.3c-0.3-1.4-0.6-2.7-1-4.1c4-3,9.1-3.7,13.9-2.9
			c17.3,1.8,34.6,3.9,51.7,6.9c17.7,2.4,35.1,6.3,52.3,11.1c2.3,0.6,4.6,1,6.9,1.4c-8.7-3.7-17.7-6.4-26.7-9.4
			c-31.4-10.9-64.7-14-97.4-18.5c-9.9-1.3-20.1-0.1-29.7-3.2c-3.7-1-7.6-1.5-11.1-3.1c4.9-2.2,9.9-4.3,15.2-5.5
			c4.1,0.3,7.8-1.5,11.7-2.4c11.7-1.6,23.3,0.9,35,1.8c19.5,1.6,38.8,4.5,58,8.2c18.9,4.2,37.6,9.4,55.5,16.7
			c1-21.5-0.8-43,0.8-64.5C871.6,990.9,872.1,984.7,873.7,978.7z"/>
		<path d="M677,1052.4c6.2,1.8,11.8,5.3,17.8,7.7c16.9,7.5,34.2,13.8,51.3,20.7c18.1,7.7,36.6,14.8,54.9,22c6.9,3,14.1,5.2,20.3,9.5
			c-2.2,3.6-6.4,5.1-9.8,7.4c-16.8,9.8-33.5,19.8-50.4,29.5c-7,3.9-13.5,8.5-20.2,12.9c-3.4-2.1-6.8-4.8-11-5
			c-6.4-0.9-11.7,4-15.2,8.8c-2.5,3.1-2.5,7.2-3,10.9c-0.4,2.6-3.2,3.7-5.2,4.9c-10,5.6-19.5,11.9-29.6,17.2
			c0.6-22.3,0.4-44.5,0.5-66.8C677.4,1105.5,677.4,1079,677,1052.4z"/>
		<path d="M829.1,1109.9c2.3-3,5.4-8.6,9.8-5.8c2.6,1.1,5.5,4.3,4.8,7.1c-1.3,1-1.1,1.5,0.4,1.6c-1.5,3.5-5.3,7.5-9.3,5.4
			C831,1117.1,829.9,1113.3,829.1,1109.9z"/>
		<path d="M847.8,1122.7c9.9,1.6,18.9,6.5,28.2,10.3c4.3,1.4,3.2,6.8,5.1,10c2.5,3.7,6.1,6.6,10,8.8c-0.9,24.4-0.6,48.8-0.8,73.2
			c-0.1,10.1,0.7,20.1,0.5,30.2c-6.5-20.7-12.9-41.4-20.1-61.9c-6.5-19.7-14-39.1-20.1-58.9C849.5,1130.5,847.6,1126.8,847.8,1122.7
			z"/>
		<path d="M822.6,1125.7c1.6-0.8,3.5-1.8,5.3-0.7c4.2,1.8,9.4,3.5,10.7,8.5c7.1,19.5,13.3,39.2,20,58.8
			c6.2,17.8,11.9,35.9,18.3,53.7c3.1,9.1,6.4,18.1,9.2,27.3c-7.5-4.5-14.2-10-21.5-14.8c-32.9-22.2-65.9-44.3-98.9-66.3
			c-7-5-14.9-9-20.8-15.4c0.2-1.6,0.2-3.3,1.5-4.5c5-5.3,11.6-8.6,17.8-12.3C783.7,1148.8,803,1137.1,822.6,1125.7z"/>
		<path d="M722.3,1171.3c1.6-2.4,4.4-5.2,7.6-4.1c3.2,0.6,6.1,3.4,6.3,6.7c0.3,3.1-2.5,5.1-4.3,7.2
			C726.6,1182.8,719.1,1176.8,722.3,1171.3z"/>
		<path d="M678,1210.4c13.8-7.8,27.3-16,41.1-23.8c0.1,3.7-1.8,7-2.8,10.5c-3.9,12.3-7.1,24.9-11.5,37c-1.4,2.3-2.6,4.7-3.3,7.3
			c-3.9,12.5-7.8,25-11.3,37.7c-0.8,2.8-2,5.5-3.4,8c-3.7-1-8.1-2.2-9.2-6.4c-0.1-19.2,0.1-38.4-0.3-57.7
			C677.5,1218.8,676.4,1214.4,678,1210.4z"/>
		<path d="M728.1,1197.1c1.3-5.7,8.6-11,14.1-7.3c42.2,28.6,84.4,57.1,126.8,85.3c3.9,2.9,8.4,5,11.5,8.9c-0.3,2.2-2.8,3.1-4.5,4.2
			c-1.6,0.6-3.3,1.9-5.1,1.7c-4.3-2.3-9.1-3.3-14-3.2c-29-0.2-57.9,0-86.9-0.1c-16.7-0.2-33.4,0.3-50-0.7
			c-5.7-0.2-11.4,0.2-16.9-1.3c1.5-3.9,3.6-7.9,2.6-12.2C712.3,1247,720.3,1222,728.1,1197.1z"/>
		<path d="M598,1267.3c17,4,33.9,8.2,50.9,12.4c4.4,1,8.8,2.1,12.8,4c-4.3,1.2-8.9,0.7-13.3,0.9c-11.5-2.9-22.7-7.4-34.1-10.9
			C608.8,1271.5,603,1270.4,598,1267.3z"/>
		<path d="M171.6,1297.1c9.4-2,19-1.4,28.5-1.5c6.3,0.1,12.4,1.8,18.5,3.2c5.3,1.3,10.8,1.3,16.1,2.7c-10.5,0.7-21-1.4-31.6-1
			c-22.6-0.5-45.1,0.5-67.6,2.8c1-0.5,2-0.9,3-1.3C149.5,1300.1,160.7,1299.9,171.6,1297.1z"/>
		<path d="M677.7,1296.4c0.8,0.1,2.3,0.2,3,0.3c-0.1,1-0.2,2-0.3,3c0.6,0.3,1.3,0.7,1.9,1c-0.8,2.4-1.5,5.1,0.3,7.3
			c-1.9,7.2-3.7,14.4-6.3,21.3C675.5,1318.4,677.3,1307.4,677.7,1296.4z"/>
		<path d="M697.1,1302.4c6.1-0.3,11.6,2.5,17.3,4.4c13.4,4.7,27.1,8.6,40.5,13.4c4.6,1.5,9,4.9,14.1,3.9
			c-13.1,5.1-26.7,9.1-39.9,13.8l-0.3-0.1c-13.1-4.9-26.7-8.2-40-12.4c0.8-2.6,1.6-5.2,2.4-7.7l0.3-0.1c0.3-0.1,0.9-0.4,1.1-0.5
			C694.6,1312.3,696.2,1307.4,697.1,1302.4z"/>
		<path d="M737.1,1346.2c15.3-5,30.7-9.5,45.8-15.2c2.7,1.1,4.5,3.3,5.6,5.9c-3.1,3-5.2,6.7-7.4,10.4c-22.6,1.5-45,5.2-67.6,6.4
			C721.6,1352,729.2,1348.7,737.1,1346.2z"/>
		<path d="M685.6,1336.6c1.5-1,3-2,4.5-3c7.4,1.4,14.6,3.5,22,4.8c2.3,0.3,4.2,1.5,6,2.9l0.3,0.2c-6.5,2.2-12.9,4.3-19.3,6.6
			l-0.4-0.2c-4.1-1.8-8.5-2.8-13-3.4c-0.4-1.3-0.9-2.7-1.3-4c0.3-1.2,0.6-2.4,0.9-3.6L685.6,1336.6z"/>
		<path d="M796.2,1343.2c4.8-0.3,9,3.5,10.7,7.8c-1,2.5-3.2,4.2-5.3,5.8c-1.6,1-3.5,2.6-5.4,1.3c-2-1.9-3.6-4.1-5.1-6.4
			C790.6,1348.2,793.3,1344.9,796.2,1343.2z"/>
		<path d="M815.2,1347.8c4.1,0.4,6.7-3.8,10.8-3.5c6.4-0.9,11.4,3.8,17.2,5.5c16.2,6.3,33.4,10.2,49,18c11,4.4,22.4,7.5,33.7,11
			c5,1.6,10.3,2.7,14.6,5.9c-5.7-0.6-11-3.1-16.6-4.3c-34.2-10-68.5-19.2-102.8-28.7c-2.4-1-5.7-1.1-6.6-3.9H815.2z"/>
		<path d="M809.8,1362.4c1.8-1.3,3.8-3,6.1-1.7c12.9,4.1,26,7.8,39,11.8c3.8,1.3,7.8,1.9,11.3,3.9c-3.8-0.4-7.6-1-11.1-2.3
			c-2.5-0.8-5-2-7.8-1.8c-4.2,0.4-8.2-1.2-12.3-1.7c-5-0.6-9.5-2.7-14.3-3.8C816.8,1366,813.3,1364.2,809.8,1362.4z"/>
		<path d="M735.4,1361.7c1.2,0,2.5-0.1,3.7,0.2c2.9,0.9,5.9,1.4,8.9,1.4c12,0.3,24,1.5,36,2.7c-0.6,1.1-1.2,2.3-1.9,3.5
			c-1,0.7-1.8,1.8-3.1,1.9c-12,0.1-23.2-5-35-5.5c-4.7-0.2-9.4-0.5-14-1.3c1.3-0.1,2.7-0.2,4-0.3c0.3-0.5,0.9-1.5,1.2-2
			L735.4,1361.7z"/>
		<path d="M678,1366.4c12.5,0.6,24.9-2.3,37.3-2.4c3.1,1.7,6.3,3.3,9.8,4c8.2,1.8,16,4.9,23.8,7.9c8,3.6,17.8,4.1,23.9,11.1
			c-1.2,2.3-2.3,4.6-3.2,7l-0.3-0.1c-0.6-0.3-1.8-1-2.4-1.3c-0.4,0.4-1.3,1.3-1.7,1.7c-10.7-4-21.7-6.7-32.5-10.1
			c-12.4-4.3-24.8-8.4-37-13.1c-5.8-2.4-12.4-0.8-18.2-3.3C677.8,1367.4,678,1366.8,678,1366.4z"/>
		<path d="M795.7,1368.6c0.9-1.2,2.5-1.3,3.9-1.7c1.3,1.6,2.4,3.6,4.4,4.3c4.3,1.7,8.6,3.3,12.9,5c22,7,44.1,13.9,66.1,21
			c16.9,5.3,33.7,11,50.1,17.8c9.9,3.5,19.9,6.4,29.6,10.4c-7.4,3.2-15,5.7-22.5,8.5c0.2-0.5,0.6-1.5,0.8-2.1
			c-7.3-4-15.5-6-23.4-8.7c-19-6.8-38.5-12.4-57.6-19c-11.2-3.8-22.4-7.5-33.5-11.6c-12.4-4.5-25.6-7.4-37.2-13.8
			C791.2,1375.3,793.1,1371.7,795.7,1368.6z"/>
		<path d="M1.4,1368.6c0.9,9.4,1.4,18.8,2.7,28.2c-0.8,0.3-1.5,0.5-2.3,0.8c-0.4-2.2-1-4.4-1.7-6.5v-3.5
			C1.1,1381.3,1.5,1374.9,1.4,1368.6z"/>
		<path d="M867.1,1380.4c6.6,0.2,12.8,3.1,19.2,4.4c15.4,4.4,31.1,7.7,46.3,12.8c8,2.5,15.8,5.6,23.7,8.2c11,4.2,22.9,5.4,33.9,9.8
			c-3.1,1.1-6.1,2.3-9.1,3.7l-0.4-0.2c-4.8-3.2-10.8-3-16.2-4.4c-12.5-3-25.1-6-37.4-10c-9.5-3.3-19-7-28.6-10.1
			c-7.8-2.2-15.7-4.2-23.5-6.6C871.4,1386.8,869.3,1383.3,867.1,1380.4z"/>
		<path d="M785,1386.4L785,1386.4c11.9,4.8,23.9,9.5,36,13.6c20.1,7.4,40.7,13.5,60.7,21.3c10.7,3.7,21,8.5,32.2,10.4
			c5.4,1.1,10.1,3.9,15.2,5.7c-5,2-10.1,3.7-15.2,5.3c-4.1-2.2-8.8-2.2-13.3-3.1c-10.7-2-20.8-6-31.1-9.2
			c-26.8-8.3-53.1-18.5-79.7-27.4c-3.8-1.1-7.5-2.9-10.6-5.3C781.1,1394,783.2,1390.3,785,1386.4z"/>
		<path d="M1011.3,1406.2c4.7-0.5,9.4,4.1,8.6,8.8c-2,3-5,6.7-9,6.4c-2-1.8-3.7-4-5.1-6.2C1003,1411.3,1008.2,1407.7,1011.3,1406.2z
			"/>
		<path d="M1025.2,1424.3c1.2-1.3,2.8-2.9,4.9-2.1c12.2,3.5,24.2,7.3,36.5,10.3c12.2,3,24.2,6.9,36.5,9.9l-0.2,0.4
			c-0.8,1-0.7,2.4,0,3.4l0.2,0.5c-4.5,3.1-8.9,6.3-13.7,9c-5.9,0.3-11.2-2.5-16.6-4.1c-7.3-2.3-14.5-5-21.7-7.4
			c-9.9-3.3-20.1-5.6-30.1-8.9c-2.3-0.8-4.3-2-6.3-3.2C1018.1,1429.3,1022.2,1427.5,1025.2,1424.3z"/>
		<path d="M994.5,1431.5c2.3,0.2,4.4,1.1,6.6,1.7c-2.3,4.8-4.4,9.5-6.7,14.3c-6.4-2.1-13.2-2.9-19.6-5.3c-4.3-1.7-8.8-2.6-12.9-4.8
			c3-1.3,6-2.8,9.3-3.2c6.8,0.5,13.7-0.3,20.5,0.9C992.7,1433.9,993.5,1432.7,994.5,1431.5z"/>
		<path d="M1115.5,1439.2c1,0.2,2,0.3,3,0.5c2.6,0.2,3,3.5,4.2,5.4c-2.1,0.5-4.3,0.9-6.4,1.6l-0.3,0.1c-0.2-0.2-0.7-0.6-0.9-0.8
			c0.9-0.9,1.7-1.9,2.4-2.9C1117.1,1441.5,1116.2,1440.4,1115.5,1439.2z"/>
		<path d="M931.3,1448.3c3.8-1.7,7.8-2.8,11.8-4c4.9,1.9,10.3,0.6,15.1,2.8c5.2,2.2,10.4,4.5,15.8,6.1c3.9,1.3,8,2.1,11.5,4.4
			c1.9,1.2,1.5,3.7,1.5,5.6c0,0.4,0,1.3,0,1.8l-0.8,0.4c-2.2,0.9-4.5,2.4-6.9,1.6c-6.8-1.8-13.3-4.4-20.1-6.2
			c-7.1-2.4-14.5-4.2-21.1-7.8c-2-1-4.2-1.4-6.3-1.7C931.6,1450.1,931.4,1449.2,931.3,1448.3z"/>
		<path d="M1007.7,1444.4c1.9-0.9,4-1.2,6-0.4c13,3.7,25.9,7.8,38.7,12.4c7.2,2.6,15.1,3.9,21.4,8.7c-3.8,2.8-7.7,5.4-11.9,7.7
			c-6.8-3.2-14.2-4.7-21.2-7.5c-12.2-4.5-25.2-6.8-37-12.4C1004.9,1450,1006.1,1447.1,1007.7,1444.4z"/>
		<path d="M1130.6,1453.8c3.3-1.8,6.9,0.4,10.3,1c22.5,6.8,44.6,15,67,22.3c20.7,6.7,41.4,13.7,62.1,20.3l-0.1,0.5
			c-0.4,2-0.9,4.1-2.5,5.5c-3.3,3.2-7.1,6.2-11.4,7.9c-8.1-0.9-15.7-4.4-23.5-6.8c-27.8-9.8-55.8-19.2-84.2-26.8
			c-3.9-1-7.8-1.8-11.5-3.3C1134.3,1467.7,1133,1460.6,1130.6,1453.8z"/>
		<path d="M1113.5,1455.8c0.7,0.4,1.4,0.9,2,1.4c1.2,2.3,1.9,4.9,2.6,7.5c-4.8,1.6-9.5-0.9-13.7-2.9
			C1107.4,1459.6,1111.5,1459.1,1113.5,1455.8z"/>
		<path d="M678.3,1458.4c3.3,0,6.7-0.1,10,0.6c10.3,2.1,20.6,4.4,30.8,7.3c3.3,0.8,5.8,3.2,7.8,5.8l0.3,0.3c-1.6,2.8-3,5.6-4.4,8.5
			l-0.2-0.1c-3.9-1.7-8.1-2.5-12.3-3.4c-10.8-2.7-21.4-5.9-31.9-9.4C678.3,1464.8,678.3,1461.6,678.3,1458.4z"/>
		<path d="M1002.1,1463.7c10.1,0.4,19.3,5.4,28.8,8.4c6.7,2.4,14.1,3.2,20.2,7.2c-1.9,1.3-3.8,2.7-5.9,3.6c-1.9,0.6-3.8,1.3-5.7,1.8
			c-3.6,1.1-7.3-0.4-10.8-1.2c-10.8-2.9-21.9-5.4-31.6-11.3C998.5,1469.3,999.2,1465.5,1002.1,1463.7z"/>
		<path d="M1079.5,1473.8c5.4-1.2,10.7-5,16.4-2.9c9.6,3.4,19.6,6,28.7,10.5c2.3,1,3,3.7,4.2,5.7l0.4-0.7l0.3-0.5
			c0.7,2.8,1.5,5.5,2.5,8.2c-8.5-0.8-16.4-4.2-24.5-6.6c-8.6-2.7-17.3-5-25.6-8.6c-2.2-0.9-3.7-2.7-5.3-4.4
			C1077.7,1474.3,1078.6,1474,1079.5,1473.8z"/>
		<path d="M738.4,1473.2h0.3c7.9-0.2,15.3,2.7,22.9,4.4c9.9,2.9,20.3,4.4,29.6,8.8c-5.6,2-11.2,4.6-17,5.8
			c-6.6-3.3-14.1-2.1-21.1-3.7c-6.5-1.7-13.9-2.4-18.4-8.1l-0.1-0.1C735.9,1477.9,737.2,1475.5,738.4,1473.2z"/>
		<path d="M1052.6,1490.4c4.9-2.9,9.7-5.8,14.4-8.9c11,6.5,23.6,9.4,35.4,14.1c9.1,3.6,18.6,6.4,27.5,10.5c4.8,2,5.7,7.7,9.2,11.1
			c0.2,0.4,0.7,1.4,1,1.8c-7.9-0.2-15.5-2.4-22.9-5.1c-13.5-4.6-27.3-8.1-40.6-13.2c-8-2.9-16.7-4.9-23.7-10.1L1052.6,1490.4z"/>
		<path d="M692.1,1499c0.4-5.2-0.6-10.4,0.5-15.5c4.4,1,8.9,1.8,13.5,2.5c4.2,0.3,8.1,2,10.8,5.3c-2.4,3.9-4.3,8.1-7,11.8
			c-1.2,1.8-3.5,1.8-5.4,2.6c-4.3,1.1-8,3.7-11.5,6.4C692.2,1507.8,691.8,1503.4,692.1,1499z"/>
		<path d="M1140.5,1486.3c9.1,0.7,17.2,5.5,25.6,8.6c18.7,7,37.7,12.9,56.6,19.4c6.9,2.7,14.2,4.1,20.9,7.3c-0.7,1.6-1.3,3.2-2,4.8
			l-0.1,0.3c-1.4,1.1-2.6,2.6-4.3,3.3c-8.9-0.7-17.1-4.5-25.6-6.8c-21.5-7-43-14.1-64.3-21.6c-0.9-0.2-1.8-0.4-2.7-0.5l-0.4-0.1
			C1143.2,1496.2,1141.8,1491.3,1140.5,1486.3z"/>
		<path d="M727,1495.4c5.7,0.7,11.5,1.3,17,3.2c1.5,0.4,2.7,1.3,3.6,2.6c-3.5,1.2-7.3,1.2-10.8,2.5c-3.3-1.1-6.7-2.2-9.4-4.4
			C727.4,1498.3,727.2,1496.3,727,1495.4z"/>
		<path d="M797.4,1502.9c-0.4-5.1,4.9-7.5,9-8.2c1.4,4,3.7,7.9,3.7,12.3c-1.8,23.2-0.1,46.6-1.1,69.9c-1.3,12.7-0.3,25.4-0.5,38.1
			c0.1,13.3-0.2,26.6,0.2,39.9c1.5,10.8,0.7,21.8-1.2,32.5c-1,0.1-2,0.2-3,0.3c-1.7-2.9-3.5-5.8-4.8-8.9c0.3-3.8-1.5-7.2-1.9-10.9
			c-0.5-3.7-0.5-7.3-0.5-11c-0.2-28.7,0.3-57.3,0.3-85.9C797.6,1548.3,797.1,1525.6,797.4,1502.9z"/>
		<path d="M769,1507.4c3.5-0.8,6.9-1.6,10.5-2.2c2,7.1,0.9,14.5,1.2,21.8c-0.3,12,0.7,24,0,36.1c-0.1,16.7,0,33.3-0.2,50
			c-0.2,9.2,0.3,18.6-1.5,27.7l-0.5,1.1l-0.3-1.3c-0.8-5.3-3.5-10.2-4.4-15.5c-2.9-14.6-1.6-29.7-3.2-44.4
			c-0.3-7.2-0.1-14.4-0.4-21.6c-1-13.3-0.6-26.6-1-40C769,1515.1,768.6,1511.3,769,1507.4z"/>
		<path d="M1148.4,1510.8c20.8,7.4,41.6,15,62.4,22.4c4.9,1.9,11,2.8,13.8,7.9c-2,1.8-3.8,3.8-6.1,5.1c-7.2,1.2-13.8-2.5-20.4-4.4
			c-14.2-4.3-28.3-9.1-42.1-14.4c-0.3,0.3-1,0.8-1.4,1l-0.3,0.3C1152.6,1522.7,1150.2,1516.8,1148.4,1510.8z"/>
		<path d="M730.7,1519.7c4.9-1.9,9.9-3.8,14.9-5.5c5,0.2,9,3.6,12,7.2c2.1,3.1,2.1,7,2.6,10.6c0.3,4.7,0.9,9.4,1.7,14
			c1.9,14.6,2.4,29.4,4.3,44c1,9.9,2.5,19.9,0.7,29.7c-4.6-6.5-8-13.8-12-20.7c-12.2-21.8-24.3-43.6-37-65c1.1-2.4,3.2-4.4,3.9-7
			C722.8,1522.7,727.3,1521.3,730.7,1519.7z"/>
		<path d="M698.6,1522.9c0.7-3.2,2.8-6.3,5.6-8c3.2-1.9,5.3,1.9,7,4c1,1.7,3.6,3.8,1.8,5.9c-2.5,2.7-5.6,4.8-8.9,6.3
			C702.1,1528.6,699.2,1526.3,698.6,1522.9z"/>
		<path d="M706.4,1552.2c0.8-4.3,0.4-8.8,1.4-13.1c9.4,13.7,16.9,28.6,25.1,43c13.9,25.1,28.1,49.9,41.8,75l-1.3,0.4
			c0.5,1.8,1,3.6,1.6,5.4c-5.6-0.2-10.8-2.2-16.1-3.8c-17.2-5-34.6-8.7-51.9-13.1c-5.1-1.3-10-2.9-14.9-4.8
			c1.6-11.2,3.4-22.4,5.6-33.6C700,1589.2,703.5,1570.8,706.4,1552.2z"/>
		<path d="M985.9,1546.3c2.3-4.2,7.5-6.8,12.2-5.7c7.1,1.3,14,3.3,20.9,5.3c11.8,2.6,23.5,5.8,35.2,8.9c8.4,2.5,16.9,4.6,25,7.9
			c9.4,2.6,18.7,5.6,28.3,7.9c6,1.9,13.2,1.8,17.4,7.1c-23.8-4.9-47.3-10.7-70.9-16.2C1031.2,1556.7,1008.7,1550.8,985.9,1546.3z"/>
		<path d="M988.5,1557.9c4.3,0.7,8.5,1.7,12.6,2.9c5.7,1.7,11.7,2.4,17.3,4.4c-6.3-1-12.5-2.6-18.8-3.9c0,24.5,0.2,49.1-0.1,73.6
			c-0.1,5.8,0.5,11.8-1,17.5c-3.4,1.2-6.7,2.4-10,3.7c-2.4-22.3-0.3-44.7-1.4-67.1C985.9,1578.7,987.5,1568.2,988.5,1557.9z"/>
		<path d="M1016,1569.1c20.2,4.4,40.6,8.3,60.7,13.5c7.7,1.9,14.6,6.4,22.5,7.1c0.7,8.6-0.5,17.2-1.4,25.7c-0.2-0.2-0.6-0.7-0.8-0.9
			c-0.6,0.3-1.7,0.9-2.2,1.2c-1.8-6-1-12.3-1.2-18.4c-12.7-3.6-25.4-7.1-38.1-10.8c-6.6-1.7-13.1-4.2-19.8-5.4c3.4,3.3,8,5,12.1,7.2
			c7.8,4,15.8,7.5,23.8,11.1c3,1.6,6.5,2.9,8.3,5.9c2.2,4.8,1.5,10.4,3.6,15.3l0.2,0.6c-3.8,1-7.5,2.7-11.3,3.7
			c-4.2-3.2-8.8-6.9-14.4-6.7c-5.1,0.6-9.6,3.9-12.8,7.8c-2.3,2.8-3.1,6.4-4.4,9.8c-0.4,1.3-1.8,1.5-2.8,2
			c-7.5,2.6-14.7,5.8-22.2,8.2c-1.6-17.6-1-35.3-1.2-53C1014.7,1585,1013.9,1576.9,1016,1569.1z"/>
		<path d="M1164.8,1587.8c3-2.1,7.7-2,10.1,1l-0.1,0.3c-0.2,0.5-0.7,1.5-0.9,2.1c0.1,1.5,0.3,3,0.6,4.6c-2.4,1.9-5.1,3.4-7.9,4.5
			l-0.6,0.3c-1.4-1.4-3.3-2.6-4-4.6C1161.8,1593.1,1162.8,1590,1164.8,1587.8z"/>
		<path d="M1117.4,1587.9c1.7,0.4,3.3,0.8,5,1.3c0.4,5.5,4.2,10.6,1.8,16.2c-1.7,0.8-3.6,1.3-5.4,1.9
			C1115.3,1601.2,1117.8,1594.4,1117.4,1587.9z"/>
		<path d="M1116.9,1619.1c3.1-0.8,6.1-1.9,9.2-3c2.1,7.8,1.3,15.9,1.4,23.9c-0.3,14,0.6,28.6-4.4,42c-1.5,5.2-4.4,10-4.8,15.5
			c-0.2,1.2-0.9,2.3-1.3,3.5c-2.9-7.4,0.2-15.4-0.6-23c-1.1-13.3-0.8-26.6-1.3-39.9c-0.1-6.2-1.8-13,1.7-18.6L1116.9,1619.1z"/>
		<path d="M1056.3,1628.5c4.5-1.6,9.2,2,9.8,6.5c-0.1,3.3-2.2,6.6-5.5,7.5c-2.8,1.4-5.7-0.5-7.4-2.6
			C1049.3,1636.6,1051.9,1629.8,1056.3,1628.5z"/>
		<path d="M1075.5,1638.9c1.7-1.6,3.5-3.1,5.7-3.9c1.5,2.2,1.3,4.9,1.6,7.5c0.7,6.1,0.7,12.3,1.5,18.4c1.7,12.1,1,24.4,3.6,36.4
			c1.2,5.6,0.2,11.4,1.2,17.1c0.5,3.1,1.1,6.5-0.4,9.5c-6.5-19.7-10.9-40-16.7-59.9c-1.5-4.6-2-9.6-4.2-14
			C1071.2,1646.9,1074,1643.3,1075.5,1638.9z"/>
		<path d="M1013.5,1658c10.8-4,21.5-8.5,32.6-11.6c-2.1,4-5.4,7.2-7.7,11.1c-7,10.7-13.4,21.8-20.6,32.5c-0.9-1.3-2-2.6-2.6-4.1
			c-2.2-9.1,0.8-18.7-1.6-27.8L1013.5,1658z"/>
		<path d="M691.4,1664.3c0.8-4.9,0.1-10.2,2.7-14.7c0.9,2.7,1.7,5.5,1.7,8.3c0.2,15-0.4,30-0.4,45.1c0.2,10.1-0.9,20.1-1.4,30.1
			c-0.5-0.3-1.6-1-2.2-1.3c-0.5-1.3-1.2-1.4-1.9-0.1l-1.1,0.8l-0.2-1.2c-0.9-8.4-0.2-16.9-0.4-25.3c-0.3-6.5,1.7-12.9,0.6-19.4
			c-0.4-2.5-0.5-5,0.3-7.4C690.6,1674.4,690.5,1669.3,691.4,1664.3z"/>
		<path d="M1054.8,1652.7c2-2.7,3,2,3.6,3.5c7.2,26.1,14.6,52.2,21.5,78.4c-6.9-1.9-14-3.1-20.9-5.3c-15.1-4-30.6-6.5-45.3-12.2
			c3.8-7.1,8.9-13.5,12.8-20.6C1036,1681.9,1045.1,1667,1054.8,1652.7z"/>
		<path d="M986.3,1668.2c4-1.4,8-2.8,12-4.3c0.6,2,1.3,4,1.3,6.1c0.2,13,0,26-0.1,39c0,3.3-0.8,6.4-1.5,9.6c-4.1-0.5-7.9,1-11.5,2.8
			c0.8-2,1.3-4.2,0.9-6.4c-2-15.5,0-31.1-1.1-46.6L986.3,1668.2z"/>
		<path d="M774.5,1683.9c0-3.9,2.2-8.9,6.5-9.2c3.2,1.4,5,4.6,6.4,7.7c2.7,6.2,0.2,12.9,0.2,19.4c-0.5,18.5-0.9,36.9-1,55.4
			c-3.9-0.7-7.8-1.8-11.6-2.9c-2.1-9.3-1.1-18.8-1.3-28.2C773.6,1712,774.2,1697.9,774.5,1683.9z"/>
		<path d="M926.8,1682.1c1.2-2.6,3-5,5.1-6.8c1.6,2,4.1,2.4,6.5,2.8c0.3,1.2,1.1,2.3,1,3.6c-0.8,1.5-1.8,2.9-2.7,4.3
			c0.1,0.7,0.2,2.1,0.3,2.8v0.3C932.2,1690.7,928.1,1686.3,926.8,1682.1z"/>
		<path d="M1126,1713.9c0.5-1.8,2.2-2.9,3.6-3.9c-0.2,7.3-0.6,15.4-5.3,21.5c-1.6,2.1-3.8,3.6-5.8,5.3c-0.8-1.1-1.6-2.4-0.8-3.8
			C1120.2,1726.5,1123.3,1720.3,1126,1713.9z"/>
		<path d="M994.3,1728.4c2.7-0.7,5.7,0.9,6.8,3.4c1,2.2,3.1,5.1,1.2,7.4c-2.3,2.7-6.4,5-9.9,3.5c-2.7-2.2-5.2-5.9-4.1-9.6
			C989.3,1730.6,992,1729.4,994.3,1728.4z"/>
		<path d="M677.5,1739.6c11.4,3.6,23,6.1,34.5,9.4c31.5,8.9,63.4,16.5,95,24.9c9.3,2.8,19.3,4,28,8.8c-3.9,5.5-9.5,9.5-14.8,13.6
			c-5,0-9.6-2-14.3-3.1c-19.9-5-39.8-9.8-59.6-15.5c-19.1-5.5-38.6-9.8-57.8-15.2c-3.9-1-7.6-2.5-11.3-4.1
			C677.1,1752.2,677.1,1745.9,677.5,1739.6z"/>
		<path d="M1008.8,1746.3c1.6-0.3,3.2-0.7,4.7,0.2c3.5,1.6,7.4,2.2,10.9,3.9c-1.1,0.2-2.1,0.3-3.2,0.6c0.2,11.4,0.1,22.7,0.1,34.1
			c0,6.3-1,12.5-0.7,18.8v0.3c-3.3,1.8-6.6,3.8-10,5.5c-1.8-5.7-1.3-11.8-1.8-17.7c-0.6-13-0.1-26-0.3-39c-0.2-2.2,0.8-4.2,1.7-6.2
			c-0.2-0.1-0.7-0.2-0.9-0.3L1008.8,1746.3z"/>
		<path d="M848.5,1771.3c3.3-0.7,5.9,2.3,7.4,4.8c1,1.9,2.5,4.5,0.8,6.4c-1.9,2.7-5.4,5-8.8,3.6c-2.7-1-6.7-2.3-6.4-5.9
			C842.5,1776.5,845.1,1773.1,848.5,1771.3z"/>
		<path d="M679.3,1783.3c31.2,5.6,61.3,15.8,92.2,23.2c8.4,2.6,17.7,3.1,25.3,8l0.3,0.2c-4.7,3.7-9.2,7.5-13.8,11.3h-0.4
			c-9.4,0.9-18.8-0.7-28.2-0.4c-0.3,7.6-0.4,15.3,0.4,22.8v0.4c-2.1,1.7-4.3,3.4-6.3,5.1c-3.4-11.4-2.7-23.5-2.1-35.3
			c-8.6-1.3-17.4-1.5-26.1-1.6c-0.1,15.5,0.1,31-0.2,46.4c-2.2,0-4.4,0-6.6,0.1c-1.7-7-0.9-14.3-1.1-21.5c0.1-10.9-0.7-21.8,0-32.7
			c-8.3-1.2-16.8-0.8-25.2-1.2c-1.3,15.1-0.3,30.2-0.9,45.3c-3.1-0.1-6.3-0.2-9.4-0.2c0.1-0.6,0.3-1.9,0.4-2.5c1.7-4.1,1-8.5,1-12.8
			c-0.1-6.3,0-12.6,0-18.9C678.1,1807.1,680,1795.2,679.3,1783.3z"/>
		<path d="M866.6,1782.2l0.2,0.7c0.2,0.7,0.5,1.5,0.8,2.3c6.2,0.4,12.1,2.3,18.1,4c8.5,2.7,17.1,4.6,25.6,7.3
			c-1.3,8.3-2.2,16.7-3.5,25.1c-4.2-4-10.3-4.5-15.6-5.7c-6.3-0.9-12.4-2.8-18.6-4l-0.3-0.1c-3.9-7-7-14.6-12-21
			C863.7,1788.4,866,1785.8,866.6,1782.2z"/>
		<path d="M832.9,1799.4c2.5-2,4.9-4.5,8.2-5.2c3.2,0.6,6.2,1.8,9.4,2.4l0,0c-0.4,2.7,1.8,4.5,2.9,6.8c0.2,1.4,0.3,2.9,0.3,4.4
			c-2.1-0.3-4.4-0.1-6.2-1.2c-2.9-1.7-5.1-4.2-7.9-6C837.5,1799.4,835.1,1799.6,832.9,1799.4z"/>
		<path d="M922.1,1798.5l0.3,0.1c5.6,2.4,12.2,1.3,17.5,4.6c1.4,0.7,2.6,2.5,1.5,4c-2.3,3.7-5,7.2-6.8,11.2
			c-1.5,3.2-3.4,7.2-7.6,7.3c-3.2-1-5.6-3.5-8.2-5.6C920.1,1812.9,921.1,1805.7,922.1,1798.5z"/>
		<path d="M1017.2,1818.2c7.4-4.4,14.6-9.1,22-13.3c-7.3,5.9-15.6,10.6-23.5,15.7c-16.9,10.5-34.3,20.1-51.8,29.5
			C981.1,1838.5,999.6,1829.1,1017.2,1818.2z"/>
		<path d="M955.9,1807.5L955.9,1807.5c4.7,1.7,9.6,2.3,14.3,3.6c5,1.3,9.9,2.8,15,3.7c4,0.8,8.4,0,11.9,2.7l0.2,0.1
			c-10.4,6.4-21.1,12.2-31.5,18.7l-0.2-0.1c-6.8-4.9-15.4-4.7-22.9-7.8C947.2,1821.5,951.5,1814.4,955.9,1807.5z"/>
		<path d="M803.8,1825.6c2.9-2.5,5.6-5.5,9.3-6.9c4.4-1.2,8.7,1,12.9,2.1c11.8,3.4,23.6,6.4,35.5,9.5c4.1,1.1,9,1.9,11.5,5.8
			c3.3,5.2,6.1,10.7,8.3,16.5c-7.8,1.2-15.7,0.5-23.6,0.7c-0.4,9.6,0.6,19.4-0.8,28.9c-3,0.6-6,1.1-9,1.4c1-0.3,2-0.6,3.1-0.9
			c-1.1-12.7-1.9-25.5-0.6-38.2c-8.6-0.2-17.2-1-25.8-0.6c-2,14.8-0.1,29.7-1.9,44.5v0.2c-2,0.4-4.1,0.8-6.1,1.2
			c-0.2-7-1.9-13.9-1.9-20.8c-0.1-11.2-0.1-22.4,0.2-33.6c-6.1-0.1-12.3,0.5-18.1-1.8C798.4,1830.5,801,1827.9,803.8,1825.6z"/>
		<path d="M785.3,1840.1l0.7-0.7c0.5,0.1,1.6,0.2,2.2,0.3c1,12.8,0.1,25.6,0.3,38.4c0.4,2.8-2,5.9-4.9,4.4c-2.4-3.3-1.9-7.6-2-11.5
			c0.1-7-0.3-14.1,0.4-21.1C782.4,1846.5,782.7,1842.7,785.3,1840.1z"/>
		<path d="M889,1839.7c5.3-0.6,10.7,0.2,15.6,2.5c-0.8,7.1-2.6,14.1-2.5,21.3c-3.2-4-5.1-8.7-7.5-13.2
			C892.7,1846.8,890.7,1843.3,889,1839.7z"/>
		<path d="M750.7,1872.1c0.3-1.7-0.8-4.9,1.5-5.4c2.3,0.8,1.8,3.3,1.8,5.2C753.2,1871.9,751.5,1872,750.7,1872.1z"/>
		<path d="M884.9,1894.6c3.6-1.2,7.2-2.4,10.8-3.7c-0.1,0.5-0.4,1.6-0.5,2.1c0.9,0.1,1.8,0.2,2.7,0.4c-3.9,0.8-7.9,2.2-11.9,1.8
			L884.9,1894.6z"/>
		<path d="M825.2,1898.3c8.3-1.8,16.8-3.1,25.1-4.8c-9.8,3.3-19.9,6-29.8,9c-9.4,2.6-19.1,3.6-28.5,6c-13.1,1.6-25.9,4.4-39,5.7
			c-10.3,1.6-20.7,2.1-30.9,3.5c10.3-2.3,20.7-3.9,31-5.7c12.3-2.8,24.8-4.2,37.1-6.8C802,1903.8,813.4,1900,825.2,1898.3z"/>
		<path d="M862,1902.5c6.9-2.7,14.1-4.8,21.1-7.3c1.3,0.8,2.6,1.7,3.9,2.5c-5.1,0.9-10.2,1.7-15.1,3.7
			C868.8,1902.9,865.3,1902.5,862,1902.5z"/>
		<path d="M777.5,1922.2c3.1-1,6.3-1.9,9.6-2c2,0.6,4,1.4,6.1,2.2C788,1923,782.7,1923.4,777.5,1922.2z"/>
		<path d="M756.5,1924.8c2-0.3,4.1-0.8,6.2-0.6c0.8,0.5,1.5,1.1,2.3,1.7c-9,1.9-18.4,0.6-27.3,3.1c-3.9,0.7-8.3,0.6-11.2,3.8
			c0.6,0.3,1.9,0.7,2.6,1c-19,2-38.1,3-57.2,2.6c0-2.2,0-4.3,0.1-6.5C700.2,1928.8,728.5,1928.8,756.5,1924.8z"/>
		<path d="M672.5,1952c0-1.5,0.1-3,0.5-4.4c7.3,1.2,14.7,0.7,22,1.3c-1,1-2,2.1-3,3.1H672.5z"/>
	</g>
	<g id="_x23_c0c4d8ff">
		<path d="M713.8,75.2c6.1,3.4,10.8,10.6,9.6,17.7c-0.6-1.4-0.9-2.8-1-4.3C718.4,84.8,717.1,79.4,713.8,75.2z"/>
		<path d="M78.8,1397.1c0.3-0.1,0.9-0.2,1.2-0.2c0.7,13,0.3,26.1,0.3,39.2c-1.3,10.9-0.5,22-0.7,33c0,22.8,0.1,45.5,0.2,68.2
			c-2-25.4-1.2-50.9-1.4-76.3c0.2-21.2-1-42.4,0.3-63.6L78.8,1397.1L78.8,1397.1z"/>
		<path d="M1242.2,1548.3c1.8-1.3,4.6-1.4,5.8,0.8c-2.2,2.3-4.8,4.4-7.9,5.2c-2.1,0.6-3.4-1.4-4.9-2.5
			C1237.7,1551.2,1240,1549.8,1242.2,1548.3z"/>
		<path d="M1094.7,1627.1c1.3-0.3,2.6-0.6,3.9-0.9c-1.3,2-0.7,4.5-0.5,6.8c0.5,5,0.2,10,0.3,14.9c0,27.7,0.4,55.4,0.2,83.1
			c0.1,2.9-0.8,5.7-1.8,8.4c-0.6-4.8-0.3-9.6-0.4-14.4c-1.4-12.9-0.7-26-0.9-39c-0.2-12,0.4-24-0.8-36c-0.2-7.5-0.2-15,0-22.5
			L1094.7,1627.1L1094.7,1627.1z"/>
		<path d="M884.9,1861.6c1.2,3.8,2.7,7.6,3.6,11.5c0.5,1.4-0.5,2.6-1.3,3.7l-1.5,0.4C885.6,1872,883.8,1866.8,884.9,1861.6z"/>
	</g>
</g>
<g id="Camada_1_1_">
	<g id="_x23_fefefeff">
		<path d="M667,0h9.9c-0.6,0.3-1.9,0.9-2.5,1.2c4.8,5.5,7.6,12.2,10.7,18.7c5.3,11.7,10.7,23.4,16,35.1c4.1,9.3,9.6,17.9,13.5,27.3
			c8.7,17,15.1,35.1,24.1,52c2.4,4.6,4.5,10.2,9.6,12.3c4.6,2.4,11,4.5,11.8,10.4l0.1,1c0.4,2.7,0.3,6.1,2.9,7.7
			c15.9,8.6,32.5,15.9,47.9,25.4c3.8-2.3,7.1-6.2,12-6.1c5,0.4,9.3,3.8,12.6,7.3c3.9,4.2,6.1,11,3,16.2c-2.2,4.3-6.3,7.2-9.4,10.7
			c-2.5,2.7-1.2,6.6-1.3,9.9c0.3,26.5-0.2,53.1,0,79.6c0.2,2.2-0.4,4.9,1.6,6.4c2.5,2.1,5.4,3.9,7.4,6.6c3.1,4,4.3,9.6,2.2,14.3
			c-1,2-2,3.9-3.1,5.8c-2.6,2.9-6.1,4.7-9.7,6c-2.2,0.6-2.9,2.7-3.6,4.6c-3.3,9.9-5.6,20.1-9,30c-0.3,1.4-1.3,3.3,0.1,4.5
			c2.7,3.1,6.1,5.9,7.3,9.9c0.4,2.3-0.3,4.5-0.8,6.7c-0.8,1.3-0.7,2.4,0.4,3.4c3.7,3.6,8,6.4,12.1,9.6
			c12.3,10.5,24.7,21.1,37.8,30.8c13.7,10.6,27,21.7,40.4,32.7c3.1,2.4,5.9,5.3,9.3,7.3c1.7,0.8,2.9-1,4.1-1.9
			c5.9,0.2,11.1,4,15.2,8c4.1,3.9,3.8,10.2,2.5,15.3c-0.5,2.7-2.6,4.7-4.4,6.6c-3.6,3.8-9.8,3.7-12.8,8.3
			c-12.1,17.2-22.6,35.4-34,53.1c-3.4,5.2-6.9,10.3-10.3,15.5c11.1,3.2,21.9,7.5,32.6,11.8c2.9-0.4,5-3.1,7.5-4.4
			c2.8-1.5,6-3.1,9.2-2.5c8,1.9,14.5,8.7,16.2,16.7c-1,8.3-8.7,13.5-14,19.2c19.6,8.4,39.3,16.7,58,27c16.8,9.4,33.8,18.3,49.8,29
			c33.3,21.6,64.6,46.3,93.9,73.1c14.3,12.7,27.8,26.4,40.5,40.6c10,11.9,20.8,23.1,30.1,35.6c14.2,17.8,27.9,35.9,40.1,55.1
			c8.3,13.5,16.2,27.1,24.1,40.8c20.9,37.2,37.4,76.7,51,117c11.8,35.2,20.1,71.6,25.8,108.3c3.9,20.6,5.3,41.4,6.7,62.3
			c0.6,16,0.2,32,0.3,48c0.3,23-0.7,46-2.7,68.9c-5.2,45.4-14.6,90.4-28.6,134c-6.3,19.5-13.4,38.8-21.2,57.8
			c-16.4,37.5-35.4,73.9-57.9,108.2c-11.5,17.6-24,34.4-36.9,51c-9.1,11.2-18.2,22.5-28.2,32.9c-11,11.9-22,23.9-34,34.9
			c-33.3,33-71,61.3-110.4,86.6c-34.8,21.7-71.4,40.6-109.8,55.2c-19.1,7.7-38.6,14.7-58.3,20.6c-42.5,12.5-86.3,20.5-130.3,25.1
			c-20.3,2-40.6,2.2-60.9,2.3c-0.4,1.4-0.5,2.9-0.5,4.4h-1c-0.5-1.8-0.9-3.5-1.2-5.3c-21.1,0.6-42.2-1.5-63.3-3
			c-36.1-3.1-71.9-9.7-107.1-18.6c-21.4-6.3-43-12.3-63.9-20.3c-18-6.4-35.6-14.1-53-22c-21.9-10-43-21.9-63.7-34.3
			c-16.6-10.6-33.3-21-49-32.9c-14.7-10.5-28.9-21.6-42.5-33.6c-19-17.5-39.1-34-55.7-54c-13.7-14.6-26.8-29.6-39-45.5
			c-10-13.7-20.8-26.9-29.4-41.5c-11.1-15.9-21-32.6-30.3-49.6c-9-15.8-16.9-32.3-24.1-49c-6.9-15.3-13.5-30.7-18.3-46.8
			c-2.6-7.2-5.6-14.2-7.4-21.6c-1.9-8-5.3-15.6-7.4-23.5c-4.9-17.8-10.1-35.5-12.5-53.8c-1.2-9.4-1.8-18.8-2.7-28.2
			c0.2,6.4-0.2,12.8-1.4,19V1140c1.9,6.8,1.5,13.8,1.4,20.8c0.4-13.9,2.9-27.6,5.2-41.3c2.8-14,5.7-28,9.8-41.6
			c5.2-17.5,10.6-34.9,17-52c5.1-14.7,12.2-28.6,17.8-43.1c10.8-25.7,24.4-50.2,38.8-74.1c8.4-14.3,17.6-28.2,27.5-41.5
			c10.8-14.2,21.2-28.8,32.6-42.5c13.8-16.1,28-31.9,43.1-46.9c25.4-24.8,52.6-47.8,81.4-68.6c32.2-22.9,66-43.6,101.8-60.3
			c6.8-3.3,13.8-6.1,20.6-9.4c5.1-2.5,10.1-5,15.6-6.7c0.5-5.4,0.1-11,1.7-16.2c3.4-12.2,12.2-22.1,21.6-30.2
			c13.7-11.3,29.9-19.2,46.7-24.6c12-2.1,23.5-6.5,35.3-9.4c18.1-5,36.5-8.8,55-12c18.6-3.2,37.4-5.5,56.2-6.2
			c12.6-0.9,25.3-1.6,37.9-1.4c0-2.6-0.1-5.2-0.1-7.7c-11.6,0.9-23.2,0.9-34.8,1.7c-21.4,2.1-42.7,5.1-63.8,9.1
			c-19.8,4-39.6,9-58.8,15.2c-8.6,3.2-17.5,5.8-25.7,10c-2.7,0.8-5.6,2.2-8.4,1.5c-4.6-1.1-9-3-13.3-4.8
			c-14.9-6.6-29.4-15.4-39.7-28.3c-6.3-8.2-11.4-18.4-10-29c1.4-8.7,5.3-17.1,11-23.8c10-12.4,24-20.9,38.2-27.6
			c13.9-6.7,28.9-10.4,43.1-15.9c0.8-2.8,0.5-5.7,0.6-8.5c-0.1-5.6,0.3-11.2,0.2-16.9c-2.7,0.4-5.5,1.1-8.3,0.8
			c-3.6-0.9-6.2-3.9-8.2-6.9s-3.4-7.1-1.1-10.3c4.1-6.5,11.3-10.2,17-15.2c0.9-2.1,0.7-4.4,0.7-6.6c-0.3-10.9-0.5-21.9,0-32.8
			c-3.6,0.4-7.7,1.4-11-0.7c-3.4-2.2-6.1-5.7-7.4-9.5c-1.2-3.4,0.4-6.9,2.5-9.6c4.4-5,10.8-7.8,15.5-12.6c0.7-2.9,0.4-5.9,0.4-8.9
			c-0.4-10.1-0.2-20.3-0.3-30.4c-4.3,0.4-9.4,1.7-12.8-1.9c-3.3-3.5-7.1-8.4-4.9-13.4c2.4-6.2,8.9-9.4,11.7-15.3
			c7.5-14.3,16.7-27.6,27.1-39.9c22.7-26.5,52.9-46.3,86.1-57c10.8-3.6,22.2-5.1,32.9-8.9c1.2-2.4,2.2-4.9,2.8-7.5
			c-6.7-3.4-13.8-6.2-19.5-11.2c-6.1-4.8-10.9-11.7-11.8-19.5c0.4-5,2.8-9.7,5.7-13.6c8.3-10.2,21.1-16.6,34.2-17.5
			c0.4-14.1-0.6-28.2,0-42.3c0.1-2.4,0.8-4.8,2.6-6.5c3.4-3.5,7.6-6.2,11.2-9.6C669.5,1.2,667.8,0.4,667,0 M677.3,81.1
			c0,12.3,0.1,24.6,0.1,36.9c0,1.9,0.2,3.8,0.6,5.7c3.3,0.9,6.3,2.7,9.5,3.8c7,3.6,14.1,6.9,20.9,10.8c7.2,4.1,14.6,7.8,22.2,11
			c1.1,0.5,2.3,0.7,3.5,0.7c-1.3-3.2-2.9-6.3-4.3-9.5l-0.4-0.1c-4.7-10.6-9.7-21.1-14.6-31.6c-10.5-21.8-20.2-44-31.3-65.5
			c-2.4-5.2-4.7-10.5-7.4-15.5C678.2,45.5,677.1,63.3,677.3,81.1 M677.1,134.8c0.3,14.5,0.1,28.9,0.5,43.4c0.2,18.5,0,37.1,0.1,55.6
			c-0.7,15.1-0.2,30.3-0.2,45.4c5-3.3,10-6.4,15.3-9.2l-0.1-0.1c17-9.3,33.8-19,50.8-28.3c4.4-2.1,8.9-4.2,12.8-7.2
			c10.2-6.4,21.1-11.8,31.4-18c1.5-0.4,2.9-1.2,4.4-1.8l-0.7-0.9l0.6,0.6c5.6-3.4,12-5.9,15.9-11.5c-5.6-4.5-12.4-7.3-18.8-10.6
			c-10-4.6-19.5-10.1-29.4-14.8v-0.3c-1.4-0.8-2.9-1.5-4.3-2.3c-4,3.3-8.6,6.1-13.9,6.2c-0.8-0.5-1.6-0.8-2.4-1.1
			c-4.8-2.9-9.5-6.6-12-11.8c-1.2-2.5-0.2-5.3-0.8-7.9C709.8,151.7,693.6,142.9,677.1,134.8 M739.3,157.5c-1.9,0.8-2.6,2.9-3.7,4.4
			c0.7,1.6,1.3,3.4,2.5,4.7c3,4.7,9.7,2.5,11.9-1.7c0.7-4.1-2.3-8.5-6-10.2C742.1,154.9,740.8,156.5,739.3,157.5 M633.9,184.3
			c-28.2,4.3-55.6,12.6-81.8,24c-13.8,6.2-27.3,13.4-39.4,22.6c19-11.4,39.8-19.6,60.8-26.4c15.8-5.1,32.1-8.2,48.3-11.4
			c9.6-1.5,19.4-2.5,29.1-3.4c5.2-0.5,10.4-0.2,15.5-1c0.1-2.5,0.1-4.9,0-7.4C655.7,182.4,644.8,182.7,633.9,184.3 M820.5,195.5
			c-3.4,2.1-7.5,7.2-4.2,11c1.4,1.9,3.2,3.9,5.7,4.3c3.9-1,8.8-4.3,8.1-8.9C828.6,198.5,824.6,194.3,820.5,195.5 M806.6,218
			l-0.5-0.1c-6.1,3.8-12.6,7.2-18.7,11c-3.4,2-6.7,4-10.2,5.8c-7.5,4-14.6,8.5-22,12.5v0.1c-11.3,6.3-22.6,12.8-33.8,19.2
			c-9.5,4.8-18.7,10.2-27.8,15.5l-0.1,0.8c-2.6,1.4-5.2,2.8-7.6,4.4c19.6,4.3,38.9,10.2,58.2,15.6c4.9,1.8,8.8-2.8,11.9-5.8l0,0
			c1.5-0.7,3.2-1.4,4.9-1.2c6.8,0.8,12.4,5.3,16.5,10.5h0.3c0.4,2.3,0.9,4.5,1.3,6.8c9.6,1.7,18.6,5.5,28,7.8c2,0.8,3.3-1.1,4.7-2.2
			c2-1.5,5.3-2.6,5.1-5.6c0.4-7.5,0.5-15-0.2-22.4c-0.3-22.2,0.1-44.5,0.4-66.7c-0.2-2.6,0-6.8-3.3-7.5
			C811.2,215.3,808.8,216.9,806.6,218 M623,220.2c-11.1,1.4-22,4.1-33,6c0.2,15.3,0,30.6-0.3,45.9c22.4-6.7,45.9-8.1,69.1-9.4
			c0-15.2-0.5-30.4-0.2-45.6C646.8,217.9,634.8,218.5,623,220.2 M537.3,245.3c-2.4,1.1-5.2,1.1-7.3,2.7c0.3,3.7,1.6,7.3,1.3,11.1
			c-0.1,10.8,0.5,21.7-0.6,32.5c10.7-5,21.6-9.9,33-13.2c0.5-14.9-1.1-29.8,1-44.6C555.2,236.7,546.3,241.3,537.3,245.3 M601,295.1
			c-3.4,1-7,0.8-10.5,1.5c-0.5,2.1-0.4,4.3-0.4,6.5c0.1,13.5-0.1,27.1-0.2,40.6c16.2-5.2,33.1-7.1,50-8.3c6.2-1.1,12.6-0.5,18.9-1.6
			c-0.2-15.1-0.2-30.2-0.3-45.3C639.3,290,619.9,290.6,601,295.1 M677.4,310c-0.1,30.4,0,60.7,0,91c-0.1,18.8,0.8,37.6-1.2,56.3
			c1.2-1.9,2.4-3.7,3.7-5.6l-0.1-0.4c2.8-5.2,5.7-10.3,8.5-15.5c2.3-4.1,5.1-8,6.3-12.6c1.5-2.2,2.8-4.6,3.9-7
			c4.3-8.5,9.7-16.3,14.1-24.8c5-9.4,10.4-18.6,15.3-28l0.2,0.1c3.9-7.4,8.1-14.5,12.2-21.8c2.9-5,6-9.8,8.7-14.9
			c0.6-1.9-1-3.4-2-4.9c-2-2.3-2.8-5.2-3.9-7.9c-9.3-2.1-18.3-5.3-27.5-7.6c-12.1-3.3-24.1-6.7-36.1-10.3c-0.7-0.7-1.3-1.3-2-2
			C677.8,299.5,677.4,304.8,677.4,310 M534.2,318.3c-1,0.6-2.5,0.8-2.9,2.1c-0.3,14.2,0.3,28.4-0.7,42.6c10.6-5.3,21.5-10.3,33-13.5
			c0.2-14.7-0.2-29.4-0.2-44.1C553.3,308.7,544,314,534.2,318.3 M753.9,314.1c-0.2,3.8,3.7,5.9,6.3,7.8c3.1-1,5.7-2.8,8-5.1
			c0.5-3,0.5-6.6-2.5-8.4C761.5,304.5,753.1,308.2,753.9,314.1 M768.3,329.2c-2.4,1.9-2.2,5.1-2,7.9c0.8,10.6,0.2,21.3,0.3,31.9
			c0.1,42.7,0.5,85.3,0.3,128c0,6.9-1.3,13.6-1.6,20.5c3.3-8,4.8-16.6,7.2-24.8c2.8-11.4,6.4-22.7,9.5-34c0.1-0.4,0.2-1.2,0.3-1.6
			l0.3,0.2c0.5-1.8,0.9-3.7,1.4-5.5c0.1-0.4,0.2-1.2,0.3-1.7l0.3,0.2c1.8-8.1,4.3-16.1,6.4-24.1c0.9-3.4,2.2-6.6,3-10
			c-1.2-2.9-4.5-4.4-5.5-7.5c-3.5-6.8-1.9-16.1,4.5-20.7c3.2-2.9,8.4-3.2,10.5-7.3c2.2-6.3,3.2-13,5.3-19.3c1.1-5.2,3.6-10,4.6-15.2
			c-1.5-3.9-6.1-5.3-8.3-8.7c0.2-1.5,1.9-3.5,0.5-4.8c-9.1-2.5-18.1-5.8-27.3-8c-0.2-0.5-0.6-1-1-1.3C774.1,325,771,327,768.3,329.2
			 M820,324.7c-2.9,1.7-4.4,4.9-4.5,8.2c1.9,2,3.1,5.7,6.3,5.8c3.3-0.5,5.9-2.8,8.2-5.1l-0.4-0.7c1.1-0.8,1.1-3.8-0.7-3.8
			C828.7,325.6,823.3,321.7,820,324.7 M750.2,345.3c-3.1,5.8-6.8,11.3-9.6,17.2c-4.4,8-8.8,16-13.2,23.9
			c-4.1,8.7-9.1,16.9-13.7,25.3l-0.9,0.4l0.5,0.5C703.2,432,692,450.8,681.7,470l-0.4,0.1c-0.7,2.2-4,5.1-1.5,7.1
			c5.1,4.2,10.4,8.2,15.3,12.6c13.5,12.1,27.7,23.6,40.9,36.1c5.9,5.8,11.9,11.8,19.3,15.5c1-3,1.3-6.3,1.1-9.4
			c-1.8-27.5,0.2-55-1-82.5c0-10.3-0.2-20.5,0.2-30.8c1.2-9.9-0.3-19.9-0.1-29.8c0.1-14-0.4-28,0.6-41.9c0.1-4.3,0-8.7,1-12.9
			C754.1,337.4,752.5,341.6,750.2,345.3 M591.2,368.3c-1.5,0.6-0.9,2.5-1.1,3.7c0.1,13.8-0.2,27.6-0.2,41.4
			c16-4.6,32.6-6.2,49.1-7.5c6.6-0.3,13.2-0.4,19.8-0.3c-0.2-15.3-0.2-30.7-0.4-46C635.8,360.6,613.4,364,591.2,368.3 M532.6,390.8
			c-2.2,0.9-1.4,3.4-1.5,5.2c0,10.7,0.2,21.4-0.4,32.1c10-2,19.6-5.4,29.5-7.7c1.3-0.5,3.6-0.5,3.2-2.4c0.2-13.9-0.5-27.7,0.1-41.6
			C553.1,380.8,542.5,385,532.6,390.8 M802.5,393.6c-4.8,0.6-7.3,5.8-6.3,10.1c1.4,2.5,4.1,5,7.2,4.5c3.2-1.1,6.3-3.2,7.5-6.4
			C812.2,397.3,807.1,392.3,802.5,393.6 M804.8,419.9c-2.5,3.1-2.1,7.4-3,11.1l-0.5,0.1c-10.2,32.9-18,66.4-27.8,99.4
			c-0.7,2.9-2.6,5.6-2.3,8.6c-0.1,0.4-0.3,1.2-0.3,1.6c0.5,2.7,3.6,3.9,6,3.5c8-1.5,15.9-3.9,23.5-6.8c14.7-5,29.5-9.5,44.5-13.7
			l0.1-0.3c3.1-0.4,6.2-1.1,9.2-2.3c5.4-2.3,11-3.9,16.5-5.7c10.5-2.7,20.9-6,31.3-9.3c3.5-1.1,7.6-3.1,8.2-7.2
			c0.8-2.6-1.2-4.7-2.9-6.3h-0.4c-20-16.1-39.5-32.9-59.5-49c-5.5-4.4-10.6-9.3-16.3-13.6c-6.5-5.3-13.9-9.8-19-16.6
			C809,415,806.9,417.5,804.8,419.9 M643.8,441.1c-4.6,0.8-9.3,0.2-13.9,0.5c-13.3,0.7-26.5,2-39.7,2.5c-0.5,8.3-0.2,16.6,0,24.9
			c5.5,1.3,11.1,2.8,16.8,2c17.2-1.6,34.5-3.4,51.8-3.7c-0.1-9.1,0-18.3-0.2-27.4c-2.9,0.8-5.8,2-8.8,1.4c-1.5-0.6-1.4-2.6-2-3.8
			C645.7,437.5,644.5,439.3,643.8,441.1 M559.3,448.3l0.1,0.5c-3.6,0.7-7.1,1.9-10.6,2.9c-2.9,0.9-6.1,1.4-8.1,3.8
			c3.7,1.1,7.6,1.5,11.3,2.7c4,1.2,7.9,2.9,12.1,3.3c0-2.4,0-4.8,0-7.2c0-2.1,0-4.2-0.1-6.3C562.4,448.1,560.8,448.2,559.3,448.3
			 M459.4,479.4c-5.5,3.3-11.4,6.5-15.2,11.9c14.6-1.4,29.2-0.9,43.8-0.9c5.6,0.1,11.2-0.3,16.8,0.3c-0.1-5.4,0.8-10.7,1.1-16
			c-4.3,2.9-8.8,7.6-14.5,5.7c-5.4-1.4-7.4-6.8-9.8-11.1c-0.4-0.1-1.1-0.2-1.5-0.2C473,472.1,466.1,475.7,459.4,479.4 M533.7,488.5
			c4.2-1.9,8.8-3,12.7-5.4c-4.3-1.5-8.9-2.1-13.5-2.5C528.1,480,528.8,490.8,533.7,488.5 M677.1,488.9c0.4,3.2,0.2,6.5,0.4,9.7
			c-0.8,5.1-0.4,10.2-0.4,15.4c-0.1,40.6,0,81.3,0.2,121.9c0,3.2-0.2,6.4,0.4,9.6c-0.1,7.1,0.2,14.3-0.2,21.4
			c0.1,4.5-0.6,9.2,0.6,13.6v0.5c19.3,4,38.9,7.2,58.3,10.5c4.8,0.5,9.2,2.5,14,2.9c8,1.3,16,2.2,23.9,3.9c3.4,0.6,6.7,1.9,10.3,1.9
			c3.3-4.3,7.8-8.2,13.3-9.2c6.5-0.3,12.5,3.9,16.2,9.1c1.7,2.4,1.7,6.1,4.3,7.8c3.3,0.3,6.5,0.1,9.8,0.7c9.4,1.7,18.9,2.7,28.3,3.9
			c-2.8-6.1-6.9-11.5-10.5-17.2l-0.4-0.2c-2.2-3.7-4.7-7.2-6.9-10.9c-8.4-13.8-17.5-27.1-26.2-40.6c-15.9-24-31-48.6-47.2-72.4
			c-3.5,0.8-7.6,1.7-10.8-0.5c-5.9-3.5-12-10-9.5-17.5c0.3-1.8,1.3-4.1-0.7-5.4c-14.6-13.5-29.8-26.5-45.1-39.1l-0.3-0.5l-0.5-0.2
			C691.7,501.1,684,495.5,677.1,488.9 M918.5,503.7c0,1.8,1.5,3.1,2.5,4.5l0.1-0.4c1.3,1.9,3.5,3.1,5.8,2.9c2.5-1.2,4.8-3.2,6-5.7
			c0.6-2.1-0.8-3.7-2.2-5v-0.1c-1-0.9-1.9-1.9-3-2.7C923.7,496,918.7,499.3,918.5,503.7 M905.9,517c-3.5,1.2-7.1,2.1-10.6,3.1
			l-0.2,0.2c-16.5,3.9-32.1,10.7-48.6,14.7c-12.3,3.6-24.6,7.1-37,10.2c-10,3.3-19.9,6.9-30.2,9c2.2,2.3,5.3,3,8,4.3
			c10.5,4,21.3,7.4,32,11.1c17.5,5.9,34.5,13.3,52.3,18.4c2.5-5.7,6.3-10.6,9.2-16c5.5-8.5,11.1-17,16.2-25.8
			c4.3-5.9,7.7-12.5,11.8-18.6c0.9-1.6,2.3-3.1,2.6-4.9l0.2,0.5c1.2-2.5,3.1-5.1,2.2-8C911.3,515.9,908.6,516.7,905.9,517
			 M445,516.1c1.3,1.8,2.6,3.5,4.4,4.7c7,5.2,14.5,9.7,22.3,13.5c6.3,3,13.3,6.4,20.5,4.6c3.3-0.4,3.4-4.3,3.2-6.9
			c-0.5-4.9,0.3-9.8,1.1-14.6c-13.5,0.1-26.9-0.1-40.4-0.2C452.3,517.1,448.6,516.5,445,516.1 M753.9,553.4
			c-0.5,5,5.4,10.7,10.2,7.7c2.3-1.9,5.5-4.7,4-8.1c-1.6-3-4.2-6.5-8.1-6.1C757,547.8,755.6,551,753.9,553.4 M774.6,564.9
			c5.2,9.2,11.6,17.5,17,26.5c22.4,34.9,45.5,69.4,67.6,104.4l0.3,0.1c2.2,3.4,5,6.5,8.3,8.9c2.7-1.5,5-3.6,6.7-6.1
			c2.5-3.3,4.5-7,6.5-10.6c11.1-20.1,21.9-40.5,34.1-60c-1.5-3.3-2.8-6.8-4-10.2c-1.1-3.9-5.6-4.9-8.8-6.3
			c-27.6-10.3-55.4-19.9-83-30C804.5,575.9,789.2,571.3,774.6,564.9 M921.4,616.6c1.8,2.8,4.7,7.9,8.6,5.1c2.4-1.7,5.8-3.6,6.1-6.8
			c-2-3.6-5-6.5-8.2-9C924.3,608,919.8,612,921.4,616.6 M438.6,628c-0.6,32.7-0.5,65.3,0,98c0,9.7,1,19.4,3.8,28.8
			c1,2.9,2.9,5.6,5.4,7.5c2.1,1.6,4.8,1.7,7.1,2.7c1.9,1.1,3.3,2.8,4.8,4.4c2.9,3.2,2.7,7.8,3.8,11.8c-0.1,0.4-0.5,1.1-0.6,1.5
			c2.5,4.6,6.6,8.2,8,13.3c2.3,7.1,2,14.7,2.1,22.1c0,27.3,0.1,54.7,0.2,82c-0.1,117.4-0.4,234.8-0.2,352.2c2.3-0.1,4.7-0.1,7-0.1
			c0-47.4,0.1-94.7-0.1-142.1c0.2-2.3-0.4-5.5,2.1-6.8c17.7-11.6,38.2-17.8,58.3-23.7c21.3-6.1,43.1-10.5,65.1-13.8
			c15.5-2,31-3.5,46.5-5c4.5-0.5,9.1,0,13.4-1.3c2-3.9,1.2-8.8,1.3-13c-5.5-0.2-11.1-0.1-16.7-0.1c-47.8-0.2-95.6,6-141.9,17.8
			c-10.7,2.5-21,6.9-32.1,8c0.5-2.2-0.1-4.9,1.1-6.8c4.8-3.7,10.6-5.6,16.2-7.8c17.6-6.1,35.9-10,54.1-13.9
			c25.5-5.2,51.5-7.7,77.4-9.7c13.8-1.1,27.8-0.1,41.5-1.4c-0.2-9.2-0.8-18.4-0.7-27.7c0-30,0-60,0-90c0.7-12.3,0.3-24.6,0.4-36.9
			c-0.3-17.7,0.1-35.4-0.4-53c-0.1-19.2,0.2-38.4-0.2-57.6c-13.2,0.2-26.5-0.4-39.6,1c-12.4,0.5-24.8,1.8-37.2,2.6
			c-28.9,4.6-58.1,8.3-86.3,16.4c-1.1,0.1-2.9,0.9-3.4-0.6c-1.4-3.3,0.3-7.5,3.4-9.1c6.1-3.2,12.9-4.7,19.4-6.5
			c37.4-8.8,75.7-13.4,114-15.8c10.2-1.3,20.5-0.9,30.7-0.9c0-4-0.3-8-0.3-12c-3.3-1.3-6.9-0.6-10.4-0.4
			c-36.5,0.4-73.2,2.8-109.1,9.6c-21.1,4.1-42.4,8.2-62.6,15.8c-3.5,1-7.3,2.9-10.8,0.9c0.2-1.9-0.7-4.4,1.1-5.8
			c3-2.9,7-4.5,10.8-6.1c14.7-6.1,30.4-9.4,45.9-13c14.2-3.2,28.7-5.5,43-8c6.3-0.1,12.5-1.2,18.7-1.9c20.3-2.3,40.7-3.1,61.1-4
			c4.1-0.3,8.4,0.2,12.4-1c-0.8-14-0.1-28-0.5-42c-41.5-0.3-83.2,2.7-124,10.4c-17.9,3.4-35.7,7.4-52.9,13.4
			c-8.6,2.9-17,6.4-25.4,9.8c-3.7,1.4-7.5,3-11.5,2.8c0.1-2.6-1.4-6.3,1.6-7.8c10.1-6,21.3-9.8,32.2-13.9
			c37.4-14,77.1-20.8,116.8-24.6c16.4-1.1,32.7-2.9,49.1-3.3c4.9-0.1,9.9,0.1,14.8-0.4c-0.1-2.9-0.2-5.8-0.2-8.7
			c-11.5-0.8-23,0.3-34.5,0.8c-14.4,1-28.8,1.6-43.1,3.3c-13.7,1.9-27.4,3.6-41,6c-21.2,3.3-42.1,8.5-62.9,13.8
			c-8.5,2.7-17,5.6-25.4,8.7c-3.8,1.4-7.4,3.4-11.3,4.4c-0.6-26-0.6-52.1-0.4-78.1c0-4.8,0.2-9.6,1.3-14.3
			C443.4,613.4,438.4,620.2,438.6,628 M922.3,635.2c-11.7,21.6-23.3,43.3-35.5,64.7c-1.6,3.1-4.4,5.7-5.3,9.1
			c0.5,1.8,1.9,3.1,2.9,4.7c2.5,2.8,1.3,6.8,1.5,10.2c6.6,5,14,8.8,21,13.1c4.2,1.9,8.1,5.2,12.9,5.1c2.2-4.7,1.7-10.1,1.9-15.2
			C922.1,696.3,921.7,665.7,922.3,635.2 M931.8,645.5c0.2,2.4,0.6,4.9,1.4,7.2c3.8,1.8,7.7,3.6,11.6,5.2
			c27.9,12.2,54.8,26.6,80.6,42.7c47.3,30,91.1,65.6,129.6,106.4c51.8,55.1,94.2,119.1,124.7,188.4c8.8,19.2,15.6,39.1,22.8,58.9
			c7.8,22.8,13.6,46.1,18.7,69.6c10.7,48.8,15.8,98.9,15.1,148.9c-0.5,10.3,0,20.6-1.2,30.9c-0.2,18.2-3.1,36.2-5.2,54.2
			c-3.3,21.1-7.1,42-12.2,62.8c-10.1,43.6-25.7,85.8-44.6,126.3c-16.2,35.6-36.5,69.2-58.8,101.3c-20.9,29.6-44,57.6-69.6,83.3
			c-27.1,28.2-57.4,53-89.1,75.9c-33.5,23.8-69.3,44.2-106.4,61.6c-17.7,7.6-35.3,15.5-53.6,21.6c-3.6,1.2-7.2,2.4-10.8,3.7l1.1,0.7
			c-0.7,0-2.2,0-2.9,0c-7,2.6-14.2,4.6-21.1,7.3c-5.3,1.4-10.5,3.3-15.9,4.6c-19.3,5.8-39.1,9.5-58.9,13.1c-3.3,0.1-6.5,0.9-9.6,2
			c-5,0.2-9.9,1.5-14.8,1.9c-2.1-0.2-4.1,0.4-6.2,0.6c-28,4-56.3,4.1-84.5,5.1c0,2.1-0.1,4.3-0.1,6.5c19.1,0.3,38.2-0.6,57.2-2.6
			c23.8-2,47.4-5.9,71-10.1c81.6-16,160.3-47.3,230.4-92.1c15.8-10.4,31.7-20.8,46.5-32.5c12.9-9.6,25.1-20.1,37.2-30.6
			c14.7-13.7,29.7-27.1,43.2-41.9c11.3-11.4,21.5-23.8,31.9-35.9c31.8-38.3,59-80.4,81.1-125.1c19.1-38.4,34.8-78.4,46.3-119.7
			c5.7-21.8,10.6-43.7,14.5-65.9c4-21.7,6.3-43.7,8.5-65.7c2.7-48.7,2.2-97.9-5.7-146.1c-3.5-23.2-7.9-46.3-13.7-69.1
			c-5.4-23.1-12.6-45.8-21-68c-6.9-20.4-15.9-39.9-25-59.4c-33.2-68.4-78.3-131-132.1-184.8c-15.5-14.6-30.9-29.3-47.5-42.5
			c-28.4-23.4-58.7-44.3-90.6-62.5c-18-10.9-37.1-19.8-56-29.2l0.1-0.3C942.7,650.1,937.5,647.3,931.8,645.5 M379.5,676.4
			c-19.3,9.5-37.9,20.6-56.3,31.8c-16.1,9.6-31,20.9-46.1,31.9c-14.1,10.8-27.9,21.9-41,33.9c-30.7,26.9-58.3,57.4-83.3,89.6
			c-11.7,15-22.3,30.8-32.6,46.7c-20.6,31.7-37.8,65.5-52.7,100.2c-11.7,27.8-20.8,56.5-29.2,85.4c-6.9,25.7-11.4,51.9-15.3,78.1
			c-3.8,25.4-5.1,51.1-6.2,76.8c6.6,1.3,13,3.2,19.4,5.1c20.2,6.2,40.9,10.4,61.1,16.6c3.5-6.2,6.6-12.7,11.1-18.3
			c6.7-9.5,15.4-17.2,23.6-25.3c5.2-5.2,11.5-8.9,17.6-12.8c-0.1-7-1.9-14.2,0.4-21.1c3-8.3,7.4-16.3,14.1-22.1
			c9.6-8.1,22.7-12.4,35.2-10.3c9.5,1.5,18.2,6.6,25.1,13.3c5.8,5.7,9,13.5,11.2,21.2c1.6,5.8,0.7,11.9-0.1,17.7
			c0.2,0.3,0.6,0.9,0.8,1.2c4.9,1.8,10,2.7,15,4.2c40.1,10.8,80.1,22.2,120.1,33.2c9,2.8,18.6,1.6,27.8,1.5
			c15.9-0.6,31.8-1.3,47.7-0.9c-0.6-8.3-0.6-16.6-0.6-24.9c-0.1-129.7-0.1-259.3-0.1-389c0.2-11-0.5-22.1,0.4-33.1
			c0.2-1.5-0.4-3-1.6-3.8c-3.5-3.4-6.9-7.8-5.9-13c0.5,0.2,1.4,0.5,1.8,0.7c-3.7-3.1-7-6.7-10.8-9.8c-4.2-4.6-8.1-9.5-11-15.1
			c-4.6-10.3-6.4-21.7-6.5-33c-0.4-24,0.4-48,0-71.9C401.5,666.1,390.4,671.2,379.5,676.4 M932.7,664.8c-0.4,21.1,0.3,42.2-0.1,63.2
			c-0.1,3.8-0.7,7.8,0.3,11.5c6.6,2.8,12.1,9.1,12.3,16.5c-0.3,4.7-3.4,8.6-6.7,11.7c-3.1,2.7-6.4,5.7-10.7,6
			c-2.9-0.3-5.4-2-7.9-3.2c-8.9,6.9-17.2,14.5-25.7,21.9l-0.3,0.1c-7,5.7-13.9,11.5-20.6,17.6v0.2c-4.4,3.9-9.1,7.6-12.7,12.3
			c-2.1,2.7-1.5,6.2-1.9,9.4c-1.1,2.6-3.6,4.3-4.9,6.8c6.7,16.6,12.5,33.5,19.5,50.1c3,9.1,6.7,17.9,9.9,26.9
			c3.3,8.5,6.1,17.1,9.9,25.5c0.8,2.2,0.8,5.2,3.4,6.1c3.8,1.7,7.9,3.1,11,6.1c3.3,3,7.5,6.7,6.4,11.7c-1.7,7-6.8,12.7-12.1,17.3
			c0.1,6.5,0.5,13.1,0.5,19.6c0,32,0.1,64-0.3,96c0.1,6.6-0.5,13.3,0.1,19.9c1.6,2.5,4.7,3.8,6.7,6.1c3,3.5,6,7.9,4.8,12.8
			c-1.1,6.5-5.9,11.7-11.7,14.5c0.3,39.6,0.5,79.3-0.1,118.9c4.7,3.8,10.9,7.1,12,13.7c-0.8,2.3-1,4.7-1,7.2c1.9,1.8,3.9,3.5,6.1,5
			c16.7,11.3,33.4,22.6,49.9,34.3c16.4,11.6,33.2,22.5,49.4,34.5c8,5.3,16,10.5,23.8,16.1c15.7,11.1,31.7,21.7,47.4,32.8
			c7.1,4.9,13.8,10.4,21.2,14.9c3.2-1.6,6.6-3.5,10.3-3.6c4-0.3,7.7,1.8,10.7,4.2c3.9,3.8,7.8,8.7,6.8,14.5c5.1,1,10.2,1.7,15,3.8
			c32.5,11,65.3,21.1,97.8,32.3c11,3.8,22.1,6.9,32.8,11.5c3.4-9,6.6-18,9.4-27.2c6.5-22.2,13.2-44.4,17.5-67.1
			c4.8-23.5,8.1-47.2,10.1-71.1c1.8-25.1,3.6-50.3,2.8-75.4c-1.3-23.8-1.9-47.8-5.3-71.4c-1.6-13.5-3.7-26.9-6.4-40.1
			c-4.7-22.1-9.9-44-16.3-65.7c-17.1-56.9-42.5-111.3-74.5-161.4c-21.2-33.4-45.7-64.6-72.3-93.9c-6.4-7.1-13.5-13.7-20.2-20.6
			c-14.1-14.3-29.5-27.2-44.9-40.1C1037.8,719.8,986.7,689,932.7,664.8 M677.3,755.7c-0.1,3.2-0.1,6.4,0.1,9.6
			c0.3,38.7,0.2,77.4-0.3,116.2c12.4-16.9,23.1-34.9,35.1-52c6-8.5,11.7-17.2,17.3-26c6.5-9.4,13.1-18.9,19.2-28.6
			c0.9-1.9,3-3.4,3.1-5.5l0.7,0.1c2-2.8,3.9-5.6,5.6-8.5c3.1-4.6,6.3-9.2,9.1-14.1h0.3c1.7-3.1,3.7-6,5.6-9
			c4.2-6.8,9.8-12.7,14.6-19c-0.9-3.2-3.9-5.4-6.5-7.3c-16.2-5.1-33.2-6.5-49.8-10c-18-3.5-36-6.3-53.9-10
			C676.5,713,678.1,734.3,677.3,755.7 M795.7,701.6c-2.9,1.6-4,5-3.8,8.2c2.1,2.3,3.4,6.5,7.1,6.4c3.4-1.2,7.6-2.8,8.1-7
			C808.2,703.2,800.6,698.6,795.7,701.6 M860.1,720.3c1.8,4.3,5.7,9.1,10.8,8.8c2.9-2.2,5.1-5.5,6.3-8.9c-2.1-2-3.7-4.5-5.7-6.7
			C867,712.7,862.2,716.4,860.1,720.3 M813.5,717.5c-1.8,0.9-3.3,2.7-2.8,4.8c1.7,7.8,5.8,14.7,8.3,22.2c2.3,4.9,3.2,10.4,6.3,14.8
			v0.3l-0.1,0.6l0.3,0.1c0.7,2.7,1.7,5.3,2.7,8c2.5,6.5,5,13,7,19.7l0.3,0.1c2.3,6.4,4.1,13.1,7.3,19.1c2.8,2.4,6.7,3.1,9.8,5.2
			c1.7,1.2,3.2-0.5,4.4-1.5c3.9-3.7,7.8-7.4,11.7-11.2h0.2c3.4-3.5,7.4-6.4,10.8-9.9c3.7-3.6,7.9-6.6,11.5-10.3l0.1-0.1l0.1-0.2
			c6.1-5.2,12.4-10.3,17.9-16.2c3.8-4.1,0.8-10.5-3.2-13.2c-8.5-5.8-17.2-11.3-26-16.7c-4,2.1-8,6.3-12.9,5
			c-7.4-2.8-14-8.8-15.9-16.7c-4.4-0.9-9,0.5-13.3-0.9c-5.5-1.4-11.1-1.7-16.6-3.3C818.8,717.1,815.8,715.8,813.5,717.5 M786.5,735
			h-0.2c-1.5,2.6-3.5,4.9-4.7,7.7c-3.7,6-7.7,11.9-11.5,17.8l-0.2-0.1c-2.7,3.7-5.5,7.3-7.8,11.2c-12.6,20.4-26.3,40.1-39.2,60.3
			c-14.4,21.4-27.9,43.3-42.8,64.4c21.3,6,42.4,12.6,63.8,18.1v0.4c2.9,0.7,5.7,1.7,8.5,2.5c3,0.5,5.8,2.2,8.8,2.6
			c4.2-3.2,8.7-7.9,14.6-6.4c6.2,2,10.7,7.2,14.2,12.4c0.4,1,0.9,2,1.3,3c4.8,1.1,9.3,3.1,14.2,3.7c12.4,3.9,25,7.6,37.4,11.4
			c11,2.8,21.7,6.8,32.8,9.6c2.5,1.3,5.4,1.9,8.2,2.3c-0.5-2.7-1.2-5.3-2-7.9l-0.3-0.2c-1.5-5.7-3.9-11.1-5.9-16.7
			c-4-10.1-7.1-20.6-10.9-30.9c-6.9-18.2-13-36.7-20.3-54.8c-0.6-2.2-2.8-3.3-4.9-3.6c-1.2,0.2-2.4,0.4-3.5,0.6
			c-2.8-1.8-4.6-4.5-6.1-7.3c-2-3.5-5.9-6.7-4.9-11.2c1.3-4.7,5-8,7.6-11.9c-0.5-5.1-3.6-9.3-5.3-14c-2.5-6.6-5-13.3-7.3-20
			c0.2-1.2-0.7-2.2-1.2-3.1c-1.8-6.8-4.3-13.5-6.8-20.1c-1.6-4.2-2.7-8.7-4.8-12.8c-2.1-6.7-5.4-13-8.6-19.3
			C793.6,725.6,789.6,730,786.5,735 M921,753.4c-0.4,3.8,0.8,7.6,4.2,9.7c5.6,0.3,10.2-4.9,11.1-10.1c-2.6-2.4-5.8-4.3-9.4-4.4
			C924.5,749.5,922.8,751.5,921,753.4 M836,826.9c1.2,2.4,3.4,4,5.1,5.9c6,2.2,12.1-6.9,7.5-11.7c-1.9-1.5-3.9-3.6-6.6-3.3
			C837.5,817.5,834.8,823,836,826.9 M677.8,906c-0.5,41.4-0.2,82.8-0.5,124.3c1.8-1.2,3.2-2.9,4.4-4.6c19.9-24.3,40.7-47.9,61-71.9
			c5.7-6.6,11.9-13,15.8-21c-5.6-3.9-12.3-5.8-18.8-7.7c-11.3-3-22.6-6.5-33.8-10.1C696.7,911.8,687,909.6,677.8,906 M766.1,933.8
			c2,2.3,4.7,5.6,8.1,5c2.7-1.5,5.4-3.3,7.1-5.8c-0.2-4.9-4.7-9-9.5-9.9C769.3,926.3,764.3,929.2,766.1,933.8 M787.5,939.4
			c-3.7,2.9-5.5,8.4-10.5,9.4c-4.6,0.9-8.6-1.9-12.5-3.7c-7.7,7.5-13.6,16.5-21.2,24.1c-12.9,15.7-26.3,31-39.5,46.4
			c-5,6.1-10.9,11.5-15.4,17.9c3.1-0.9,6.1-1.9,9-3.2c60-22,120.4-43.1,180.6-64.4c-18.7-6.5-38-11.1-56.9-17.1
			C809.8,946.1,798.8,942.3,787.5,939.4 M894.3,958.2c-2.8,2.3-7.3,6.8-3.9,10.4c2.5,2,6,5.8,9.2,2.9c2.2-1.8,5.7-3.9,4.6-7.4
			C902.1,960.8,898.3,957,894.3,958.2 M873.7,978.7c-22.9,9.3-46.4,16.8-69.6,25.3c-19.8,6.9-39.3,14.5-59.5,20.4
			c-11.4,4.2-22.8,8.5-34.2,12.9c-5.2,1.2-10.3,3.3-15.2,5.5c-2.7,0.9-5.4,1.4-8.1,2c4.5,3.5,10.1,4.9,15.3,7
			c11.3,4.2,22.7,8.1,33.9,12.7l0.1,0.3c26.1,10.7,52.4,20.8,78.3,31.8c3.4,1.3,6.5,3.6,10.2,3.9c3.5-3.6,8-7,13.3-6.4
			c8,1.2,15,7.9,16,16c0.2,1.4,0.6,3.2,2.3,3.4c9,2.4,17.1,7,25.7,10.5c3-0.8,6.1-2.7,8-5.2c0.5-3.6,0.3-7.2,0.4-10.8
			c-0.3-41,0.1-82-0.1-123c0.5-3.9-3.1-6.5-6-8.3C880.8,974.2,877,977.5,873.7,978.7 M677,1052.4c0.4,26.5,0.4,53.1,0.5,79.6
			c-0.2,22.3,0.1,44.5-0.5,66.8c10.1-5.3,19.7-11.6,29.6-17.2c2-1.3,4.8-2.3,5.2-4.9c0.5-3.7,0.5-7.8,3-10.9
			c3.5-4.8,8.8-9.7,15.2-8.8c4.2,0.2,7.6,2.9,11,5c6.7-4.4,13.2-9,20.2-12.9c16.9-9.7,33.6-19.7,50.4-29.5c3.4-2.3,7.5-3.8,9.8-7.4
			c-6.2-4.3-13.5-6.5-20.3-9.5c-18.3-7.2-36.8-14.3-54.9-22c-17.1-6.8-34.5-13.2-51.3-20.7C688.8,1057.8,683.3,1054.3,677,1052.4
			 M829.1,1109.9c0.7,3.4,1.9,7.2,5.6,8.3c4.1,2.1,7.9-1.9,9.3-5.4c-0.1-0.4-0.3-1.2-0.4-1.6c0.7-2.8-2.3-5.9-4.8-7.1
			C834.5,1101.4,831.4,1106.9,829.1,1109.9 M847.8,1122.7c-0.2,4.1,1.7,7.8,2.7,11.7c6.1,19.8,13.6,39.2,20.1,58.9
			c7.2,20.5,13.6,41.2,20.1,61.9c0.2-10.1-0.6-20.1-0.5-30.2c0.2-24.4-0.1-48.8,0.8-73.2c-3.9-2.2-7.4-5.1-10-8.8
			c-1.9-3.2-0.8-8.6-5.1-10C866.7,1129.2,857.7,1124.3,847.8,1122.7 M822.6,1125.7c-19.6,11.3-39,23-58.6,34.3
			c-6.1,3.8-12.7,7.1-17.8,12.3c-1.3,1.2-1.3,2.9-1.5,4.5c5.9,6.4,13.8,10.4,20.8,15.4c33,22,66,44,98.9,66.3
			c7.3,4.7,14.1,10.3,21.5,14.8c-2.8-9.2-6-18.2-9.2-27.3c-6.4-17.8-12-35.8-18.3-53.7c-6.7-19.6-13-39.4-20-58.8
			c-1.3-5-6.5-6.7-10.7-8.5C826.1,1123.9,824.2,1124.9,822.6,1125.7 M894.4,1128.4c-2.5,1.5-5.9,4.1-4.6,7.5c0.7,2,0.7,5.1,3.2,5.9
			c3.3,1.1,7.8,0.1,9.4-3.3C906.5,1133.8,899.8,1125.7,894.4,1128.4 M722.3,1171.3c-3.2,5.5,4.2,11.5,9.6,9.8
			c1.8-2.1,4.6-4.1,4.3-7.2c-0.2-3.3-3.1-6.1-6.3-6.7C726.8,1166.1,724,1168.9,722.3,1171.3 M678,1210.4c-1.5,4-0.5,8.4-0.7,12.6
			c0.4,19.2,0.2,38.4,0.3,57.7c0,5.3,0.1,10.5,0.2,15.8c-0.4,11-2.2,22-1.4,32.9c2.6-7,4.4-14.2,6.3-21.3
			c7.5-24.6,14.9-49.3,22.1-73.9c4.4-12.1,7.7-24.7,11.5-37c1-3.5,2.9-6.8,2.8-10.5C705.3,1194.3,691.7,1202.6,678,1210.4
			 M182.9,1190.9c-4.7,3.6-8,9.2-8.8,15.1c0.2,5.5,3.5,10.3,5.6,15.3c2.6,3.8,0.3,8.9-3,11.4c-5.7,3.6-12.5,5.2-18.3,8.7
			c-9.8,5.5-18.1,13.4-24.6,22.5c-10.8,13.7-18.9,29.2-25.7,45.2c9-2.5,18.4-3.5,27.5-5.6c22.4-2.4,45-3.3,67.6-2.8
			c10.6-0.4,21.1,1.6,31.6,1c4.2,1,8.6,0.9,12.9,1.7c6.6,0.9,13,2.4,19.6,3.4c3.6,0.7,7.4,1,10.6,2.9c-8-18.9-18.4-36.9-31.9-52.4
			c-6.3-7.1-14.1-12.9-22.5-17.3c-7-3.1-16.7-4.9-19-13.4c-1.9-3.9,1.6-7.4,3.5-10.6c2.3-3.8,5.3-8.5,3.4-13
			c-1.9-3.9-4.7-7.3-7.8-10.3C198.1,1187.2,189.1,1186.9,182.9,1190.9 M728.1,1197.1c-7.7,25-15.8,50-22.4,75.3
			c-4.7,15-9.5,30.1-14.1,45.2l-0.3,0.1c-0.9,2.6-1.6,5.1-2.4,7.7c-1.2,3.7-2.4,7.4-3.2,11.2l-0.4,0.3c-0.3,1.2-0.6,2.4-0.9,3.6
			c-1.3,4.6-2.8,9.2-4,13.8c6.3-1.3,12.1-4.3,18.2-6.4l0.4,0.2c6.4-2.3,12.9-4.4,19.3-6.6l-0.3-0.2c3.6-0.9,7.2-2.1,10.8-3.5
			l0.3,0.1c13.3-4.8,26.8-8.7,39.9-13.8c25-8.4,49.9-17.2,75-25c8.8-3.6,18.2-5.4,26.9-9.2c1.8,0.2,3.5-1.1,5.1-1.7
			c1.7-1,4.2-1.9,4.5-4.2c-3.1-3.8-7.7-6-11.5-8.9c-42.4-28.3-84.6-56.8-126.8-85.3C736.7,1186.1,729.4,1191.3,728.1,1197.1
			 M275.8,1252.8c2.5,4.5,5.7,8.5,8.4,12.9c9,14.9,16.9,31,19.8,48.4c0.3,2.7,2.9,3.9,5,5c9,4.5,17.9,9.8,24.3,17.7
			c4.3,5.4,8.1,12,7.7,19.1c0,7.3-4.4,13.6-9.2,18.7c-7,7.1-15.7,12.5-24.8,16.5c-0.5,1.2-1.1,2.4-0.9,3.7c0.3,7,0.3,14,0.3,21
			c0.2,50,0.3,100-0.3,149.9c10.4,3.8,20,9.4,28.5,16.4c5.3,4.6,10.3,9.9,12.6,16.6c2.7,7.1,4.8,15.4,1.3,22.6
			c-3.9,8-9.8,14.9-15.9,21.2c9.7,1.9,19.1,4.9,28.6,7.3c19.5,5.5,39.2,10.1,58.8,15.3c38.6,10.4,77.5,20.2,116.1,30.6
			c25.5,6.7,51.1,13.3,76.6,20.4c18.2,4.6,36.2,9.9,54.5,13.8l0.4-0.6c1-13.3,3.3-26.4,5.5-39.5c1.6-11.7,3.6-23.4,5.2-35.1
			c3.2-10.7,3.8-22,5.9-32.9c1.9-13.1,4.6-26.1,6.6-39.2c1.2-10.2,3.1-20.4,5.3-30.4c-7.8,13.1-13.7,27.5-23.1,39.6
			c-0.6,22.8,0.3,45.5,0.3,68.3c-0.6,0.3-1.7,0.8-2.3,1c-3.6-1-6.8-3-9.4-5.6c-0.8-27.3,0.1-54.5-0.1-81.8c0.1-28.7-0.1-57.3-0.1-86
			c0.1-10.7-0.4-21.4,0.4-32.1c1.2-0.5,2.4-1,3.7-1.5c0.7-6.5,0.2-13,0.3-19.5c0.2-24.3-0.1-48.6,0.4-72.9
			c-12.1-4.6-24.6-8.2-36.9-12.4c-19.4-6.7-38.8-13.2-58.1-19.8c-8.7-3.1-17.8-5.6-26-10c-0.9-3.5-1.9-7-2.7-10.5
			c-2-10.9-5.2-21.6-6.5-32.7c-6.6-0.2-13.3-1.8-19.8-0.1c-18,1-36.1,1.4-54.1,2c-24,0.5-48,2.5-72,3.3c-7,0.1-14.3,0.6-21-1.9
			c-21.8-5.6-43.2-13.1-65.1-18.2C294.4,1259.2,284.4,1257.8,275.8,1252.8 M598,1267.3c5,3.1,10.9,4.3,16.3,6.4
			c11.4,3.5,22.6,8,34.1,10.9c6.4,2.3,13,4.2,19.5,6.1c0.1-3.8-2.7-6.3-6.2-7c-4.1-1.9-8.5-3-12.8-4
			C631.9,1275.5,615,1271.3,598,1267.3 M16.8,1277.1c1.5,33.6,3,67.4,9.7,100.5c1.8,8.1,2.8,16.4,4.5,24.6c3.3-2.7,6.5-5.7,9.8-8.4
			c5.9-5.1,12.8-8.7,18.8-13.6c-7-5.2-12.8-12.6-14.8-21.2c-0.4-7,2-13.9,5.2-20c7.5-10.3,19.1-16.3,30-22.1c1-2.5,1.7-5.1,1.9-7.8
			c0.3-4.9,3.6-8.9,5.1-13.4c-3.8-0.7-7.5-1.5-11.2-2.5C56.1,1288,36.2,1283.2,16.8,1277.1 M888.9,1290.8c3.4,1.3,7.2,3.5,10.9,2
			c2-1.3,4.5-3.2,4.5-5.9c-1.8-3.8-5-7.6-9.2-8.8C892.2,1281.7,889.1,1285.9,888.9,1290.8 M548.9,1278.5c3.2,9.6,5.4,19.5,7.6,29.4
			c9.9-1.4,19.6-4.4,29.5-5.8c1.3-0.3,3.2-0.2,3.4-1.9c-1.3-4.5-3.9-9.4-8.6-11C570.3,1285.1,559.4,1282.4,548.9,1278.5
			 M600.7,1295.8c0.1,1.3,0.2,2.6,0.3,4c2.9,3.3,7.2,4.7,11.2,6.1c18.4,6.3,36.9,12.4,55.3,18.6c-0.2-2.1-0.1-4.2-0.8-6.2
			c-2.8-1.9-6.4-2.4-9.6-3.6C638.4,1308.1,619.7,1301.5,600.7,1295.8 M883,1301c-13.8,9.7-28,18.6-41.9,28.2
			c-8.8,5.9-18.3,11.2-25.9,18.6l-0.7,0.1c1,2.8,4.3,2.9,6.6,3.9c34.3,9.5,68.7,18.7,102.8,28.7c5.6,1.2,10.9,3.6,16.6,4.3l0.7,0.5
			c19.7,5.7,39.6,10.9,59.1,17.3c4.3-3.7,9.6-7.2,15.7-6.1c7,1.7,12.6,7.8,14.5,14.6c20.8,5.2,41.5,10.8,61.4,18.6
			c-7.7-7.4-17.3-12.3-25.9-18.4c-16.5-11.5-32.8-23.2-49.6-34.3c-15.8-11.4-32.1-21.9-47.9-33.4c-12.9-9.6-26.6-17.9-39.5-27.3
			c-7.8-5.1-14.9-11.5-23.1-16c-3.7,2.4-8.3,6.1-12.8,3.6C889.8,1302.6,886.5,1298.6,883,1301 M782.9,1331
			c-15,5.7-30.5,10.2-45.8,15.2c-7.9,2.5-15.5,5.8-23.6,7.5c22.6-1.2,45-4.9,67.6-6.4c2.2-3.7,4.3-7.4,7.4-10.4
			c4.7-4,11.8-5.1,17-1.4c1.7,0.8,3.6,3.2,5.4,1.5c7.8-5.6,15.3-11.6,23.6-16.4c8.2-5.6,17.6-9.5,24.9-16.3
			C834.3,1314.2,808.4,1322.3,782.9,1331 M583,1316.9c-1.4,0-2.5,0.8-3.5,1.6c11.1,3.7,22.6,6.3,33.6,10.3
			c18.1,5.9,35.8,12.8,54.1,17.9c0.1-2.5-0.2-5.1-0.7-7.5c-12-3.8-23.7-8.2-35.6-12.1c-10.7-3.5-21.1-7.9-32-10.7
			C593.7,1315.2,588.3,1315.9,583,1316.9 M144.1,1328.6c-9.1,1.5-18.2,2.7-27.1,4.9c-13.2,3.1-26.8,5.9-38.6,12.9
			c-3.7,1.9-8,4.9-7.6,9.6c2.7,2.7,5.2,5.8,9,7.1c-0.3-4.4-1.3-9.6,2.4-12.9c5.1-4.8,12.5-5.6,18.8-7.7c15.1-4.1,30.5-6.9,46-8.5
			c6-0.8,12-0.4,18-1.3c21.3-1.3,42.8-1.9,63.9,1c17.4,0.3,34.6,3.8,51.6,7.8c7.1,2,14.5,3.4,21,6.9c4.2,3.4,4,9.4,4.9,14.3
			c2.5-1.8,5-3.7,6.8-6.3c2-2.3-0.5-5.2-2.4-6.7c-9-7.1-20.2-10.4-31.1-13.5c-6.6-1.7-13.1-3.7-19.8-4.7c-9.7-1.5-19.2-4.1-29.1-4.5
			c-15-0.4-30-1.8-45-1.3C172,1326.5,158,1326.4,144.1,1328.6 M796.2,1343.2c-2.9,1.6-5.6,5-5.1,8.5c1.5,2.3,3.2,4.5,5.1,6.4
			c1.9,1.3,3.9-0.3,5.4-1.3c2-1.6,4.2-3.3,5.3-5.8C805.2,1346.7,801,1342.9,796.2,1343.2 M142.1,1360.3c-11.9,1.4-23.5,4.5-35.2,6.9
			c-0.8,1.8-1,3.8-0.9,5.8c-0.1,22.7,0.4,45.4,0.3,68.1c-1.2,38,0.2,76-0.7,113.9c23.1-5.2,46.9-7.2,70.5-8.1
			c22.5-0.3,45.1-0.1,67.4,2.9c12.3,1.4,24.6,2.6,36.6,5.7c-0.7-35.2-0.2-70.4-0.4-105.5c-0.1-27.4,0.5-54.8-0.2-82.3
			c-13-3.9-26.4-5.6-39.8-7.5c-11.5-1.6-23-1.9-34.6-2.1C184,1357.8,162.9,1357.7,142.1,1360.3 M770.1,1359.3
			c-10.3,1.2-20.7,1.7-31,2.6c-1.2-0.3-2.5-0.2-3.7-0.2l-0.3,0.5c-6.6,0.4-13.2,0.7-19.7,1.8c-12.4,0.1-24.8,3-37.3,2.4
			c-0.1,0.3-0.2,1-0.3,1.3c-0.1,57.1-0.3,114.2-0.5,171.3c-0.2,9.1,0.3,18.3-2,27.2c6.2-8.1,10-17.8,16.1-26
			c0.7-1.4,2.4-2.6,1.8-4.3c-0.4-4.2-3.2-7.5-4.7-11.3c-0.6-4.7,2.7-8.7,4.7-12.6c3.5-2.7,7.1-5.3,11.5-6.4c1.8-0.7,4.2-0.7,5.4-2.6
			c2.7-3.7,4.6-7.9,7-11.8c1.8-3.5,4.1-6.9,5.7-10.5l0.2,0.1c1.4-2.9,2.8-5.7,4.4-8.5l-0.3-0.3c9.5-17,18.8-34.1,27.9-51.3
			c4.6-9.1,10-17.8,14.7-26.9l0.3,0.1c0.9-2.4,2-4.7,3.2-7c3-5.9,6.3-11.6,9.2-17.6c0.7-1.1,1.3-2.3,1.9-3.5
			c0.7-1.4,1.5-2.7,2.2-4.1c-0.4-1.1-0.8-2.1-1.3-3.1C780,1358.2,775,1359,770.1,1359.3 M809.8,1362.4c-2.9,2.4-6.1,5.1-10.2,4.6
			c-1.4,0.4-3,0.4-3.9,1.7c-2.6,3.1-4.5,6.7-6.5,10.2c-1.3,2.6-2.6,5.1-4,7.6h-0.1c-1.8,3.9-3.9,7.7-6,11.4
			c-8.7,17.7-18.9,34.7-28.1,52.2c-3.7,7.9-8.1,15.5-12.3,23.1h-0.3c-1.2,2.4-2.5,4.7-3.8,7l0.1,0.1c-5.6,10.8-11.7,21.4-16.8,32.4
			c6.7-4.1,14.7-4.9,21.8-8c11.3-4.6,23.1-7.9,34.5-12.5c5.8-1.2,11.4-3.8,17-5.8c10.2-3.8,20.5-7,30.6-10.8
			c2.5-0.6,2.5-3.6,3.4-5.5c1.8-6.7,8.2-11.6,14.9-12.7c5.9-0.6,10.2,4,14.7,6.9c19.5-7.5,39.2-14.7,59-21.5
			c5.1-1.6,10.2-3.2,15.2-5.3c3.8-1,7.3-2.5,11.1-3.6c7.5-2.8,15.2-5.3,22.5-8.5l0.2,0.1c5.9-2.3,12.2-3.6,17.9-6.5l0.4,0.2
			c3-1.4,6-2.6,9.1-3.7c1.7-0.3,3.4-0.9,5.1-1.4c0.1-0.4,0.3-1.1,0.4-1.5c-21.3-5.8-42.5-11.5-63.6-17.9
			c-22-6.1-43.9-12.4-65.8-18.4c-3.5-2-7.6-2.6-11.3-3.9c-13-4.1-26-7.7-39-11.8C813.6,1359.4,811.6,1361.1,809.8,1362.4
			 M78.8,1397.1v0.3c-13.4,11.1-27.9,20.8-41.6,31.6c8.7,31.9,19.5,63.2,32.2,93.7c3.4,8,5.8,16.5,11,23.6c0-3-0.3-6-0.6-8.9
			c-0.1-22.8-0.2-45.5-0.2-68.2c0.2-11-0.7-22,0.7-33c0-13.1,0.4-26.1-0.3-39.2C79.7,1397,79.1,1397.1,78.8,1397.1 M1011.3,1406.2
			c-3.2,1.5-8.4,5.1-5.5,9c1.5,2.2,3.2,4.4,5.1,6.2c4,0.3,7-3.3,9-6.4C1020.8,1410.3,1016.1,1405.7,1011.3,1406.2 M1025.2,1424.3
			c-3,3.2-7,5.1-10.5,7.8c-3.1,3.7-5,8.1-7,12.4c-1.6,2.7-2.8,5.6-4,8.5c-9.7,21.8-19,43.8-29.6,65.1c-1.7,4.3-4.6,8.1-5.3,12.7
			c2-1,3.9-2.1,5.8-3.3c8.1-5.7,16.6-10.8,25-15.9c15-9.8,30.5-18.9,45.6-28.5c2.1-0.9,4-2.3,5.9-3.6c3.6-2.3,7.2-4.5,10.8-6.6
			c4.2-2.3,8.1-4.9,11.9-7.7c5.3-3.1,10.5-6.2,15.6-9.5c4.8-2.6,9.2-5.9,13.7-9l-0.2-0.5c1.4,0,2.1-0.8,2.1-2.2
			c-0.5-0.3-1.6-0.9-2.1-1.2l0.2-0.4c-12.3-3-24.3-6.9-36.5-9.9c-12.3-3-24.4-6.8-36.5-10.3
			C1028,1421.3,1026.4,1422.9,1025.2,1424.3 M971.3,1434.3c-3.3,0.4-6.3,2-9.3,3.2c-6.4,2-12.6,4.5-18.9,6.7c-4,1.3-8,2.4-11.8,4
			c-14.3,5-28.6,10.1-42.9,15.1c-8.8,3.6-18,6.4-26.8,10.2c-5.1,2-5.2,8.1-7.9,12.2c-1.7,2.8-5.8,2.6-7.5,5.2
			c1.7,23.6,1.8,47.3,3.2,70.9c-0.1,11.4,1.2,22.7,1,34.1c0.2,15,0,30,0.8,45c0.4,11.3,0,22.7,1.1,34.1c0.2,8,0.3,16,0.3,24
			c-0.2,5.7,1.1,11.3,0.8,16.9c-0.3,6.7,1,13.3,0.9,20c0.1,6.8-0.3,13.5,0,20.3c2.5-4.6,4.6-9.5,6.6-14.3
			c3.4-8.4,7.8-16.3,11.5-24.6c3.1-7.7,6.5-15.3,10.3-22.7c5-9.3,8.2-19.5,12.8-29c12.9-27.1,24.3-54.8,37.4-81.8
			c3.6-8.5,7.5-16.8,12-24.9c-0.5-2.1-2.1-3.7-3.2-5.5c-2.5-3.8-4.5-8.8-2.5-13.2c1.9-5.4,6.6-9.2,11.7-11.4
			c2.4-1.1,5.4-0.7,7.5-2.5c2.2-3,3.5-6.6,5.1-10c7.3-17.2,15.6-34,22.8-51.2l0.8-0.4c0-0.4,0-1.3,0-1.8c2.4-5.2,5-10.3,7.3-15.5
			c2.3-4.7,4.5-9.5,6.7-14.3c0.6-1.4,1.2-2.8,1.6-4.3c-0.1-1.6-0.6-4.2-2.7-3.7C989.8,1425.9,980.8,1431.3,971.3,1434.3
			 M1115.6,1436.6c-2.9,2.3-0.9,6.3-0.5,9.3c0.2,0.2,0.7,0.6,0.9,0.8l0.3-0.1c2.2,2.2,5.9,4,8.3,1.1c3.5-2,4-5.9,3.4-9.5
			C1124.8,1435.3,1119.4,1434.1,1115.6,1436.6 M1130.6,1453.8c2.4,6.8,3.6,13.9,6.2,20.6c1.3,4,2.3,8,3.7,11.9
			c1.3,4.9,2.7,9.8,3.6,14.8l0.4,0.1c1.1,3.3,2.4,6.5,3.9,9.6c1.8,6,4.2,11.8,5.8,17.9l0.3-0.3c2.9,9.9,6.4,19.7,9.3,29.6
			c2.3,6.6,3.3,13.9,7.7,19.6c2,2.7,5.9,1.8,8.3,0.2c4.4-2.8,8.3-6.4,12.3-9.7c8.7-7.4,17.6-14.6,26.3-21.9c2.3-1.3,4.2-3.3,6.1-5.1
			c4.2-3.7,8.5-7.2,12.6-11c1.6-0.8,2.9-2.2,4.3-3.3l0.1-0.3c11.2-9.2,22.1-18.8,33.8-27.4c-1.8-0.4-3.6-0.8-5.4-1.2l0.1-0.5
			c-20.7-6.7-41.4-13.6-62.1-20.3c-22.4-7.3-44.5-15.5-67-22.3C1137.5,1454.3,1133.9,1452.1,1130.6,1453.8 M1105.3,1458.2
			c-9.1,4.3-16.8,11-25.8,15.5c-0.9,0.2-1.9,0.5-2.8,0.8c-3.3,2.2-6.6,4.4-9.8,6.9c-4.7,3.1-9.5,6.1-14.4,8.9l0.3,0.2
			c-19.5,11.8-38.6,24.5-58.2,36.2c-7.8,5-16.5,9.3-22.7,16.4c4.5,1.5,9.2,2.1,13.8,3c22.8,4.6,45.3,10.4,68,15.3
			c23.6,5.5,47.2,11.3,70.9,16.2c2.2,1.1,4.7,1.3,7.1,2c8.3,1.7,16.4,4,24.8,5c1.5-2,2.6-4.4,1.6-6.9c-5.3-19.8-12.4-39.2-18.2-58.8
			c-0.2-0.5-0.7-1.4-1-1.8c-2.2-7.7-4.8-15.3-7-23c-1-2.7-1.8-5.4-2.5-8.2l-0.3,0.5c-0.7-4.3-2.2-8.3-3.5-12.4
			c-2.2-6.2-4.6-12.9-10.3-16.8c-0.6-0.6-1.4-1-2-1.4l0.4-0.6C1110.7,1454.7,1108.1,1456.9,1105.3,1458.2 M838.3,1467.5
			c-2.4,2.5-6.1,5.4-5.1,9.4c1.7,2.8,4.7,5,7.9,5.9c3.1-1,5-4.1,7.2-6.2c2.1-2.5-0.7-4.9-2.3-6.6
			C844.1,1467.8,841.1,1466.2,838.3,1467.5 M801.7,1494.6c-18.9,6-37.2,13.5-56.1,19.6c-5,1.6-10,3.6-14.9,5.5c-3.5,1.6-8,3-8.9,7.2
			c-0.7,2.6-2.8,4.6-3.9,7c12.7,21.4,24.9,43.3,37,65c4,6.9,7.4,14.2,12,20.7v0.2c3.9,6.8,7.4,13.8,11.3,20.5l0.3,1.3l0.5-1.1
			l-0.2,1.1c6.7,12.5,13.9,24.8,21,37.1c1.4,3.1,3.2,5.9,4.8,8.9c3.6,6.6,7.2,13.2,10.8,19.8c9.7,16.8,18.8,34,28.5,50.8
			c0.2-6.2-1.2-12.3-1.3-18.5c-0.2-6.7-0.4-13.3,0-20c-1.8-15.3-0.5-30.7-1.8-46c-0.3-11.7-0.4-23.4-0.6-35.1
			c-0.8-13.3-0.2-26.7-1.6-40c-0.9-27.3-2-54.6-2.2-82c-0.2-2.5,1.4-4.9,0.7-7.4c-1.2-4.4-0.8-9-1-13.6c-0.2-1.9,0.3-4.3-1.7-5.4
			c-2.5-1.6-4.6-4.2-7.4-5.2C818.4,1488.2,810.2,1491.8,801.7,1494.6 M698.6,1522.9c0.6,3.3,3.5,5.6,5.5,8.3
			c3.3-1.6,6.4-3.6,8.9-6.3c1.8-2.1-0.8-4.2-1.8-5.9c-1.6-2.1-3.8-5.9-7-4C701.3,1516.6,699.3,1519.7,698.6,1522.9 M1258.6,1526.6
			c-5.7,5.3-12.2,9.7-17.9,15.1c-5.7,5.4-12,10-18,15.1c-9.6,8.1-19.4,16-29.1,23.9c-2.8,2.7-6.4,4.9-8,8.5
			c1.5,4.6,0.9,9.3-0.9,13.7c9.3,8,16.6,18.2,26.2,25.9c6.1-13.2,13.2-25.9,20.2-38.6c8.3-16.4,16.3-33,24.9-49.3
			c3.8-8.3,8.9-15.9,13.7-23.7C1265.6,1519.9,1262.2,1523.4,1258.6,1526.6 M952.3,1538.4c-2.1,0.6-4.5,2.1-4.2,4.6
			c0.6,4.2,3.6,7.8,6.9,10.3c3.8-1.2,6.7-4.4,9.2-7.4C964.2,1540.4,957.6,1535.5,952.3,1538.4 M706.4,1552.2
			c-2.8,18.5-6.3,36.9-8.7,55.5c-2.2,11.1-4,22.3-5.6,33.6c-2.6,18.7-5.3,37.3-8.9,55.8c-2,10.4-4.3,20.8-4.9,31.4
			c3.4,1,6.9,1.7,10.3,2.7l0.2,1.2l1.1-0.8c0.5,0,1.4,0.1,1.9,0.1c0.5,0.3,1.6,1,2.2,1.3c6,1.1,11.8,3,17.7,4.5
			c21,5.8,42.1,11.2,63.2,16.7c3.8,1.1,7.7,2.2,11.6,2.9c6.7,1.2,12.9,4.1,19.6,5.3c3.5,0.5,6.2,3.1,9.8,3.2
			c7.3,0.7,14.2,3.7,21.6,4.5c-0.7-4.8-3.8-8.7-5.9-12.9c-2.9-6.2-7-11.7-10.3-17.6c-11-19.4-22.2-38.7-32.7-58.4
			c-3.8-8.5-9.6-15.9-13.8-24.2c-13.7-25.1-28-50-41.8-75c-8.2-14.4-15.7-29.3-25.1-43C706.7,1543.4,707.2,1547.9,706.4,1552.2
			 M962,1561.1c-4.5,3.1-5.2,8.8-5.9,13.8c-3,30.6-9.4,60.8-12.9,91.3c2.2,1.8,4,5.8,7.5,4.4c12.6-5,25.3-9.6,37.9-14.5
			c3.3-1.2,6.7-2.5,10-3.7c5.7-2.3,11.4-4.4,17.2-6.5c7.5-2.4,14.7-5.6,22.2-8.2c1-0.5,2.5-0.8,2.8-2c1.3-3.3,2-7,4.4-9.8
			c3.2-3.9,7.7-7.2,12.8-7.8c5.6-0.2,10.1,3.5,14.4,6.7c3.8-1,7.4-2.7,11.3-3.7l-0.2-0.6c3.9-1.3,7.7-2.8,11.5-4.1l-0.2-0.7
			c0.6-0.3,1.7-0.9,2.2-1.2c0.2,0.2,0.6,0.7,0.8,0.9c7.1-2.5,14.1-5.5,21.2-8.1c1.8-0.6,3.7-1.1,5.4-1.9c9.3-3.2,18.6-6.3,28.1-9
			c-0.3-0.4-0.8-1.2-1.1-1.6c-9.7-1.4-19.2-3.7-28.8-5.6c-1.7-0.5-3.3-0.9-5-1.3c-12.7-3.4-25.7-6-38.5-9
			c-20.2-4.4-40.2-9.6-60.5-13.7c-5.6-2-11.6-2.8-17.3-4.4c-4.2-1.2-8.4-2.2-12.6-2.9c-4.8-1.3-9.5-2.7-14.4-3.5
			C969,1553.5,965.8,1558.6,962,1561.1 M100.6,1584.1c0.6,3.9,2.1,8.1,5.4,10.6c6.1-0.5,11.9-2.5,17.9-3.5
			c39.2-7.2,79.6-7.8,119.1-2.9c20.9,3.1,41.9,7.5,61.4,16.2c7,3,13.1,7.8,19.7,11.6c0.2-2.7,0.2-5.6-1.2-8.1
			c-3.1-5.6-9.1-8.5-14.3-11.8c-19.8-11.1-42.4-15.4-64.5-19C196.5,1570.4,147.4,1572.2,100.6,1584.1 M945.8,1581.3
			c-12.4,24.9-22.6,50.8-34.6,75.8c-9,18.6-16.5,37.9-25.7,56.4c-8.2,17.5-15.3,35.5-24.6,52.5c1.1,2.7,3.3,4.9,4.3,7.7
			c1.5,2.8,1.4,6,1.6,9.2l-0.2-0.7c-0.6,3.5-2.9,6.2-5.4,8.6c5,6.3,8.1,13.9,12,21l0.3,0.1c4.3,9.7,10.5,18.4,15.5,27.8
			c1.7,3.6,3.7,7.1,5.6,10.7c2.4,4.4,4.3,9.2,7.5,13.2c-0.1-7.2,1.8-14.2,2.5-21.3c1.4-6.8,1.9-13.7,3.2-20.5
			c1.3-8.4,2.2-16.8,3.5-25.1c2.6-14.8,4.1-29.9,6.8-44.7c1.3-2.4,3.3-4.6,3.3-7.4c-1.3-1.2-2.6-2.6-3.1-4.3c1.3-1.1,2.4-2.3,2.5-4
			c2-13,3.8-26.1,6.6-38.9c-4.6-2.7-8.2-7.1-10.1-12.1c-1.5-3.4,0.8-6.7,2.6-9.4c1.9-2.8,3.1-6.1,5.2-8.8c1.9-0.8,4-0.9,6-1.2
			c1.6-4.8,1.8-10.1,4-14.8c1.1-14.2,3-28.4,5.4-42.5C941.6,1599.3,944.4,1590.5,945.8,1581.3 M1164.8,1587.8c-2,2.1-3,5.2-2.8,8.2
			c0.8,1.9,2.6,3.1,4,4.6l0.6-0.3c3,2.8,6.4-0.3,9.4-1.4c1.8-3.2,0.1-6.8-1.3-9.8l0.1-0.3
			C1172.5,1585.8,1167.8,1585.8,1164.8,1587.8 M1126.1,1616.1c-3,1.1-6.1,2.2-9.2,3l-0.1,0.3c-6.1,2.4-12.2,4.5-18.3,6.8
			c-1.3,0.3-2.6,0.6-3.9,0.9v0.4c-5.4,2.4-11.2,3.9-16.2,7.1c-1.7,0.9-2.3,2.7-2.9,4.4c-1.5,4.4-4.4,8-7.7,11.1
			c2.2,4.4,2.7,9.3,4.2,14c5.8,19.9,10.3,40.2,16.7,59.9v0.1c2.9,8.9,4.3,18.2,7,27.2c2.7-5.3,4.3-11.2,6.8-16.6
			c4.7-11.3,10-22.3,14.4-33.7c0.5-1.2,1.1-2.3,1.3-3.5c13.1-29.1,25.8-58.3,38.6-87.5c0.8-1.8,0.5-3.7,0.5-5.6
			C1146.8,1607.9,1136.6,1612.6,1126.1,1616.1 M1163.5,1621.6c-6.1,15-12.7,29.8-19.3,44.6c-3.8,8.6-7.1,17.4-11,25.9
			c-6.1,13.4-11.2,27.3-17.3,40.7c-2.8,7.1-7.1,13.3-10.8,20c3.6-2.6,7.2-5.3,10.1-8.7c5.7-6.6,12.7-11.9,18.7-18.2
			c8.6-8.5,16.8-17.2,24.9-26.2c10.8-12.6,22-24.8,31.7-38.2c5.2-7.2,11-14,15.6-21.6c-0.8-2-3-3.1-4.3-4.6
			c-7.8-7.8-15.7-15.6-23.2-23.7c-1.2-1-2.6-2.9-4.4-2.1C1168.5,1610.9,1165.4,1616.5,1163.5,1621.6 M120.4,1618.3
			c1,4.2,4.3,7.2,6.4,10.7c1.3,1.6,2.5,4.5,5,3.6c13.8-3.5,28-5.5,42.2-6.9c13.9-1.4,27.9-0.8,41.8,1c11.8,1.3,23.5,3.4,34.8,6.9
			c6,2.1,12.9,5.1,15.2,11.5c0,5.7-4.1,10.2-5.9,15.3c7.3-3.2,15.1-5.2,22.6-7.8c9.2-3.3,18.2-7.4,25.8-13.7
			c-2.1-3.7-5.9-5.7-9.4-7.8c-13.2-7.4-28.1-11-42.9-13.7c-17.5-3.3-35.3-5.2-53.1-5.1c-15.7,0-31.4-0.6-47,1
			C144,1614,132.2,1616.1,120.4,1618.3 M1056.3,1628.5c-4.4,1.4-7,8.1-3.2,11.4c1.8,2.1,4.6,4,7.4,2.6c3.3-0.9,5.4-4.2,5.5-7.5
			C1065.6,1630.4,1060.8,1626.8,1056.3,1628.5 M1013.5,1658v0.2c-5.1,2-10.1,4-15.3,5.8c-4,1.5-8,2.9-12,4.3v0.2
			c-11.6,3.9-22.8,8.8-34.5,12.3c-0.2,1.8-0.3,3.5-0.6,5.3c-0.6,4.4-4.6,7-7.7,9.7c-2.6,2.3-7.1,3.5-7,7.7
			c-0.9,13-4.3,25.6-5.7,38.6c-1.1,11.7-4.3,23.2-5,34.9c-0.9,7.3-2.6,14.4-3.5,21.7l-0.3-0.1c-1,7.2-2,14.4-3.2,21.6
			c-1.4,11.6-4.1,22.9-5.8,34.4c8.3-12.6,16.7-25.2,24.2-38.2c5.3-9.2,11.7-17.8,17.3-26.8c9.3-14.1,17.8-28.7,27.6-42.4
			c-1.3-4.5-5.2-8.2-4.5-13.1c0.4-5.6,4.8-9.4,8.8-12.6c3.6-1.8,7.4-3.2,11.5-2.8c2.5-0.9,3.7-3.5,5.3-5.4
			c5.1-7.6,9.6-15.5,14.5-23.2c7.2-10.6,13.6-21.7,20.6-32.5c2.3-3.8,5.6-7.1,7.7-11.1C1035,1649.5,1024.3,1653.9,1013.5,1658
			 M145.8,1655.4c6.5,9,13.6,17.6,20.4,26.4c8.5,9.9,16.9,19.9,25.4,29.8c1,1.3,2.4,2.4,4.1,2.9c7.1-12.1,14.1-24.2,21.8-36
			c4.9-8,10.1-16,15.6-23.6c-5.1,0.2-10.1-1.1-15.1-1.9c-14.9-1.9-29.9-2.1-44.8-1.1C163.9,1652.4,155,1654.8,145.8,1655.4
			 M1054.8,1652.7c-9.7,14.4-18.7,29.3-28.3,43.8c-4,7-9,13.4-12.8,20.6c-1.6,2.3-4,4.2-5,6.9c0.4,2.6,2.4,4.6,3.5,6.9
			c1.1,1.8,1.6,4.4,3.8,5.2c3,1.3,6.1,2.5,9.2,3.7c20.6,6.2,41.5,11.6,61.7,19.1c-2.3-8.1-5.4-16-7-24.3
			c-6.9-26.2-14.4-52.2-21.5-78.4C1057.8,1654.7,1056.8,1649.9,1054.8,1652.7 M315,1665.9c-9,5-18,10.1-28.1,12.5
			c35.9,8.3,71.5,18.4,107.2,27.6c16,4,31.8,8.8,47.9,12.8c22.9,5.7,45.5,12.4,68.4,17.9c43.5,11.5,87,22.7,130.4,34.6
			c8.5,2.4,17.1,4.2,25.5,6.9c0.3-5.4,0.2-10.8,0.6-16.1c-0.2-1.7,0.7-4.8-1.8-5.1c-13.9-3.3-27.4-7.6-41.3-10.7
			c-81.9-21.5-163.7-43.1-245.5-64.6c-19.3-5.5-39-9.9-58.2-15.7C318.4,1665.6,316.6,1664.9,315,1665.9 M931.9,1675.3
			c-2.1,1.8-3.9,4.2-5.1,6.8c1.3,4.3,5.4,8.7,10.3,7.1v-0.3c2-1.3,3.8-3.1,4.4-5.5C943.6,1678.1,936.8,1671.9,931.9,1675.3
			 M245,1687.2c-2.4,0.5-3.8,2.7-5.2,4.6c-5,7.2-9,15-14,22.1c-4,5.8-6.9,12.3-11.8,17.5c0,0.6-0.1,1.8-0.1,2.4
			c39.1,38.2,82.9,71.7,130.4,99c20.2,12.1,41.6,22.1,63,32.1c38,16.3,77.4,29.9,117.7,39.3c19.8,4.4,39.9,8.1,60,10.9
			c27.1,3.3,54.4,5.3,81.7,5.7c-0.6-9.9-0.4-19.9-0.6-29.8c-0.1-30.4-0.1-60.9-0.1-91.3c-4.2,0.1-8.4-0.5-12.6-0.1
			c0.2,15.2,0.2,30.4,0.6,45.6c-0.2,0.3-0.7,0.9-1,1.3c-3.5,0.3-7.1,0.4-10.4-0.9c-0.4-8.1-0.6-16.3-0.6-24.4
			c0.2-10.1-0.3-20.2,1.5-30.1c-8-0.1-16-0.5-24-0.9c-1,14.3-0.3,28.6-0.5,42.9c-0.2,1.2,0,3-1.5,3.5c-2.9,1.1-6.1,1.3-9.2,1
			c-0.9-9.1-0.4-18.3-0.6-27.4c0.2-9.4-0.7-18.9,1.1-28.1c-8,0.4-15.9-0.2-23.8-0.2c0,15.8,0.3,31.5,0,47.3
			c-3.2,0.1-6.5,0.3-9.7-0.4c-1.5-0.6-1.2-2.3-1.4-3.6c-0.4-9.3-0.4-18.7-0.4-28c0.3-8-0.4-16.1,1-24c-7.9,0-15.8-0.5-23.7-0.3
			c0.1,14.1,0,28.3,0,42.4c-0.2,1.5,0.4,3.7-1.3,4.5c-3.2,0.3-6.5-0.2-9.7-0.5c-0.9-9-0.9-18-0.9-27.1c0-9.3-0.2-18.7,0.9-27.9
			c-7.7-0.4-15.3-0.6-23-0.9c-0.3,13.9,0,27.9-0.2,41.8c0,2-0.2,4.1-1,5.9c-3.3-0.4-6.6-0.7-9.8-1.2c-1.2-5.9-0.9-11.8-1-17.8
			c-0.1-12.3-0.1-24.7,1-37c-7.7-0.1-15.4-0.5-23-0.6c-1.9,0.7-0.6,3.2-1,4.8c0.2,14.2,0.2,28.5-0.1,42.7c-3.6,0.2-7.2,0.1-10.7-0.4
			c-0.5-8.1-0.3-16.2-0.4-24.3c0.1-10.4-0.3-20.7,0.5-31c-7.9,0.1-15.7-0.9-23.5-0.3c0.2,12.4,0,24.9,0,37.3
			c-0.1,3.3,0.2,6.7-0.8,9.8c-3.4-0.4-6.7-0.6-10.1-0.8c-0.1-8.7-0.1-17.4-0.1-26.1c0.3-9.7-0.5-19.4,0.6-29.1
			c-7.9,0-15.8,0-23.7-0.9c-0.1,15.8,0.1,31.5,0.1,47.3c-3.6,0.3-7.3,0.3-10.9-0.1c-0.8-18.4-0.8-36.8,0.3-55.2
			c-7.9,0-15.7-0.3-23.6-0.6c-0.3,15.6-0.1,31.2-0.5,46.8c-3.4-0.7-7.8,0.4-10.4-2.2c-1.1-17.7-0.7-35.5,0.3-53.2
			c-7.8,0.1-15.6,0-23.4-0.7c-0.8,15.6,0.3,31.3,0,46.9c-3.7-0.1-8.1,0.7-11.3-1.4c-1.1-10.2-0.5-20.5-0.6-30.7
			c0.2-7.8-0.4-15.7,1.2-23.3c-8.1,0.7-16.2,0.1-24.3-0.3c0.6,10.2,0.3,20.5,0.4,30.7c-0.1,5.4,0.6,11-1.1,16.3
			c-3.1,1.2-7,1.8-9.7-0.7c-1.8-7.4-0.9-15.1-1.2-22.6c0.3-11-0.7-22,1.1-32.9c-7.8,0.5-15.6,0.7-23.4,0.3
			c-0.3,9.5-0.1,19.1-0.1,28.6c-0.1,6,0.7,12.2-1,18.1c-3.2,0.6-7.5,1.7-10.1-0.9c-0.8-3-0.6-6.1-0.7-9.2c0-12.7-0.1-25.4,0-38.1
			c0.2-1.9-0.1-4,1-5.7c3.4-2.3,7.1-4.3,11.3-5c-3.4-0.5-6.9-0.6-10.3-1.3C259.8,1685.2,252.2,1685.9,245,1687.2 M994.3,1728.4
			c-2.3,1-5.1,2.2-6.1,4.7c-1.1,3.7,1.3,7.3,4.1,9.6c3.5,1.6,7.6-0.8,9.9-3.5c2-2.3-0.2-5.2-1.2-7.4
			C1000,1729.3,997,1727.7,994.3,1728.4 M677.5,1739.6c-0.4,6.3-0.5,12.6-0.2,18.8c0.6,30.8-0.2,61.5,0.1,92.3
			c-0.1,0.6-0.3,1.8-0.4,2.5c0.5,19.3,0.3,38.6,0.4,57.9c7.1-7.1,15.1-13.3,23-19.5c15.7-13,32.1-25.2,48.1-37.8
			c2-1.8,4.2-3.5,6.3-5.1v-0.4c3.7-2.4,7-5.3,10.5-8.1c5.8-4.8,12.2-8.9,17.4-14.4h0.4c4.6-3.7,9.2-7.6,13.8-11.3l-0.3-0.2
			c8.1-5.7,15.8-12,23.6-18.2c5.3-4.1,10.9-8.1,14.8-13.6c-8.6-4.8-18.6-6-28-8.8c-31.7-8.4-63.5-16-95-24.9
			C700.5,1745.7,688.9,1743.2,677.5,1739.6 M1008.8,1746.3l0.6,0.2c-4.8,1.5-9.1,4.1-13.8,5.9c-0.2,0.5-0.7,1.4-1,1.9
			c-0.1-0.6-0.2-1.9-0.2-2.5c-4.6,0.8-6.3,5.6-8.6,9c-3.7,5.4-7.7,10.5-10.9,16.2c-5.9,10.4-12.2,20.6-18.9,30.5h-0.1
			c-4.4,6.9-8.7,14-13.2,21c-4.1,6.3-9,12.2-12.2,19c-2.8,5.9-6.8,11-10.8,16.1c6-2.6,10.9-7.1,16.7-10.2
			c9.8-5.7,19.7-11.2,29.3-17.2l0.2,0.1c10.3-6.5,21.1-12.3,31.5-18.7l-0.2-0.1c4.5-2.6,9.1-5.2,13.6-7.9c3.4-1.7,6.6-3.7,10-5.5
			v-0.3c18.1-9.6,35.2-21,53.1-31c2.6-1.5,5.6-2.6,7.8-4.9c-19.3-5-38.3-11.2-57.1-17.6c-3.5-1.7-7.4-2.3-10.9-3.9
			C1012.1,1745.5,1010.4,1746,1008.8,1746.3 M848.5,1771.3c-3.3,1.8-6,5.2-7,8.9c-0.3,3.6,3.7,4.9,6.4,5.9c3.3,1.4,6.9-0.9,8.8-3.6
			c1.7-1.9,0.2-4.5-0.8-6.4C854.3,1773.6,851.8,1770.6,848.5,1771.3 M832.9,1799.4c-9.5,8.7-20.2,16-29.9,24.5
			c-7.8,5.9-15.3,12.1-23,18.2c-14,10.5-27.2,22.2-41.4,32.5c-10.3,8.4-20.6,16.7-31.2,24.7c-5.4,4.6-11.6,8.1-16.3,13.4
			c5.1-0.2,9.9-1.8,14.8-2.8c15-2.8,29.9-5.7,44.8-8.6c21.8-4,43.7-7.8,65.6-11.5c2-0.4,4.1-0.8,6.1-1.2v-0.2
			c8.4-1.3,16.8-2.9,25.2-4.7c3-0.3,6-0.9,9-1.4c9.6-1.9,19.3-3.8,29-5.1l1.5-0.4c3.4-0.5,6.8-1.1,10.2-1.6
			c-3.5-5-7.5-9.8-10.5-15.2c-10.9-20.9-21.6-41.9-34.1-61.9c-0.6-0.4-1.8-1.2-2.3-1.6l0,0c-3.2-0.6-6.2-1.8-9.4-2.4
			C837.8,1794.9,835.4,1797.4,832.9,1799.4 M1017.2,1818.2c-17.6,10.9-36.1,20.3-53.3,31.8c17.5-9.4,35-19,51.8-29.5
			c7.9-5.1,16.2-9.7,23.5-15.7C1031.8,1809.2,1024.5,1813.8,1017.2,1818.2 M825.2,1898.3c-11.8,1.7-23.2,5.6-35.1,6.9
			c-12.3,2.6-24.8,4-37.1,6.8c-10.4,1.8-20.8,3.4-31,5.7c10.3-1.4,20.7-2,30.9-3.5c13.1-1.3,26-4.1,39-5.7c9.4-2.5,19.1-3.4,28.5-6
			c9.9-3.1,20-5.7,29.8-9C842,1895.2,833.5,1896.5,825.2,1898.3z"/>
		<path d="M906.5,755.5c0.8,0.1,2.3,0.3,3.1,0.4c-1.3,0.3-2.7,0.6-4,0.9c0,0.6-0.1,1.8-0.2,2.4c-2.7,2.4-5.3,5-8,7.4
			c-1.4,0.4-2.8,0.2-4.1-0.5c0.8,0.1,2.3,0.3,3.1,0.4C899.4,762.5,902.4,758.5,906.5,755.5z"/>
		<path d="M1356,1311.3c-1.6-29.8-1.2-59.6,0-89.4V1311.3z"/>
		<path d="M145.4,1367.6c3.3-0.8,7-1.4,10.4-0.5c1,6.5,0.3,13.3,0.6,19.9c-0.1,17.8,0.1,35.5-0.2,53.3c17.9,0,35.8,0,53.7-0.1
			c0.3,4.3-1.1,8.4-2.2,12.6c-2.2,0.7-4.4,1.1-6.7,1.1c-16,0.1-32,0-48-0.1c-3-0.1-6.2-0.1-9.1-0.9c-1.6-3.4-2-7.2-2-10.9
			c-0.1-15.7,0-31.3,0-47c0.1-7.7-0.4-15.3,0.6-23C142.7,1370.2,143.4,1368.1,145.4,1367.6z"/>
		<path d="M165.2,1377.4c11.2-0.3,22.4-0.2,33.7-0.1c1.2,6.1,0.4,12.4,0.6,18.6c0.1,11-0.1,22.1,0.4,33.2
			c-11.9,0.3-23.8,0.4-35.6,0.1c-0.3-16.1,0.2-32.1,0-48.2C164.5,1379.9,163.7,1377.9,165.2,1377.4z"/>
	</g>
</g>
</svg>
